<?xml version="1.0" encoding="UTF-8"?>
<svg width="12px" height="12px" viewBox="0 0 12 12" version="1.1" xmlns="http://www.w3.org/2000/svg" xmlns:xlink="http://www.w3.org/1999/xlink">
    <!-- Generator: Sketch 56.3 (81716) - https://sketch.com -->
    <title>Combined Shape</title>
    <desc>Created with Sketch.</desc>
    <g id="Symbols" stroke="none" stroke-width="1" fill="none" fill-rule="evenodd">
        <g id="icons/App/close" transform="translate(-6.000000, -6.000000)" fill="#FFFFFF">
            <path d="M11.8851333,11.1491266 L16.3878133,6.64644661 C16.5830754,6.45118446 16.8996579,6.45118446 17.0949201,6.64644661 C17.2901822,6.84170876 17.2901822,7.15829124 17.0949201,7.35355339 L12.5922401,11.8562333 L17.0949201,16.3589133 C17.2901822,16.5541754 17.2901822,16.8707579 17.0949201,17.0660201 C16.8996579,17.2612822 16.5830754,17.2612822 16.3878133,17.0660201 L11.8851333,12.5633401 L7.35355339,17.0949201 C7.15829124,17.2901822 6.84170876,17.2901822 6.64644661,17.0949201 C6.45118446,16.8996579 6.45118446,16.5830754 6.64644661,16.3878133 L11.1780266,11.8562333 L6.67534661,7.35355339 C6.48008446,7.15829124 6.48008446,6.84170876 6.67534661,6.64644661 C6.87060876,6.45118446 7.18719124,6.45118446 7.38245339,6.64644661 L11.8851333,11.1491266 Z" id="Combined-Shape"></path>
        </g>
    </g>
</svg>