<?xml version="1.0" encoding="UTF-8"?>
<svg width="20px" height="14px" viewBox="0 0 20 14" version="1.1" xmlns="http://www.w3.org/2000/svg" xmlns:xlink="http://www.w3.org/1999/xlink">
    <!-- Generator: Sketch 56.3 (81716) - https://sketch.com -->
    <title>icons/Navbar/Back Copy</title>
    <desc>Created with Sketch.</desc>
    <defs>
        <path d="M8.61865362,15.8723448 L13.3727643,20.1232009 C13.7844711,20.4913258 13.8198013,21.1235043 13.4516764,21.5352111 C13.0835515,21.946918 12.451373,21.9822481 12.0396661,21.6141232 L5.34505557,15.6281822 C5.31088398,15.5984966 5.27832501,15.5661393 5.24766834,15.5311294 C5.0793235,15.3388796 4.99783714,15.1003282 5.00002952,14.8634397 C5.00025466,14.6339836 5.08420987,14.3962898 5.25453885,14.2057958 C5.28555685,14.1711056 5.31844953,14.1390875 5.35292706,14.1097578 L12.0474307,8.24766834 C12.462932,7.88383168 13.0947102,7.92571415 13.4585469,8.34121546 C13.8223835,8.75671676 13.7805011,9.388495 13.3649998,9.75233166 L8.65994653,13.8723448 L23.9687326,13.8723448 C24.5210174,13.8723448 24.9687326,14.3200601 24.9687326,14.8723448 C24.9687326,15.4246296 24.5210174,15.8723448 23.9687326,15.8723448 L8.61865362,15.8723448 Z" id="path-1"></path>
    </defs>
    <g id="Page-1" stroke="none" stroke-width="1" fill="none" fill-rule="evenodd">
        <g id="Новости" transform="translate(-1054.000000, -2424.000000)">
            <g id="Group-10" transform="translate(460.000000, 2379.000000)">
                <g id="Group-8" transform="translate(381.000000, 37.000000)">
                    <g id="Group-7" transform="translate(118.000000, 0.000000)">
                        <g id="icons/Navbar/Back" transform="translate(105.000000, 15.000000) scale(-1, 1) translate(-105.000000, -15.000000) translate(90.000000, 0.000000)">
                            <mask id="mask-2" fill="white">
                                <use xlink:href="#path-1"></use>
                            </mask>
                            <use id="Combined-Shape" fill="#5B5E77" fill-rule="evenodd" xlink:href="#path-1"></use>
                        </g>
                    </g>
                </g>
            </g>
        </g>
    </g>
</svg>