<?xml version="1.0" encoding="UTF-8"?>
<svg width="60px" height="68px" viewBox="0 0 60 68" version="1.1" xmlns="http://www.w3.org/2000/svg" xmlns:xlink="http://www.w3.org/1999/xlink">
    <!-- Generator: Sketch 56.3 (81716) - https://sketch.com -->
    <title>Shape</title>
    <desc>Created with Sketch.</desc>
    <g id="Page-1" stroke="none" stroke-width="1" fill="none" fill-rule="evenodd">
        <g id="Преподаватель" transform="translate(-925.000000, -931.000000)" fill="#FFFFFF" fill-rule="nonzero">
            <g id="Group-6" transform="translate(460.000000, 568.000000)">
                <g id="Group-2" transform="translate(50.000000, 323.000000)">
                    <g id="Group-15-Copy" transform="translate(365.000000, 0.000000)">
                        <g id="Group-14">
                            <path d="M107.247706,47.2289157 L101.330275,47.2289157 L101.330275,42.6773762 C101.330275,41.1994645 100.097248,40 98.5779817,40 L61.4220183,40 C59.9027523,40 58.6697248,41.1994645 58.6697248,42.6773762 L58.6697248,47.2289157 L52.7522936,47.2289157 C51.2330275,47.2289157 50,48.4283802 50,49.9062918 L50,54.7255689 C50,60.5354752 54.0568807,65.3493976 59.6825688,66.6506024 C60.9926606,70.8701473 63.5577982,74.6880857 67.2458716,77.3761714 C70.146789,79.4966533 73.6091743,80.8192771 77.2477064,81.2797858 L77.2477064,93.0334672 C70.3944954,93.1780455 64.8623853,98.6184739 64.8623853,105.322624 C64.8623853,106.800535 66.0954128,108 67.6146789,108 L92.3853211,108 C93.9045872,108 95.1376147,106.800535 95.1376147,105.322624 C95.1376147,98.6184739 89.6055046,93.1780455 82.7522936,93.0334672 L82.7522936,81.2851406 C86.3577982,80.8246319 89.8422018,79.5073628 92.7541284,77.3815261 C96.4422018,74.6934404 99.0073394,70.875502 100.317431,66.6559572 C105.948624,65.3547523 110,60.54083 110,54.7255689 L110,49.9062918 C110,48.4283802 108.772477,47.2289157 107.247706,47.2289157 Z M55.5045872,54.7255689 L55.5045872,52.583668 L58.6697248,52.583668 L58.6697248,60.3855422 C56.787156,59.1378849 55.5045872,57.1191432 55.5045872,54.7255689 Z M89.0825688,102.650602 L70.9174312,102.650602 C71.9963303,100.133869 74.5504587,98.3668005 77.5229358,98.3668005 L82.4770642,98.3668005 C85.4495413,98.3668005 88.0036697,100.133869 89.0825688,102.650602 Z M95.8256881,60.7014726 C95.8256881,65.5528782 93.4422018,70.184739 89.4568807,73.0923695 C84.1449541,76.9799197 76.0311927,77.103079 70.5431193,73.0923695 C66.5577982,70.184739 64.1743119,65.5528782 64.1743119,60.7014726 L64.1743119,45.3547523 L95.8256881,45.3547523 L95.8256881,60.7014726 Z M104.495413,54.7255689 C104.495413,57.1137885 103.212844,59.1325301 101.330275,60.3801874 L101.330275,52.583668 L104.495413,52.583668 L104.495413,54.7255689 Z" id="Shape"></path>
                        </g>
                    </g>
                </g>
            </g>
        </g>
    </g>
</svg>