<?xml version="1.0" encoding="UTF-8"?>
<svg width="53px" height="65px" viewBox="0 0 53 65" version="1.1" xmlns="http://www.w3.org/2000/svg" xmlns:xlink="http://www.w3.org/1999/xlink">
    <!-- Generator: Sketch 56.3 (81716) - https://sketch.com -->
    <title>Shape</title>
    <desc>Created with Sketch.</desc>
    <g id="Page-1" stroke="none" stroke-width="1" fill="none" fill-rule="evenodd">
        <g id="Школа" transform="translate(-747.000000, -4579.000000)" fill="#FFFFFF">
            <g id="footer" transform="translate(0.000000, 4539.000000)">
                <g id="Shape">
                    <path d="M754.358751,85.8948213 L754.356977,85.9648201 L754.352792,86.1125899 L754.347677,86.261295 L754.341631,86.4104676 L754.33512,86.5605755 L754.32768,86.7111511 L754.319309,86.8626619 L754.310473,87.0146403 L754.301172,87.167554 L754.290941,87.3214029 L754.27978,87.4757194 L754.268619,87.6305036 L754.256528,87.786223 L754.250948,87.8568345 L754.243042,87.9419424 L754.227695,88.0985971 L754.212349,88.2557194 L754.196538,88.4133094 L754.163055,88.7303597 L754.145848,88.8898201 L754.109575,89.2092086 L754.072371,89.5304676 L754.033773,89.8531295 L753.993779,90.1771942 L753.94681,90.555036 L753.910071,90.8285971 L753.820783,91.4828058 L753.730565,92.1388849 L753.685921,92.4671583 L753.641276,92.794964 L753.597097,93.1227698 L753.553848,93.4501079 L753.51153,93.7769784 L753.470141,94.1029137 L753.429682,94.427446 L753.391083,94.7515108 L753.372017,94.9123741 L753.353415,95.0732374 L753.335743,95.2341007 L753.318072,95.3940288 L753.300865,95.5539568 L753.268312,95.8719424 L753.252966,96.03 L753.238084,96.1875899 L753.223668,96.3447122 L753.209717,96.5013669 L753.196696,96.6570863 L753.192975,96.7010432 L753.183674,96.8128058 L753.171118,96.9671223 L753.159027,97.1214388 L753.147866,97.2743525 L753.137635,97.4272662 L753.127869,97.578777 L753.119033,97.7298201 L753.110663,97.8803957 L753.103687,98.0295683 L753.097176,98.1782734 L753.091596,98.3260432 L753.086945,98.4733453 L753.083225,98.6192446 L753.0809,98.7642086 L753.07904,98.908705 L753.07811,99.0517986 L753.07811,99.1939568 L753.079505,99.3351799 L753.08183,99.475 L753.085085,99.6143525 L753.089736,99.7523022 L753.095316,99.8893165 L753.101827,100.024928 L753.109733,100.159604 L753.119033,100.293345 L753.129264,100.425216 L753.140425,100.556619 L753.146936,100.621619 L753.159957,100.750683 L753.174839,100.878813 L753.19065,101.005072 L753.199021,101.068201 L753.207857,101.130396 L753.226458,101.254784 L753.236689,101.316043 L753.246455,101.377302 L753.257151,101.438094 L753.267847,101.498417 L753.279473,101.558741 L753.291099,101.618129 L753.302725,101.677986 L753.315281,101.736906 L753.327838,101.79536 L753.340859,101.853813 L753.354345,101.911799 L753.367831,101.969317 L753.382248,102.026835 L753.396664,102.083417 L753.411545,102.14 L753.426892,102.196115 L753.442703,102.251763 L753.475256,102.362122 L753.492463,102.416835 L753.509669,102.470612 L753.527341,102.524856 L753.545478,102.578165 L753.582681,102.683849 L753.621745,102.787662 L753.642207,102.839101 L753.662668,102.890072 L753.68406,102.940576 L753.705452,102.990612 L753.727309,103.040647 L753.749631,103.089748 L753.772419,103.138849 L753.795671,103.187482 L753.819388,103.23518 L753.84357,103.282878 L753.868217,103.330108 L753.89333,103.376871 L753.918907,103.423165 L753.945415,103.46946 L753.971922,103.51482 L753.998894,103.559712 L754.026332,103.604137 L754.054235,103.648561 L754.082602,103.69205 L754.1119,103.73554 L754.141198,103.778094 L754.17096,103.820647 L754.201653,103.862266 L754.232811,103.903885 L754.263969,103.944568 L754.296057,103.985252 L754.312798,104.00536 L754.32861,104.025 L754.361628,104.064748 L754.305823,104.011439 L754.287221,103.993201 L754.250948,103.956727 L754.214674,103.919317 L754.178866,103.881439 L754.143523,103.843094 L754.108645,103.803813 L754.074231,103.764065 L754.040283,103.724317 L753.973317,103.642014 L753.940764,103.600396 L753.908211,103.557842 L753.876123,103.51482 L753.8445,103.471331 L753.813342,103.427374 L753.78265,103.38295 L753.751957,103.33759 L753.721729,103.29223 L753.692431,103.245935 L753.663134,103.199173 L753.634301,103.151942 L753.605468,103.104245 L753.577566,103.056079 L753.549663,103.007446 L753.522226,102.957878 L753.495253,102.908309 L753.468746,102.858273 L753.416661,102.756331 L753.391083,102.704424 L753.365971,102.65205 L753.341324,102.599676 L753.292959,102.493058 L753.269242,102.438813 L753.24599,102.384568 L753.223203,102.329388 L753.200416,102.273741 L753.178094,102.218094 L753.156237,102.161978 L753.113453,102.047878 L753.092526,101.99036 L753.072064,101.932374 L753.052067,101.873921 L753.03207,101.815 L753.012539,101.755612 L752.974405,101.635899 L752.956268,101.575108 L752.937667,101.514317 L752.919995,101.453058 L752.902323,101.391331 L752.885117,101.329137 L752.851634,101.203813 L752.835357,101.140683 L752.819546,101.076619 L752.803734,101.013022 L752.788388,100.948489 L752.773042,100.883489 L752.75816,100.818489 L752.743744,100.753022 L752.729793,100.687554 L752.715841,100.621151 L752.688869,100.487878 L752.662826,100.353201 L752.638179,100.217122 L752.614462,100.080108 L752.59214,99.941223 L752.570283,99.8014029 L752.549821,99.6606475 L752.530289,99.5184892 L752.511687,99.3749281 L752.494016,99.2304317 L752.477739,99.085 L752.461928,98.9386331 L752.447047,98.7908633 L752.433095,98.6421583 L752.420074,98.492518 L752.407983,98.3419424 L752.396822,98.1904317 L752.386126,98.0379856 L752.37636,97.8846043 L752.367059,97.7302878 L752.358688,97.5755036 L752.351248,97.4197842 L752.344272,97.2631295 L752.338227,97.1060072 L752.332646,96.9479496 L752.327996,96.7894245 L752.32474,96.6748561 L752.32381,96.6304317 L752.32102,96.4705036 L752.318695,96.3101079 L752.316835,96.1492446 L752.314974,95.8256475 L752.314974,95.6629137 L752.315439,95.5001799 L752.3173,95.1728417 L752.32102,94.8445683 L752.323345,94.6794964 L752.329391,94.3493525 L752.336831,94.0178058 L752.344737,93.6857914 L752.354038,93.3533094 L752.3745,92.6883453 L752.385661,92.3553957 L752.397287,92.0233813 L752.420074,91.3616906 L752.442396,90.7042086 L752.451232,90.4301799 L752.453092,90.3778058 L752.465648,90.0532734 L752.476809,89.7310791 L752.487505,89.4107554 L752.496806,89.0932374 L752.504712,88.7780576 L752.507967,88.6218705 L752.511222,88.4666187 L752.513548,88.3118345 L752.515873,88.1579856 L752.517733,88.0046043 L752.519128,87.8526259 L752.519593,87.7703237 L752.520988,87.7015827 L752.522849,87.5514748 L752.524709,87.4023022 L752.525639,87.2540647 L752.526104,87.1072302 L752.526104,86.9613309 L752.525639,86.8163669 L752.524244,86.6728058 L752.522383,86.5301799 L752.519593,86.3889568 L752.516338,86.2486691 L752.512618,86.1102518 L752.507967,85.9727698 L752.502387,85.8366906 L752.500992,85.8034892 L752.499596,85.7038849 L752.496806,85.5738849 L752.493086,85.446223 L752.488435,85.3213669 L752.48518,85.2428058 L752.48332,85.1988489 L752.476809,85.0782014 L752.469369,84.9603597 L752.461463,84.8448561 L752.45705,84.7909467 L752.42612,84.8902158 L752.369384,85.0711871 L752.311254,85.2530935 L752.284747,85.3344604 L752.251729,85.4368705 L752.191273,85.6220504 L752.128957,85.8086331 L752.084778,85.940036 L752.064316,85.9961511 L751.994095,86.1836691 L751.922943,86.3725899 L751.849932,86.5633813 L751.77599,86.7555755 L751.700653,86.9491727 L751.623921,87.1441727 L751.545794,87.3405755 L751.466736,87.5369784 L751.39977,87.7039209 L751.334664,87.8685252 L751.305831,87.9424101 L751.270023,88.031259 L751.206312,88.1930576 L751.143997,88.3539209 L751.082611,88.5138489 L751.023085,88.6728417 L750.964955,88.8313669 L750.90822,88.9884892 L750.852415,89.1451439 L750.79847,89.3008633 L750.74592,89.4556475 L750.6943,89.6094964 L750.644076,89.7628777 L750.595246,89.9153237 L750.547812,90.0668345 L750.501772,90.2178777 L750.456663,90.3679856 L750.412949,90.5171583 L750.405044,90.5438129 L750.369235,90.6658633 L750.326916,90.8131655 L750.285528,90.9604676 L750.245534,91.1068345 L750.20647,91.2522662 L750.168802,91.3976978 L750.132063,91.5417266 L750.09672,91.6857554 L750.062307,91.8288489 L750.028824,91.9714748 L749.996736,92.1136331 L749.965578,92.2548561 L749.93535,92.3956115 L749.906053,92.5358993 L749.87815,92.6757194 L749.851178,92.8150719 L749.825135,92.9539568 L749.800023,93.0923741 L749.775841,93.2298561 L749.752588,93.3673381 L749.730266,93.5038849 L749.708874,93.6404317 L749.688413,93.7765108 L749.668881,93.9116547 L749.650279,94.0467986 L749.632607,94.1814748 L749.615401,94.3156835 L749.599589,94.4498921 L749.584243,94.5831655 L749.569827,94.7164388 L749.555875,94.8492446 L749.542854,94.9820504 L749.530763,95.1139209 L749.519602,95.2457914 L749.508906,95.3776619 L749.498675,95.5090647 L749.489839,95.64 L749.481003,95.7704676 L749.473098,95.9009353 L749.466122,96.0314029 L749.459611,96.1614029 L749.453566,96.2909353 L749.44845,96.4204676 L749.4438,96.55 L749.439615,96.6790647 L749.436359,96.8081295 L749.434964,96.8576978 L749.432639,96.9371942 L749.429849,97.0657914 L749.427524,97.1943885 L749.425198,97.322518 L749.423803,97.4511151 L749.422873,97.5792446 L749.422408,97.7073741 L749.422408,97.835036 L749.422873,97.9631655 L749.423803,98.0908273 L749.425198,98.2184892 L749.428919,98.4738129 L749.431709,98.6014748 L749.434499,98.7286691 L749.441475,98.9839928 L749.449381,99.2393165 L749.458681,99.4946403 L749.468912,99.749964 L749.480538,100.005288 L749.49263,100.261079 L749.505186,100.517338 L749.518672,100.774065 L749.546574,101.288921 L749.575407,101.806583 L749.603775,102.327518 L749.618191,102.589388 L749.631677,102.852194 L749.644699,103.115935 L749.657255,103.381079 L749.668881,103.647158 L749.679577,103.915108 L749.689343,104.183993 L749.698178,104.454281 L749.705154,104.726439 L749.708409,104.862986 L749.709805,104.918633 L749.7112,105 L749.700504,104.919568 L749.693528,104.863921 L749.675856,104.728777 L749.639583,104.459424 L749.60238,104.191475 L749.564246,103.925396 L749.525183,103.661187 L749.485654,103.397914 L749.445195,103.136511 L749.404271,102.876043 L749.362883,102.616511 L749.321494,102.358381 L749.237786,101.843993 L749.154078,101.331942 L749.071301,100.82223 L749.030842,100.567374 L748.990848,100.312986 L748.95132,100.058597 L748.912721,99.803741 L748.875053,99.5488849 L748.838314,99.2935612 L748.802971,99.0377698 L748.768558,98.7815108 L748.751816,98.6529137 L748.73554,98.5243165 L748.719728,98.3957194 L748.704382,98.2666547 L748.689036,98.1371223 L748.674154,98.0075899 L748.660203,97.8780576 L748.646252,97.7480576 L748.632765,97.6175899 L748.619744,97.4871223 L748.607188,97.3561871 L748.595097,97.2252518 L748.572775,96.9615108 L748.566264,96.8801439 L748.562544,96.8296403 L748.544872,96.5640288 L748.536967,96.4302878 L748.529526,96.2965468 L748.52255,96.1623381 L748.516505,96.0276619 L748.510924,95.892518 L748.505809,95.7573741 L748.501623,95.621295 L748.498368,95.4847482 L748.495113,95.3477338 L748.493252,95.2102518 L748.491857,95.0723022 L748.491392,94.9338849 L748.491392,94.7945324 L748.492322,94.6551799 L748.493718,94.5148921 L748.496508,94.3741367 L748.499763,94.2329137 L748.503948,94.091223 L748.509064,93.9485971 L748.514644,93.8055036 L748.52162,93.6614748 L748.529061,93.517446 L748.537897,93.372482 L748.547197,93.2265827 L748.557428,93.0802158 L748.569054,92.9329137 L748.581146,92.7851439 L748.594632,92.6369065 L748.609048,92.4877338 L748.624395,92.3376259 L748.640671,92.1870504 L748.657878,92.0355396 L748.676479,91.8835612 L748.696011,91.7306475 L748.716473,91.5767986 L748.73833,91.422482 L748.761117,91.2672302 L748.784834,91.1110432 L748.809947,90.9539209 L748.836454,90.7963309 L748.863892,90.6373381 L748.892259,90.4778777 L748.922022,90.317482 L748.947599,90.1856115 L748.95318,90.1566187 L748.986663,89.9948201 L749.021076,89.8320863 L749.056884,89.6684173 L749.094088,89.5038129 L749.132221,89.3382734 L749.172215,89.1717986 L749.213139,89.0048561 L749.255458,88.8365108 L749.298707,88.6672302 L749.343816,88.4970144 L749.39032,88.3258633 L749.437754,88.153777 L749.487049,87.9807554 L749.537739,87.8063309 L749.589358,87.6309712 L749.642838,87.4551439 L749.673066,87.3583453 L749.698643,87.2779137 L749.756774,87.1002158 L749.815834,86.9234532 L749.882335,86.7247122 L749.946976,86.5297122 L750.009757,86.3361151 L750.071608,86.1448561 L750.132528,85.9545324 L750.191589,85.7665468 L750.249719,85.5794964 L750.306454,85.3947842 L750.323196,85.3396043 L750.36598,85.2128777 L750.425505,85.0328417 L750.484101,84.8546763 L750.515724,84.7560072 L750.541301,84.6779137 L750.597106,84.5030216 L750.651981,84.3290647 L750.704996,84.1569784 L750.732434,84.0681295 L750.758476,83.9872302 L750.811956,83.8188849 L750.863576,83.6519424 L750.91473,83.4868705 L750.964025,83.3227338 L751.012389,83.1604676 L751.059824,82.9996043 L751.105398,82.8401439 L751.150507,82.6820863 L751.194221,82.5254317 L751.215148,82.448741 L751.23747,82.3706475 L751.281184,82.2172662 L751.323503,82.0652878 L751.364427,81.9147122 L751.404421,81.7655396 L751.443484,81.6177698 L751.481153,81.4714029 L751.517891,81.3259712 L751.549194,81.198407 L751.539748,81.1777338 L751.473712,81.0369784 L751.406281,80.8966906 L751.337454,80.755 L751.267233,80.6119065 L751.122605,80.3191727 L751.048663,80.1695324 L750.973326,80.017554 L750.897524,79.8618345 L750.870551,79.8061871 L750.821722,79.7028417 L750.746385,79.5410432 L750.670118,79.3736331 L750.631984,79.2889928 L750.593851,79.2029496 L750.555717,79.1159712 L750.518049,79.0280576 L750.479915,78.938741 L750.442247,78.8480216 L750.404578,78.7563669 L750.36691,78.6633094 L750.329707,78.5693165 L750.292503,78.4734532 L750.255765,78.3766547 L750.219026,78.2779856 L750.182753,78.1783813 L750.14648,78.0773741 L750.110671,77.9744964 L750.074863,77.8702158 L750.039985,77.7640647 L750.005107,77.6569784 L749.970694,77.547554 L749.936745,77.4371942 L749.902797,77.3244964 L749.869779,77.2103957 L749.836761,77.0944245 L749.804673,76.9765827 L749.77305,76.8568705 L749.741427,76.7357554 L749.710735,76.6123022 L749.680507,76.4869784 L749.651209,76.3593165 L749.621911,76.2302518 L749.593544,76.0988489 L749.565641,75.9651079 L749.538204,75.8294964 L749.511696,75.6915468 L749.485654,75.551259 L749.460077,75.4091007 L749.435429,75.2646043 L749.411712,75.1173022 L749.38846,74.9681295 L749.365673,74.8161511 L749.343816,74.6618345 L749.322889,74.5051799 L749.302427,74.3457194 L749.282895,74.1839209 L749.264293,74.0193165 L749.262433,74.0038849 L749.244762,73.8523741 L749.225695,73.6826259 L749.207558,73.5100719 L749.190352,73.3347122 L749.17361,73.1570144 L749.158264,72.9755755 L749.143382,72.7913309 L749.134547,72.6716187 L749.126641,72.5523741 L749.119665,72.4331295 L749.11362,72.3148201 L749.108504,72.1965108 L749.104784,72.0786691 L749.101528,71.961295 L749.099668,71.8443885 L749.098273,71.7279496 L749.097808,71.6115108 L749.098738,71.4960072 L749.100133,71.3805036 L749.102924,71.2659353 L749.104784,71.1953237 L749.106179,71.1513669 L749.109899,71.0372662 L749.115015,70.9236331 L749.120595,70.8104676 L749.127106,70.6977698 L749.134547,70.5850719 L749.142917,70.4733094 L749.152218,70.3615468 L749.161984,70.2502518 L749.173145,70.1394245 L749.184771,70.0290647 L749.197327,69.9191727 L749.210349,69.8097482 L749.224765,69.7003237 L749.239646,69.5913669 L749.254993,69.4833453 L749.271734,69.3753237 L749.27592,69.3486691 L749.288011,69.2673022 L749.305217,69.1602158 L749.322889,69.0531295 L749.341491,68.9465108 L749.361022,68.8403597 L749.381019,68.7342086 L749.401946,68.6285252 L749.423338,68.523777 L749.440355,68.4439236 L749.393575,68.3573022 L749.317773,68.2151439 L749.242436,68.0715827 L749.1671,67.9266187 L749.093158,67.7807194 L749.075486,67.7456475 L749.0141,67.636223 L748.934578,67.491259 L748.895049,67.4173741 L748.855521,67.3439568 L748.777394,67.1952518 L748.73833,67.119964 L748.699732,67.0446763 L748.623464,66.8922302 L748.585331,66.8150719 L748.548128,66.7379137 L748.510459,66.6598201 L748.473721,66.581259 L748.436982,66.5022302 L748.400244,66.4227338 L748.363971,66.3427698 L748.328162,66.2623381 L748.292819,66.1809712 L748.257476,66.0991367 L748.222598,66.0168345 L748.153771,65.8503597 L748.120288,65.7661871 L748.086805,65.6810791 L748.053787,65.5955036 L748.021234,65.5094604 L747.988681,65.4229496 L747.957058,65.3355036 L747.936131,65.277518 L747.925435,65.2471223 L747.893812,65.158741 L747.832427,64.9791727 L747.802199,64.8884532 L747.772436,64.7967986 L747.743603,64.7046763 L747.714771,64.6116187 L747.686403,64.5176259 L747.658966,64.4231655 L747.631528,64.3277698 L747.605021,64.2319065 L747.578513,64.1346403 L747.552936,64.0369065 L747.527824,63.938705 L747.503641,63.8391007 L747.479459,63.7390288 L747.456207,63.6380216 L747.43342,63.5360791 L747.411098,63.4336691 L747.389241,63.3298561 L747.368314,63.2255755 L747.347852,63.1198921 L747.32832,63.013741 L747.309253,62.9066547 L747.290652,62.7986331 L747.272515,62.6896763 L747.255309,62.5797842 L747.239032,62.4689568 L747.222756,62.3571942 L747.207874,62.2444964 L747.192993,62.1308633 L747.179507,62.016295 L747.16602,61.9003237 L747.153929,61.7838849 L747.141838,61.6665108 L747.131142,61.5482014 L747.119981,61.4242806 L747.10975,61.3008273 L747.099519,61.1783094 L747.095334,61.125 L747.090218,61.0567266 L747.081848,60.9351439 L747.066036,60.6938489 L747.05906,60.5741367 L747.052085,60.4548921 L747.045574,60.3361151 L747.039529,60.2182734 L747.034413,60.1004317 L747.029298,59.9835252 L747.024182,59.8670863 L747.019997,59.7511151 L747.016276,59.6356115 L747.013021,59.5205755 L747.009766,59.4060072 L747.006976,59.2923741 L747.003255,59.0660432 L747.00186,58.9538129 L747.00093,58.8420504 L747,58.7307554 L747,58.6203957 L747,58.510036 L747.00093,58.4001439 L747.00186,58.2911871 L747.003255,58.1826978 L747.005115,58.0742086 L747.007441,57.9666547 L747.010231,57.8595683 L747.013021,57.7529496 L747.016276,57.6467986 L747.019997,57.5411151 L747.024182,57.4363669 L747.028833,57.3316187 L747.033948,57.2273381 L747.039064,57.1239928 L747.045109,57.0206475 L747.051155,56.9182374 L747.057665,56.816295 L747.064641,56.7143525 L747.066501,56.6886331 L747.072547,56.6133453 L747.081382,56.5132734 L747.090683,56.4132014 L747.100449,56.3135971 L747.110215,56.2144604 L747.120446,56.116259 L747.131142,56.0180576 L747.153464,55.8235252 L747.165555,55.7271942 L747.177646,55.6313309 L747.190203,55.5354676 L747.202759,55.4405396 L747.229731,55.2516187 L747.243682,55.1580935 L747.257634,55.065036 L747.272515,54.972446 L747.287396,54.8803237 L747.302743,54.7886691 L747.310184,54.7456475 L747.319019,54.697482 L747.354363,54.5169784 L747.372499,54.4276619 L747.391101,54.3383453 L747.409703,54.249964 L747.428769,54.1620504 L747.448301,54.0746043 L747.468298,53.9871583 L747.48411,53.9188849 L747.488295,53.9006475 L747.509222,53.8146043 L747.530149,53.7290288 L747.552006,53.6439209 L747.573863,53.5592806 L747.59572,53.4751079 L747.618042,53.3914029 L747.640829,53.3086331 L747.664081,53.2258633 L747.666871,53.2155755 L747.689193,53.1440288 L747.714771,53.0626619 L747.740813,52.9822302 L747.767321,52.9017986 L747.820336,52.7428058 L747.875211,52.5856835 L747.931016,52.4304317 L747.959383,52.353741 L747.987751,52.277518 L748.016584,52.201295 L748.045881,52.1260072 L748.075179,52.0511871 L748.104942,51.9763669 L748.134704,51.902482 L748.164932,51.8290647 L748.195625,51.7556475 L748.226318,51.6831655 L748.257476,51.6106835 L748.288634,51.5391367 L748.320257,51.4680576 L748.352345,51.3969784 L748.384432,51.3268345 L748.412335,51.2669784 L748.416985,51.2571583 L748.450469,51.1879496 L748.483952,51.1192086 L748.518365,51.0514029 L748.552313,50.9835971 L748.586726,50.9167266 L748.621604,50.8498561 L748.656483,50.7834532 L748.727169,50.652518 L748.762977,50.587518 L748.799251,50.5229856 L748.835059,50.4593885 L748.871797,50.3957914 L748.908071,50.3326619 L748.945274,50.27 L748.982478,50.2078058 L749.019681,50.1460791 L749.057349,50.0848201 L749.095018,50.0240288 L749.133151,49.963705 L749.171285,49.9038489 L749.209418,49.8444604 L749.248482,49.7855396 L749.287081,49.7270863 L749.326144,49.6686331 L749.405201,49.5535971 L749.44473,49.4970144 L749.484724,49.4404317 L749.524717,49.3847842 L749.565176,49.3291367 L749.605635,49.2739568 L749.687482,49.1654676 L749.728406,49.1116906 L749.769795,49.0583813 L749.794442,49.0265827 L749.811649,49.0055396 L749.853503,48.9531655 L749.895822,48.9017266 L749.938606,48.8502878 L749.98139,48.7993165 L750.066957,48.6992446 L750.110206,48.6496763 L750.15392,48.6005755 L750.197169,48.5519424 L750.240883,48.5033094 L750.285062,48.4556115 L750.373421,48.3611511 L750.4176,48.3148561 L750.462244,48.2685612 L750.506888,48.2227338 L750.551532,48.1773741 L750.596641,48.132482 L750.686859,48.0436331 L750.778008,47.9566547 L750.823582,47.9141007 L750.869621,47.8715468 L750.915661,47.8294604 L751.007739,47.746223 L751.100748,47.6648561 L751.147252,47.6251079 L751.194221,47.5853597 L751.28816,47.5067986 L751.336059,47.4679856 L751.429998,47.3926978 L751.524867,47.3183453 L751.6202,47.2453957 L751.715999,47.1743165 L751.812728,47.1046403 L751.908992,47.0363669 L752.006186,46.9694964 L752.103845,46.9040288 L752.201504,46.8404317 L752.299628,46.7777698 L752.397752,46.7169784 L752.496341,46.6571223 L752.595395,46.5991367 L752.694914,46.542554 L752.793968,46.4869065 L752.893953,46.4331295 L752.993937,46.3802878 L753.093921,46.3288489 L753.19437,46.2788129 L753.29482,46.2301799 L753.395734,46.1829496 L753.496183,46.1366547 L753.597562,46.0917626 L753.698477,46.0482734 L753.799856,46.0057194 L753.90077,45.9645683 L754.00215,45.9248201 L754.103994,45.8860072 L754.205373,45.8485971 L754.306753,45.8121223 L754.408597,45.7765827 L754.509976,45.742446 L754.611821,45.7097122 L754.688088,45.6853957 L754.713665,45.6779137 L754.81551,45.647518 L754.917354,45.6185252 L755.018733,45.5909353 L755.120578,45.5638129 L755.222422,45.5380935 L755.323801,45.5133094 L755.425181,45.4894604 L755.52656,45.4665468 L755.627474,45.445036 L755.728854,45.4239928 L755.829768,45.4038849 L755.930217,45.3851799 L756.031132,45.3669424 L756.131581,45.3496403 L756.231565,45.333741 L756.331549,45.3183094 L756.431533,45.3038129 L756.531053,45.2902518 L756.630572,45.2771583 L756.729626,45.265 L756.926804,45.2434892 L757.025393,45.2341367 L757.0594,45.2310427 L757.026323,45.1340647 L756.98726,45.0213669 L756.947266,44.9100719 L756.907272,44.7992446 L756.866348,44.6893525 L756.825425,44.5803957 L756.783571,44.4723741 L756.741717,44.3648201 L756.699398,44.2586691 L756.656614,44.1534532 L756.61383,44.048705 L756.570581,43.9453597 L756.526867,43.8429496 L756.483153,43.7414748 L756.438974,43.6409353 L756.394795,43.5417986 L756.350616,43.4431295 L756.305972,43.3458633 L756.261328,43.25 L756.216684,43.1546043 L756.17204,43.0606115 L756.127395,42.9680216 L756.082751,42.8758993 L756.037642,42.7856475 L755.992998,42.6958633 L755.948354,42.6079496 L755.90371,42.5209712 L755.859531,42.4349281 L755.815352,42.3502878 L755.771173,42.2670504 L755.726994,42.1847482 L755.68328,42.1038489 L755.640031,42.0243525 L755.596782,41.946259 L755.553998,41.8691007 L755.511679,41.7938129 L755.46936,41.7194604 L755.386117,41.574964 L755.304735,41.4360791 L755.225212,41.3028058 L755.148015,41.1751439 L755.073143,41.0540288 L755.000597,40.9385252 L754.93084,40.8291007 L754.864339,40.7257554 L754.801093,40.6289568 L754.741103,40.538705 L754.684368,40.455 L754.631818,40.3778417 L754.583453,40.3076978 L754.538809,40.2441007 L754.49928,40.1879856 L754.463937,40.1388849 L754.408132,40.0621942 L754.404877,40.0584532 L754.373719,40.0158993 L754.361628,40 L754.375579,40.0140288 L754.411852,40.0523741 L754.415573,40.0561151 L754.480214,40.1253237 L754.521138,40.1702158 L754.567177,40.2211871 L754.619262,40.2791727 L754.675997,40.3432374 L754.737382,40.4138489 L754.803884,40.4905396 L754.87457,40.5733094 L754.949442,40.6621583 L755.028034,40.7570863 L755.110812,40.8580935 L755.196845,40.9651799 L755.286598,41.0774101 L755.379142,41.1957194 L755.47494,41.3196403 L755.573064,41.4491727 L755.673979,41.5843165 L755.725133,41.6535252 L755.777218,41.7246043 L755.829303,41.7966187 L755.882318,41.870036 L755.935798,41.9448561 L755.989278,42.0210791 L756.043223,42.0982374 L756.098098,42.1772662 L756.152973,42.2572302 L756.207848,42.3381295 L756.263653,42.4208993 L756.319458,42.5046043 L756.375263,42.5892446 L756.431533,42.6757554 L756.487804,42.7632014 L756.544539,42.8515827 L756.601274,42.9413669 L756.658009,43.032554 L756.71521,43.1246763 L756.771945,43.2177338 L756.829145,43.3126619 L756.88588,43.4080576 L756.943081,43.5048561 L757.000281,43.6030576 L757.057016,43.7021942 L757.113751,43.8022662 L757.170486,43.903741 L757.226757,44.0061511 L757.283027,44.1094964 L757.339297,44.2142446 L757.395102,44.3199281 L757.450907,44.4265468 L757.506247,44.5345683 L757.561122,44.6430576 L757.615532,44.7534173 L757.669942,44.8642446 L757.723887,44.9760072 L757.777367,45.0891727 L757.821139,45.1833802 L757.895488,45.1808273 L757.990357,45.1784892 L758.085226,45.1766187 L758.179164,45.1752158 L758.272638,45.1747482 L758.366112,45.1747482 L758.45912,45.1752158 L758.551199,45.1761511 L758.643277,45.1780216 L758.73489,45.1803597 L758.825574,45.1831655 L758.916257,45.1864388 L759.006476,45.1901799 L759.095764,45.1943885 L759.184587,45.1990647 L759.272945,45.2046763 L759.360838,45.2102878 L759.448266,45.2163669 L759.535229,45.2229137 L759.621262,45.2299281 L759.70683,45.2374101 L759.791933,45.2453597 L759.876106,45.2533094 L759.959813,45.2621942 L760.043056,45.2710791 L760.125369,45.2804317 L760.207216,45.2897842 L760.288599,45.3000719 L760.369051,45.3103597 L760.448573,45.3206475 L760.527631,45.3314029 L760.606223,45.3426259 L760.683885,45.3538489 L760.761082,45.3655396 L760.912221,45.3898561 L761.061035,45.4146403 L761.206128,45.4398921 L761.348431,45.4660791 L761.487479,45.4927338 L761.622806,45.5203237 L761.754879,45.5479137 L761.88323,45.5755036 L762.007862,45.6035612 L762.128773,45.6316187 L762.245964,45.6596763 L762.358969,45.6877338 L762.467789,45.7153237 L762.572889,45.7429137 L762.673803,45.770036 L762.770067,45.796223 L762.862146,45.8224101 L762.949574,45.8476619 L763.032351,45.8719784 L763.110478,45.8953597 L763.183955,45.9182734 L763.252781,45.9397842 L763.316027,45.9598921 L763.374623,45.9790647 L763.476467,46.0127338 L763.556919,46.0407914 L763.590403,46.0529496 L763.61505,46.0613669 L763.662484,46.0791367 L763.61319,46.067446 L763.588077,46.0613669 L763.553199,46.0534173 L763.470422,46.0351799 L763.365787,46.0127338 L763.305796,46.0005755 L763.240225,45.9879496 L763.170004,45.9743885 L763.095132,45.9603597 L763.015145,45.9458633 L762.930507,45.9308993 L762.841219,45.9159353 L762.74728,45.9009712 L762.649621,45.8855396 L762.547312,45.8701079 L762.440817,45.8551439 L762.330137,45.8401799 L762.215736,45.8252158 L762.097615,45.8107194 L761.975309,45.7966906 L761.849747,45.7831295 L761.72093,45.7705036 L761.588393,45.7578777 L761.452601,45.7466547 L761.313553,45.7358993 L761.171715,45.7260791 L761.027087,45.7176619 L760.879203,45.7097122 L760.728529,45.7036331 L760.652262,45.7008273 L760.57553,45.6984892 L760.497868,45.6961511 L760.419741,45.6942806 L760.341148,45.6928777 L760.262091,45.6919424 L760.182104,45.6914748 L760.101651,45.6910072 L760.020734,45.6914748 L759.939351,45.6919424 L759.857039,45.6928777 L759.774726,45.6942806 L759.691949,45.6961511 L759.524533,45.7008273 L759.439895,45.7041007 L759.355258,45.7078417 L759.270155,45.7120504 L759.184122,45.7167266 L759.098554,45.7218705 L759.012056,45.727482 L758.925093,45.7335612 L758.83813,45.7405755 L758.750702,45.7480576 L758.662809,45.7555396 L758.574916,45.7639568 L758.486558,45.7733094 L758.397734,45.7826619 L758.308911,45.7929496 L758.220088,45.803705 L758.1308,45.8149281 L758.099905,45.8191132 L758.136845,45.9079856 L758.185675,46.0291007 L758.234039,46.1511511 L758.281474,46.2736691 L758.328443,46.3975899 L758.374482,46.5219784 L758.420057,46.6477698 L758.464236,46.7740288 L758.50795,46.9016906 L758.550734,47.0298201 L758.592587,47.1588849 L758.633511,47.2893525 L758.667924,47.4015827 L758.67304,47.4202878 L758.711173,47.5521583 L758.747912,47.684964 L758.78372,47.818705 L758.818598,47.9533813 L758.852081,48.0885252 L758.884634,48.2250719 L758.915792,48.3616187 L758.945555,48.4995683 L758.974388,48.6379856 L759.00229,48.7773381 L759.028333,48.9176259 L759.05298,49.057446 L759.065071,49.1289928 L759.076697,49.2000719 L759.099019,49.3422302 L759.119481,49.4853237 L759.129247,49.5573381 L759.147849,49.7013669 L759.156684,49.7738489 L759.165055,49.8463309 L759.172961,49.9188129 L759.180402,49.9917626 L759.187377,50.0647122 L759.194353,50.1381295 L759.206444,50.284964 L759.212024,50.3588489 L759.21714,50.4327338 L759.22179,50.5066187 L759.226441,50.5809712 L759.230161,50.6553237 L759.233416,50.7301439 L759.236672,50.8044964 L759.239462,50.8793165 L759.243182,51.0298921 L759.244577,51.1051799 L759.245042,51.1804676 L759.245508,51.2571583 L759.245042,51.3361871 L759.243647,51.4156835 L759.241322,51.4956475 L759.237602,51.5751439 L759.233416,51.6551079 L759.228301,51.7346043 L759.222255,51.8141007 L759.21528,51.8935971 L759.207839,51.9730935 L759.199003,52.0525899 L759.189702,52.1320863 L759.179006,52.2111151 L759.167845,52.2906115 L759.155754,52.3696403 L759.143198,52.4486691 L759.129247,52.5276978 L759.11483,52.6067266 L759.099949,52.6857554 L759.083673,52.7647842 L759.066931,52.8433453 L759.049724,52.9223741 L759.031588,53.0009353 L759.024147,53.0313309 L759.012056,53.0794964 L758.991594,53.1575899 L758.970667,53.2356835 L758.94881,53.3142446 L758.926023,53.3918705 L758.902771,53.469964 L758.879054,53.5480576 L758.854407,53.6256835 L758.829294,53.703777 L758.803717,53.7814029 L758.777209,53.8590288 L758.750237,53.9366547 L758.722334,54.0142806 L758.693967,54.0914388 L758.665134,54.1690647 L758.635836,54.246223 L758.605609,54.3233813 L758.574916,54.4005396 L758.543758,54.4781655 L758.512135,54.5548561 L758.480047,54.6320144 L758.414011,54.7863309 L758.380063,54.8630216 L758.34565,54.9397122 L758.310771,55.0168705 L758.275428,55.0935612 L758.23962,55.1702518 L758.203347,55.2469424 L758.166608,55.3241007 L758.145216,55.3685252 L758.12894,55.4003237 L758.090341,55.4765468 L758.051278,55.5527698 L758.011749,55.6285252 L757.971755,55.7047482 L757.931297,55.7814388 L757.849914,55.932482 L757.766206,56.0844604 L757.681569,56.2364388 L757.595071,56.3884173 L757.507177,56.5399281 L757.418354,56.6919065 L757.328136,56.8438849 L757.236523,56.9953957 L757.200714,57.0543165 L757.141654,57.1459712 L757.043995,57.2951439 L756.944941,57.4447842 L756.845422,57.5944245 L756.83426,57.611259 L756.744507,57.7435971 L756.642198,57.8927698 L756.539423,58.0419424 L756.435719,58.1915827 L756.396655,58.2472302 L756.329689,58.3398201 L756.113909,58.636295 L755.896269,58.9332374 L755.676769,59.2311151 L755.341473,59.6861151 L755.232653,59.8296763 L755.006642,60.1284892 L754.780631,60.4301079 L754.668091,60.5806835 L754.555086,60.7321942 L754.44301,60.8841727 L754.33047,61.0366187 L754.107249,61.3433813 L753.996104,61.4976978 L753.885889,61.652482 L753.775674,61.8077338 L753.665924,61.9634532 L753.557104,62.1201079 L753.449214,62.2772302 L753.341789,62.4352878 L753.234829,62.5938129 L753.129264,62.7532734 L753.024165,62.9132014 L752.995332,62.9580935 L752.91953,63.0735971 L752.81536,63.2344604 L752.712121,63.3967266 L752.660966,63.4771583 L752.559587,63.6398921 L752.509362,63.7217266 L752.459603,63.8035612 L752.409843,63.8858633 L752.360549,63.9681655 L752.311254,64.0509353 L752.26289,64.133705 L752.166161,64.3001799 L752.118726,64.3834173 L752.071292,64.4671223 L751.977353,64.6354676 L751.931314,64.7196403 L751.885275,64.8047482 L751.839701,64.8893885 L751.794591,64.9744964 L751.705303,65.1456475 L751.617875,65.3177338 L751.574626,65.4042446 L751.531842,65.4907554 L751.489523,65.5777338 L751.44767,65.6647122 L751.406281,65.7521583 L751.365357,65.8400719 L751.324898,65.9279856 L751.284905,66.0163669 L751.245376,66.1047482 L751.206312,66.1935971 L751.190036,66.2310072 L751.167714,66.2829137 L751.13051,66.3722302 L751.093307,66.462482 L751.056569,66.5522662 L751.020295,66.6429856 L750.984952,66.733705 L750.915195,66.9160791 L750.881247,67.0077338 L750.847764,67.0993885 L750.815211,67.1919784 L750.782658,67.2841007 L750.751035,67.3771583 L750.719878,67.4702158 L750.689185,67.563741 L750.658957,67.6577338 L750.629659,67.7517266 L750.600827,67.8461871 L750.572459,67.9406475 L750.544556,68.0355755 L750.517584,68.1309712 L750.491076,68.2268345 L750.480125,68.2680786 L750.487821,68.2810791 L750.647796,68.5476259 L750.728248,68.6804317 L750.889618,68.9469784 L751.050988,69.2130576 L751.212358,69.4805396 L751.293275,69.6152158 L751.373728,69.7503597 L751.426278,69.8401439 L751.453715,69.8859712 L751.533702,70.0220504 L751.61369,70.1590647 L751.692747,70.2970144 L751.771339,70.4358993 L751.849467,70.5761871 L751.926664,70.7174101 L752.003396,70.8595683 L752.078733,71.0026619 L752.116401,71.0756115 L752.190808,71.2215108 L752.264285,71.3692806 L752.300558,71.4436331 L752.336366,71.5179856 L752.372175,71.5932734 L752.407518,71.6690288 L752.477274,71.8214748 L752.511687,71.8986331 L752.545636,71.9757914 L752.579584,72.0538849 L752.613067,72.132446 L752.646085,72.2110072 L752.678638,72.2905036 L752.710726,72.3704676 L752.742814,72.4513669 L752.759555,72.4948561 L752.774437,72.5322662 L752.80606,72.6131655 L752.837683,72.695 L752.86884,72.7777698 L752.899068,72.8605396 L752.929296,72.9442446 L752.959059,73.0284173 L752.988356,73.1135252 L753.016724,73.1991007 L753.045092,73.2851439 L753.072994,73.3716547 L753.099967,73.4591007 L753.126939,73.547482 L753.152982,73.6358633 L753.178559,73.7256475 L753.203671,73.8154317 L753.228318,73.9066187 L753.252036,73.9978058 L753.275753,74.0903957 L753.29854,74.1829856 L753.320862,74.2769784 L753.342254,74.3714388 L753.363646,74.4663669 L753.383643,74.5622302 L753.40364,74.6590288 L753.422706,74.756295 L753.441308,74.8544964 L753.459445,74.9536331 L753.476651,75.0532374 L753.492928,75.1542446 L753.508739,75.2552518 L753.524086,75.3576619 L753.538502,75.4610072 L753.552453,75.5648201 L753.565475,75.6695683 L753.578031,75.7752518 L753.589657,75.8814029 L753.600353,75.9889568 L753.610584,76.0969784 L753.62035,76.2064029 L753.62872,76.316295 L753.636626,76.4271223 L753.644067,76.5388849 L753.650112,76.6515827 L753.655693,76.7652158 L753.660808,76.8797842 L753.664529,76.9952878 L753.667784,77.1121942 L753.670109,77.2295683 L753.671969,77.3478777 L753.672434,77.4675899 L753.672434,77.5877698 L753.671504,77.7093525 L753.669644,77.8318705 L753.666854,77.9553237 L753.663599,78.0797122 L753.658948,78.2055036 L753.653833,78.3317626 L753.647322,78.4594245 L753.640346,78.5884892 L753.632441,78.7180216 L753.624535,78.8363309 L753.623605,78.8489568 L753.612909,78.9808273 L753.601283,79.1141007 L753.588727,79.2483094 L753.575705,79.3834532 L753.561289,79.5195324 L753.545943,79.6570144 L753.529666,79.7958993 L753.51246,79.9357194 L753.493858,80.0764748 L753.474791,80.2186331 L753.454794,80.3621942 L753.433402,80.5066906 L753.41108,80.6521223 L753.387828,80.7994245 L753.363646,80.9476619 L753.352061,81.0164777 L753.35853,81.029964 L753.396199,81.1103957 L753.433867,81.1917626 L753.470606,81.2740647 L753.507344,81.3568345 L753.543618,81.4410072 L753.579426,81.5261151 L753.614769,81.6121583 L753.649647,81.6996043 L753.683595,81.787518 L753.717544,81.8773022 L753.750562,81.967554 L753.78358,82.0596763 L753.815668,82.1527338 L753.846825,82.2467266 L753.877518,82.3425899 L753.907746,82.4393885 L753.937044,82.5375899 L753.965876,82.6371942 L753.973317,82.6647842 L753.992849,82.7386691 L754.018891,82.8415468 L754.044004,82.9458273 L754.068651,83.0515108 L754.092368,83.1585971 L754.115155,83.2670863 L754.137012,83.377446 L754.157939,83.4896763 L754.178401,83.6028417 L754.197933,83.7183453 L754.216069,83.8352518 L754.233741,83.9540288 L754.250483,84.0742086 L754.266294,84.196259 L754.281175,84.3206475 L754.291406,84.4151079 L754.294662,84.4464388 L754.305823,84.5745683 L754.311936,84.6522526 L754.469983,84.5067626 L754.82109,84.1826978 L755.25823,83.7786691 L755.775358,83.2998201 L756.365497,82.7517626 L757.022603,82.1396403 L757.37464,81.8113669 L757.740629,81.4690647 L758.120104,81.1136691 L758.5126,80.7456475 L758.916722,80.3659353 L759.332471,79.975 L759.757985,79.5733094 L760.19373,79.1622662 L760.366261,78.9990647 L760.638311,78.7423381 L761.091262,78.3144604 L761.55119,77.8791007 L762.017628,77.4367266 L762.489646,76.9873381 L762.966315,76.5328058 L763.447169,76.0735971 L763.931279,75.6097122 L764.417714,75.1420863 L764.905544,74.6716547 L765.393839,74.1993525 L765.882599,73.7251799 L766.370429,73.2505396 L766.475528,73.1476619 L766.858258,72.7773022 L767.344693,72.3054676 L767.586516,72.0702518 L767.827408,71.835036 L768.067835,71.6007554 L768.306402,71.3664748 L768.544039,71.1331295 L768.78028,70.9007194 L768.94165,70.7417266 L769.016057,70.6692446 L769.251369,70.4405755 L769.48482,70.2123741 L769.716412,69.9855755 L769.938237,69.7681295 L769.946608,69.7597122 L770.175874,69.5361871 L770.402815,69.3140647 L770.627431,69.0928777 L770.740436,68.9820504 L770.852511,68.8758993 L771.077127,68.6626619 L771.298952,68.4508273 L771.518453,68.2408633 L771.735163,68.0327698 L771.949547,67.8260791 L772.160677,67.6217266 L772.368551,67.4192446 L772.458304,67.3317986 L772.350414,67.2228417 L772.225318,67.0951799 L772.102081,66.9679856 L771.98024,66.8403237 L771.859794,66.7131295 L771.740743,66.5854676 L771.623552,66.4582734 L771.507757,66.3306115 L771.393821,66.2034173 L771.281281,66.0757554 L771.170601,65.9485612 L771.061315,65.8213669 L770.953891,65.693705 L770.847861,65.5665108 L770.743691,65.4393165 L770.641382,65.3121223 L770.540933,65.1849281 L770.441878,65.0577338 L770.34515,64.9310072 L770.250281,64.8042806 L770.202846,64.7402158 L770.156342,64.6770863 L770.065194,64.5498921 L770.020085,64.4867626 L769.97544,64.4231655 L769.931261,64.3595683 L769.888012,64.2964388 L769.844763,64.2328417 L769.80198,64.1697122 L769.760126,64.1061151 L769.718272,64.0429856 L769.677348,63.9798561 L769.636889,63.916259 L769.596431,63.8531295 L769.556902,63.79 L769.517838,63.7264029 L769.47924,63.6632734 L769.441106,63.6001439 L769.403438,63.5370144 L769.329961,63.4107554 L769.294153,63.3471583 L769.258344,63.2840288 L769.223466,63.2208993 L769.189053,63.1577698 L769.15557,63.0951079 L769.122087,63.0319784 L769.089069,62.9688489 L769.056981,62.9057194 L769.025358,62.8425899 L768.9942,62.7799281 L768.963507,62.7167986 L768.933745,62.6536691 L768.904447,62.5910072 L768.875614,62.5278777 L768.847247,62.4647482 L768.819344,62.4020863 L768.792372,62.3389568 L768.765864,62.276295 L768.739822,62.2131655 L768.689597,62.0878417 L768.665415,62.0251799 L768.642163,61.9620504 L768.618911,61.8993885 L768.596589,61.8367266 L768.553805,61.7114029 L768.533343,61.648741 L768.494279,61.5234173 L768.475677,61.4607554 L768.458006,61.3980935 L768.440799,61.3354317 L768.424058,61.2727698 L768.407781,61.2105755 L768.392435,61.1479137 L768.378018,61.0852518 L768.364067,61.0230576 L768.350581,60.9608633 L768.338025,60.8982014 L768.325934,60.8360072 L768.314773,60.7738129 L768.304077,60.7111511 L768.294311,60.6489568 L768.28501,60.5867626 L768.276639,60.5245683 L768.268733,60.4628417 L768.261758,60.4006475 L768.255247,60.3384532 L768.249667,60.2767266 L768.245016,60.2145324 L768.240831,60.153741 L768.23711,60.0920144 L768.23153,59.9713669 L768.229205,59.9115108 L768.226414,59.7917986 L768.225484,59.7324101 L768.225019,59.6734892 L768.225019,59.5556475 L768.226879,59.438741 L768.2306,59.3227698 L768.232925,59.2647842 L768.235715,59.2072662 L768.238971,59.1502158 L768.242691,59.0926978 L768.251062,58.9795324 L768.256177,58.9229496 L768.261293,58.8668345 L768.266873,58.8107194 L768.272919,58.7546043 L768.279429,58.6989568 L768.293381,58.5885971 L768.301286,58.5334173 L768.309192,58.478705 L768.317563,58.4244604 L768.326399,58.3697482 L768.335234,58.3159712 L768.335699,58.3131655 L768.345,58.2617266 L768.354766,58.2084173 L768.365462,58.1546403 L768.376158,58.1013309 L768.387319,58.0484892 L768.398945,57.9956475 L768.410571,57.9432734 L768.422663,57.8908993 L768.435684,57.8385252 L768.44824,57.7866187 L768.461726,57.7347122 L768.489629,57.6318345 L768.504045,57.5808633 L768.518926,57.5298921 L768.533808,57.4793885 L768.549154,57.4288849 L768.565431,57.3788489 L768.581242,57.3288129 L768.614725,57.2296763 L768.631932,57.1801079 L768.649603,57.1310072 L768.66774,57.0819065 L768.685877,57.0332734 L768.72308,56.9369424 L768.742612,56.888777 L768.762144,56.8410791 L768.782141,56.7933813 L768.802137,56.7461511 L768.822599,56.6989209 L768.843526,56.6516906 L768.864918,56.6053957 L768.88631,56.5586331 L768.908167,56.5123381 L768.930489,56.4665108 L768.953276,56.4197482 L768.998386,56.3294964 L769.04582,56.2392446 L769.093719,56.1499281 L769.143479,56.0615468 L769.194169,55.9741007 L769.245788,55.8871223 L769.298803,55.8015468 L769.352748,55.7164388 L769.408088,55.6322662 L769.463893,55.5490288 L769.521559,55.4667266 L769.579689,55.3848921 L769.639215,55.3039928 L769.69967,55.2240288 L769.761056,55.145 L769.823371,55.0669065 L769.887082,54.9892806 L769.951258,54.9125899 L770.016829,54.8368345 L770.082865,54.7620144 L770.150297,54.6876619 L770.218193,54.6142446 L770.287484,54.541295 L770.357241,54.4697482 L770.427927,54.3986691 L770.499544,54.3280576 L770.57209,54.2588489 L770.645102,54.1901079 L770.719044,54.1218345 L770.793916,54.0544964 L770.869718,53.9880935 L770.945985,53.9221583 L771.023182,53.8571583 L771.100844,53.7930935 L771.179436,53.7294964 L771.258959,53.6663669 L771.338946,53.6041727 L771.419398,53.5429137 L771.500781,53.4821223 L771.582628,53.4222662 L771.665406,53.3628777 L771.748649,53.3044245 L771.832356,53.2464388 L771.916994,53.1889209 L772.002097,53.1323381 L772.087665,53.076223 L772.174163,53.0210432 L772.260661,52.9663309 L772.348089,52.912554 L772.435982,52.8592446 L772.52434,52.8064029 L772.613628,52.7544964 L772.702917,52.7030576 L772.79267,52.6520863 L772.882888,52.6020504 L772.974037,52.552482 L773.065185,52.5033813 L773.156798,52.4552158 L773.248877,52.407518 L773.34142,52.3602878 L773.434429,52.3135252 L773.527903,52.2676978 L773.621376,52.2223381 L773.715315,52.177446 L773.809719,52.1330216 L773.904587,52.0895324 L773.999921,52.0465108 L774.095255,52.0039568 L774.191054,51.9618705 L774.286852,51.9207194 L774.383116,51.8795683 L774.479845,51.8393525 L774.576574,51.7996043 L774.673303,51.7603237 L774.770962,51.7215108 L774.868156,51.6836331 L774.965815,51.6457554 L775.162063,51.5718705 L775.260187,51.5358633 L775.358776,51.5003237 L775.4569,51.4652518 L775.555954,51.4306475 L775.654543,51.3965108 L775.753598,51.3628417 L775.852652,51.3296403 L775.943335,51.2997122 L775.935429,51.2884892 L775.889855,51.2234892 L775.843351,51.1589568 L775.749412,51.0298921 L775.701513,50.9653597 L775.653148,50.901295 L775.604319,50.8367626 L775.555024,50.7726978 L775.5048,50.7091007 L775.454575,50.645036 L775.403885,50.5814388 L775.300646,50.4542446 L775.248096,50.3906475 L775.195081,50.327518 L775.141601,50.2643885 L775.087656,50.201259 L775.033246,50.1385971 L774.978371,50.0759353 L774.866761,49.9506115 L774.75329,49.826223 L774.695625,49.7644964 L774.637495,49.7023022 L774.578899,49.6405755 L774.519839,49.5793165 L774.459848,49.5175899 L774.399858,49.4563309 L774.338937,49.3950719 L774.277552,49.3342806 L774.215701,49.2734892 L774.153385,49.2126978 L774.090604,49.1523741 L774.027359,49.0920504 L773.963648,49.0321942 L773.899007,48.9718705 L773.833901,48.912482 L773.76833,48.8526259 L773.702294,48.7932374 L773.635793,48.7343165 L773.568826,48.6749281 L773.50093,48.6160072 L773.364207,48.4991007 L773.294916,48.4406475 L773.154473,48.3246763 L773.083787,48.2671583 L773.01217,48.2096403 L772.940088,48.1525899 L772.867542,48.0955396 L772.79453,48.0384892 L772.646646,47.9253237 L772.571775,47.8692086 L772.496438,47.8130935 L772.420636,47.757446 L772.344369,47.7017986 L772.189974,47.5914388 L772.127194,47.5479496 L772.111847,47.5367266 L772.033255,47.4820144 L772.116033,47.5301799 L772.132309,47.54 L772.19788,47.5788129 L772.279728,47.6279137 L772.360645,47.6770144 L772.441098,47.7265827 L772.601072,47.8266547 L772.68013,47.8771583 L772.758722,47.9276619 L772.836849,47.9786331 L772.991243,48.0815108 L773.067975,48.1334173 L773.143777,48.1853237 L773.219579,48.2376978 L773.369323,48.3433813 L773.443265,48.396223 L773.516742,48.45 L773.590218,48.5033094 L773.662765,48.557554 L773.734847,48.6117986 L773.806463,48.6660432 L773.877615,48.7207554 L773.948301,48.7759353 L774.018523,48.8311151 L774.088279,48.886295 L774.157106,48.9419424 L774.225932,48.9980576 L774.294293,49.0541727 L774.361724,49.1102878 L774.429156,49.1673381 L774.495657,49.2239209 L774.562158,49.2809712 L774.627729,49.3384892 L774.692835,49.3960072 L774.757941,49.4539928 L774.822117,49.5119784 L774.885828,49.569964 L774.949073,49.6284173 L775.011854,49.6873381 L775.07417,49.746259 L775.136021,49.8051799 L775.197406,49.8645683 L775.258327,49.9239568 L775.318782,49.9838129 L775.378773,50.0436691 L775.438298,50.1039928 L775.497359,50.1643165 L775.555489,50.2246403 L775.61362,50.2854317 L775.671285,50.346223 L775.784755,50.468741 L775.896366,50.5921942 L775.951241,50.6539209 L776.006116,50.7161151 L776.060061,50.7783094 L776.113541,50.8405036 L776.167021,50.9031655 L776.21957,50.966295 L776.271655,51.0289568 L776.32374,51.0920863 L776.374895,51.1552158 L776.38001,51.1617626 L776.448371,51.1407194 L776.547426,51.111259 L776.646945,51.0817986 L776.746464,51.0528058 L776.845983,51.0242806 L776.945037,50.996223 L777.044556,50.9686331 L777.14361,50.9415108 L777.242665,50.9148561 L777.440773,50.862482 L777.539827,50.8372302 L777.638416,50.812446 L777.73747,50.7876619 L777.835594,50.7633453 L777.934183,50.7394964 L778.130431,50.6932014 L778.325749,50.648777 L778.520602,50.6052878 L778.71406,50.5636691 L778.906588,50.5234532 L779.098185,50.4851079 L779.288388,50.4476978 L779.477195,50.4121583 L779.664608,50.377554 L779.850625,50.3443525 L780.035247,50.312554 L780.217544,50.2821583 L780.398445,50.2531655 L780.577022,50.2255755 L780.754203,50.1989209 L780.928594,50.1732014 L781.101125,50.1488849 L781.271331,50.1259712 L781.439211,50.1039928 L781.604301,50.0829496 L781.767066,50.0628417 L781.927041,50.0441367 L782.084225,50.0263669 L782.238155,50.0095324 L782.389759,49.9931655 L782.537642,49.9782014 L782.682736,49.9641727 L782.824109,49.9510791 L782.962691,49.9384532 L783.097089,49.9267626 L783.228231,49.9160072 L783.355652,49.9061871 L783.479354,49.8968345 L783.599335,49.8879496 L783.715131,49.88 L783.826741,49.872518 L783.934631,49.8659712 L784.136459,49.8542806 L784.320616,49.8449281 L784.486172,49.837446 L784.632195,49.8313669 L784.757757,49.8271583 L784.862391,49.8238849 L784.879133,49.8234173 L784.945169,49.8220144 L785.005624,49.8206115 L785.054454,49.8201439 L785.005624,49.8234173 L784.945634,49.8276259 L784.879598,49.8327698 L784.862856,49.833705 L784.758687,49.8421223 L784.63359,49.8528777 L784.488032,49.8664388 L784.323407,49.8823381 L784.14018,49.9010432 L783.939281,49.9230216 L783.832321,49.9351799 L783.721176,49.9482734 L783.606311,49.9623022 L783.48726,49.9767986 L783.364488,49.9922302 L783.237997,50.0090647 L783.10825,50.0263669 L782.974317,50.0446043 L782.837595,50.0642446 L782.697152,50.0843525 L782.553454,50.1058633 L782.406965,50.1283094 L782.257221,50.1521583 L782.104687,50.1764748 L781.949363,50.2021942 L781.791248,50.2293165 L781.630344,50.2573741 L781.467114,50.2863669 L781.301558,50.3167626 L781.133678,50.3485612 L780.963472,50.381295 L780.791406,50.4154317 L780.617015,50.4509712 L780.441229,50.487446 L780.263583,50.5257914 L780.083611,50.5650719 L779.90271,50.6057554 L779.719948,50.6478417 L779.536256,50.6913309 L779.351169,50.7366906 L779.164687,50.7829856 L778.977274,50.8306835 L778.788467,50.8802518 L778.599195,50.931223 L778.409457,50.9835971 L778.218789,51.0373741 L778.027192,51.0930216 L777.931393,51.1215468 L777.739795,51.1795324 L777.643532,51.2089928 L777.547733,51.2393885 L777.451469,51.2697842 L777.258941,51.3315108 L777.162677,51.3633094 L776.97015,51.4278417 L776.873886,51.4610432 L776.778087,51.4942446 L776.681823,51.5279137 L776.667872,51.5330576 L776.672522,51.5386691 L776.720422,51.6032014 L776.767856,51.6677338 L776.814825,51.7322662 L776.861329,51.7972662 L776.952478,51.9272662 L776.997587,51.9927338 L777.042231,52.0582014 L777.08641,52.1236691 L777.130124,52.1891367 L777.173373,52.2550719 L777.216157,52.3210072 L777.258011,52.3874101 L777.299865,52.4533453 L777.341254,52.5197482 L777.382177,52.5861511 L777.422171,52.6530216 L777.462165,52.7194245 L777.501693,52.786295 L777.540757,52.8531655 L777.578891,52.9205036 L777.617024,52.9873741 L777.654693,53.0547122 L777.728169,53.1893885 L777.764443,53.2571942 L777.835129,53.3928058 L777.870007,53.4606115 L777.903955,53.5284173 L777.937904,53.5966906 L777.971387,53.6644964 L778.036493,53.8010432 L778.068116,53.8697842 L778.099739,53.9380576 L778.130896,54.0063309 L778.191352,54.1438129 L778.249947,54.281295 L778.27878,54.3505036 L778.306683,54.4192446 L778.334585,54.4884532 L778.362023,54.5571942 L778.415038,54.6956115 L778.44108,54.7648201 L778.466192,54.8344964 L778.491305,54.903705 L778.515952,54.9729137 L778.539669,55.0425899 L778.563386,55.1117986 L778.586638,55.1814748 L778.631282,55.3208273 L778.653139,55.3905036 L778.674531,55.4601799 L778.695458,55.5298561 L778.735452,55.6692086 L778.754984,55.7388849 L778.774051,55.8085612 L778.792652,55.878705 L778.810789,55.9483813 L778.827996,56.0180576 L778.845202,56.0882014 L778.861944,56.1578777 L778.87822,56.227554 L778.894032,56.2976978 L778.909378,56.3673741 L778.924259,56.437518 L778.938676,56.5071942 L778.952627,56.5773381 L778.966113,56.6470144 L778.979134,56.7166906 L778.98425,56.7442806 L778.991691,56.7868345 L779.003782,56.8565108 L779.015408,56.9266547 L779.0368,57.0660072 L779.047031,57.1361511 L779.056797,57.2058273 L779.066098,57.2755036 L779.082839,57.4148561 L779.090745,57.4845324 L779.098185,57.5542086 L779.105161,57.6238849 L779.111672,57.6930935 L779.117717,57.7627698 L779.123298,57.8319784 L779.128413,57.9016547 L779.133529,57.9708633 L779.137714,58.0400719 L779.141434,58.1092806 L779.147945,58.2476978 L779.15027,58.3169065 L779.153991,58.4543885 L779.154921,58.5235971 L779.155851,58.5923381 L779.155851,58.7298201 L779.154921,58.7980935 L779.153991,58.8668345 L779.152595,58.9351079 L779.150735,59.0033813 L779.145155,59.1399281 L779.141899,59.2077338 L779.138179,59.2760072 L779.133994,59.3438129 L779.129343,59.4116187 L779.124228,59.4789568 L779.118647,59.5467626 L779.113067,59.6141007 L779.106556,59.6814388 L779.099581,59.748777 L779.09214,59.8161151 L779.084699,59.8829856 L779.067958,60.0167266 L779.058657,60.0835971 L779.049356,60.15 L779.028894,60.2828058 L779.018198,60.348741 L779.007037,60.4151439 L778.994946,60.4806115 L778.982855,60.5465468 L778.970299,60.612482 L778.957277,60.6779496 L778.943791,60.7429496 L778.930305,60.8084173 L778.915889,60.8734173 L778.901007,60.9384173 L778.885661,61.0029496 L778.870314,61.0679496 L778.854038,61.1320144 L778.837761,61.1965468 L778.803348,61.3246763 L778.767075,61.4518705 L778.748473,61.5154676 L778.729407,61.5790647 L778.709875,61.6421942 L778.689878,61.7048561 L778.669416,61.767518 L778.648489,61.8301799 L778.627097,61.8928417 L778.60524,61.955036 L778.560596,62.0784892 L778.514092,62.2019424 L778.489909,62.2632014 L778.465727,62.3239928 L778.415503,62.4455755 L778.389925,62.5058993 L778.363883,62.566223 L778.337375,62.6260791 L778.310403,62.6859353 L778.282965,62.7453237 L778.255063,62.8047122 L778.198328,62.922554 L778.16903,62.9814748 L778.139267,63.0399281 L778.109504,63.0979137 L778.078812,63.1558993 L778.048119,63.2134173 L778.016961,63.2709353 L777.985338,63.3279856 L777.920232,63.4420863 L777.887214,63.4982014 L777.820248,63.6104317 L777.785835,63.6660791 L777.750956,63.7217266 L777.716078,63.7769065 L777.674224,63.8409712 L777.63144,63.9059712 L777.587261,63.9719065 L777.541687,64.038777 L777.495183,64.1065827 L777.447283,64.1753237 L777.397989,64.245 L777.347299,64.3151439 L777.295679,64.3866906 L777.242665,64.4591727 L777.18872,64.5325899 L777.13338,64.6069424 L777.076644,64.6822302 L777.018979,64.7584532 L776.959919,64.8351439 L776.899928,64.9132374 L776.838542,64.9922662 L776.775297,65.0722302 L776.64741,65.2340288 L776.514408,65.3995683 L776.376755,65.5688489 L776.32746,65.6291727 L776.234452,65.7409353 L776.087498,65.9158273 L775.936359,66.0944604 L775.781035,66.2758993 L775.621525,66.4606115 L775.458295,66.6481295 L775.29088,66.8384532 L775.119744,67.0320504 L774.945353,67.2284532 L774.782588,67.4098921 L774.79933,67.4239209 L774.822582,67.4430935 L774.963025,67.5590647 L775.105328,67.6755036 L775.248561,67.7914748 L775.392724,67.907446 L775.538748,68.0234173 L775.685701,68.1393885 L775.833585,68.2553597 L775.982864,68.3708633 L776.133072,68.4868345 L776.284211,68.6023381 L776.436745,68.7178417 L776.59021,68.8333453 L776.744604,68.9483813 L776.899928,69.0634173 L777.056647,69.1789209 L777.213832,69.2934892 L777.372412,69.4085252 L777.531456,69.5230935 L777.691896,69.6376619 L777.852801,69.7517626 L778.014636,69.8658633 L778.177401,69.979964 L778.341096,70.0935971 L778.505256,70.2072302 L778.670346,70.3208633 L778.835901,70.4340288 L779.002387,70.5471942 L779.169802,70.6598921 L779.337683,70.7725899 L779.675304,70.9970504 L779.845044,71.1088129 L780.186386,71.3323381 L780.357986,71.4431655 L780.530052,71.5544604 L780.702583,71.6648201 L780.875579,71.7751799 L781.04904,71.8855396 L781.146234,71.9467986 L781.221571,71.9977698 L781.392242,72.1123381 L781.563377,72.2273741 L781.735443,72.3414748 L781.907044,72.4555755 L782.079575,72.5696763 L782.598563,72.9091727 L782.772024,73.0214029 L782.94595,73.1336331 L783.119876,73.2453957 L783.16824,73.276259 L783.293802,73.3580935 L783.467263,73.4707914 L783.640724,73.5830216 L783.988576,73.8065468 L784.162502,73.9178417 L784.336428,74.0286691 L784.510819,74.1390288 L784.68521,74.2489209 L784.858671,74.3583453 L785.207453,74.576259 L785.55577,74.7927698 L785.903622,75.0069424 L786.251009,75.2197122 L786.580724,75.4203237 L786.597466,75.4301439 L786.942993,75.6396403 L787.287124,75.8472662 L787.629861,76.052554 L787.971667,76.2555036 L788.311614,76.4565827 L788.650165,76.6557914 L788.986856,76.8521942 L789.321222,77.046259 L789.653262,77.2379856 L789.982978,77.4273741 L790.310368,77.6144245 L790.634968,77.7986691 L790.956312,77.9801079 L791.274867,78.1592086 L791.590166,78.3355036 L791.901744,78.5089928 L791.996148,78.5613669 L792.210533,78.678741 L792.515601,78.8452158 L792.816949,79.0084173 L793.114111,79.1688129 L793.407088,79.3264029 L793.695415,79.4807194 L793.979091,79.6317626 L794.258116,79.7795324 L794.532027,79.9244964 L794.800821,80.0657194 L795.064501,80.2036691 L795.322599,80.3383453 L795.575118,80.4697482 L795.82159,80.5974101 L796.062482,80.7213309 L796.296864,80.8415108 L796.5252,80.9584173 L796.747025,81.0715827 L796.961875,81.1805396 L797.371578,81.3876978 L797.752448,81.5789568 L798.103555,81.7538489 L798.42304,81.9119065 L798.709971,82.0531295 L798.962955,82.1765827 L799.180595,82.2822662 L799.361496,82.3697122 L799.504264,82.4384532 L799.607969,82.4880216 L799.692607,82.5277698 L799.770269,82.5726619 L799.830259,82.6226978 L799.839095,82.6297122 L799.897226,82.697518 L799.94373,82.773741 L799.976748,82.8565108 L799.995815,82.9434892 L800,83.0318705 L799.989769,83.1197842 L799.965122,83.2044245 L799.926523,83.2839209 L799.876299,83.3554676 L799.814448,83.4171942 L799.743761,83.4681655 L799.666099,83.5060432 L799.582857,83.5308273 L799.497289,83.5411151 L794.665959,83.7188129 L790.630782,83.8815468 L784.189474,84.211223 L774.458918,84.7293525 L764.988321,85.243741 L759.327355,85.5617266 L754.389065,85.8951439 L754.358751,85.8948213 L754.358751,85.8948213 Z M750.221883,69.8668424 L750.217631,69.9158993 L750.209726,70.0183094 L750.202285,70.1207194 L750.195774,70.2235971 L750.190194,70.3269424 L750.185543,70.4302878 L750.181358,70.5341007 L750.177638,70.6379137 L750.175312,70.7421942 L750.173452,70.8469424 L750.172522,70.9521583 L750.172522,71.0573741 L750.173452,71.1630576 L750.173917,71.203741 L750.175312,71.268741 L750.178103,71.3748921 L750.181358,71.4815108 L750.186008,71.5885971 L750.191124,71.6956835 L750.197634,71.8032374 L750.20461,71.911259 L750.212516,72.0192806 L750.221352,72.1277698 L750.231118,72.2367266 L750.241813,72.3461511 L750.25344,72.4555755 L750.265531,72.5654676 L750.279017,72.676295 L750.301804,72.8521223 L750.325056,73.0251439 L750.348773,73.1953597 L750.373421,73.3623022 L750.398533,73.5264388 L750.42411,73.6873022 L750.448293,73.8308633 L750.450618,73.8453597 L750.47945,74.0006115 L750.508748,74.1525899 L750.538046,74.3017626 L750.568274,74.4485971 L750.598966,74.5921583 L750.630124,74.7333813 L750.661747,74.8722662 L750.693835,75.0078777 L750.725923,75.1416187 L750.758941,75.272554 L750.791959,75.4011511 L750.825907,75.5274101 L750.859855,75.6508633 L750.893804,75.772446 L750.928682,75.8916906 L750.96356,76.0090647 L750.998903,76.1236331 L751.034711,76.2363309 L751.07052,76.3471583 L751.106793,76.4561151 L751.143532,76.5627338 L751.18027,76.6679496 L751.217008,76.7708273 L751.254212,76.8718345 L751.29188,76.9714388 L751.329549,77.0691727 L751.367217,77.1655036 L751.405351,77.259964 L751.443484,77.3530216 L751.482083,77.4446763 L751.520681,77.5344604 L751.559745,77.6233094 L751.598343,77.7107554 L751.637872,77.7967986 L751.676936,77.8814388 L751.716464,77.9651439 L751.755993,78.047446 L751.795522,78.1292806 L751.83505,78.2097122 L751.875044,78.2892086 L751.915038,78.3677698 L751.955031,78.4453957 L751.99549,78.5220863 L752.035949,78.5983094 L752.040651,78.6072155 L752.046645,78.563705 L752.061526,78.4449281 L752.075942,78.3270863 L752.089429,78.2106475 L752.10152,78.0951439 L752.113146,77.9805755 L752.123842,77.8669424 L752.134073,77.7547122 L752.142909,77.6434173 L752.150814,77.5325899 L752.158255,77.4231655 L752.164766,77.3146763 L752.170346,77.2071223 L752.175462,77.1005036 L752.179182,76.9948201 L752.182902,76.8905396 L752.185227,76.7867266 L752.187088,76.6833813 L752.188018,76.5814388 L752.188018,76.4804317 L752.187553,76.3803597 L752.186158,76.2807554 L752.184297,76.1820863 L752.181507,76.0843525 L752.177787,75.987554 L752.173601,75.891223 L752.168951,75.796295 L752.16337,75.7013669 L752.157325,75.6078417 L752.150349,75.5147842 L752.142443,75.4226619 L752.134538,75.3310072 L752.125702,75.2402878 L752.115936,75.150036 L752.10617,75.0607194 L752.083848,74.8839568 L752.071757,74.7969784 L752.059201,74.71 L752.04618,74.6239568 L752.032228,74.5383813 L752.017812,74.453741 L752.002931,74.3695683 L751.987584,74.2858633 L751.971773,74.2026259 L751.955031,74.1203237 L751.937825,74.0384892 L751.920153,73.9571223 L751.902016,73.876223 L751.883415,73.7957914 L751.864348,73.7158273 L751.844351,73.6363309 L751.824354,73.5577698 L751.803427,73.4792086 L751.7825,73.4011151 L751.738786,73.2467986 L751.715999,73.1701079 L751.693212,73.0938849 L751.669495,73.0181295 L751.645313,72.9428417 L751.634152,72.9082374 L751.620665,72.8680216 L751.595088,72.7936691 L751.569046,72.7193165 L751.542538,72.6458993 L751.515566,72.572482 L751.488593,72.4995324 L751.432788,72.3545683 L751.404421,72.282554 L751.375588,72.2110072 L751.34629,72.1394604 L751.316992,72.0683813 L751.28723,71.9977698 L751.257002,71.9266906 L751.195616,71.7864029 L751.164458,71.716259 L751.101213,71.5769065 L751.069125,71.5081655 L751.004019,71.3692806 L750.937983,71.2317986 L750.870551,71.0947842 L750.80219,70.9582374 L750.732899,70.8221583 L750.663142,70.6865468 L750.591991,70.5509353 L750.520374,70.4153237 L750.496192,70.3694964 L750.447827,70.2801799 L750.374816,70.145036 L750.300874,70.0103597 L750.221883,69.8668424 L750.221883,69.8668424 Z M749.772073,66.9456349 L749.792582,66.8697842 L749.820485,66.768777 L749.848852,66.6682374 L749.87815,66.5676978 L749.907913,66.4676259 L749.938141,66.367554 L749.969298,66.2679496 L750.000456,66.1688129 L750.032544,66.0696763 L750.065097,65.9710072 L750.098115,65.8728058 L750.117647,65.8157554 L750.131598,65.7746043 L750.165081,65.6764029 L750.233908,65.4809353 L750.269251,65.3836691 L750.340868,65.1900719 L750.377606,65.093741 L750.414809,64.9974101 L750.490146,64.8056835 L750.528745,64.7102878 L750.606872,64.5204317 L750.686859,64.3315108 L750.727783,64.237518 L750.768707,64.1439928 L750.810096,64.0504676 L750.85195,63.9569424 L750.893804,63.8638849 L750.979371,63.678705 L751.02262,63.5865827 L751.066334,63.4944604 L751.154693,63.3111511 L751.199337,63.219964 L751.289555,63.0385252 L751.335129,62.9478058 L751.380703,62.857554 L751.427208,62.7677698 L751.473712,62.677518 L751.567186,62.4993525 L751.661589,62.3216547 L751.730881,62.1939928 L751.757853,62.1448921 L751.855047,61.97 L751.953636,61.7955755 L752.05269,61.6220863 L752.152674,61.45 L752.253124,61.2783813 L752.354038,61.1076978 L752.455882,60.9384173 L752.557727,60.7696043 L752.660036,60.6017266 L752.762811,60.4347842 L752.86605,60.268777 L752.96929,60.1032374 L753.072529,59.9391007 L753.176234,59.7754317 L753.279938,59.6126978 L753.383643,59.4504317 L753.589657,59.1296403 L753.795671,58.8116547 L753.89426,58.6601439 L754.208629,58.1892446 L754.413248,57.8834173 L754.615076,57.5799281 L754.71413,57.4298201 L754.812719,57.2801799 L754.874105,57.1866547 L754.911308,57.1319424 L755.010828,56.9851079 L755.108952,56.8396763 L755.206146,56.6942446 L755.291248,56.5661151 L755.302409,56.5502158 L755.397743,56.4066547 L755.491682,56.2640288 L755.58469,56.1223381 L755.640961,56.0353597 L755.677699,55.9820504 L755.771638,55.8436331 L755.863716,55.7061511 L755.954865,55.5691367 L756.044153,55.4325899 L756.131581,55.2969784 L756.217614,55.1613669 L756.301321,55.0266906 L756.384099,54.8915468 L756.424093,54.8251439 L756.464086,54.7582734 L756.503615,54.6918705 L756.542679,54.625 L756.580812,54.5585971 L756.597089,54.5310072 L756.619411,54.4926619 L756.658009,54.4271942 L756.696143,54.361259 L756.733346,54.2957914 L756.77055,54.2307914 L756.806823,54.1653237 L756.842631,54.1003237 L756.877975,54.0353237 L756.912853,53.9703237 L756.946801,53.9053237 L756.980749,53.8407914 L757.013767,53.776259 L757.04632,53.7117266 L757.078408,53.6471942 L757.109566,53.5826619 L757.140724,53.5185971 L757.170951,53.4545324 L757.200714,53.3904676 L757.229547,53.3264029 L757.257915,53.2628058 L757.285817,53.198741 L757.313255,53.1351439 L757.339762,53.0715468 L757.365804,53.0079496 L757.391382,52.9448201 L757.416029,52.881223 L757.440211,52.8180935 L757.463463,52.754964 L757.486251,52.6918345 L757.508573,52.628705 L757.521594,52.5898921 L757.53043,52.5655755 L757.552287,52.5029137 L757.573214,52.4402518 L757.613207,52.3149281 L757.650411,52.1896043 L757.668082,52.1274101 L757.684824,52.0647482 L757.7011,52.002554 L757.716912,51.9398921 L757.731793,51.8776978 L757.745744,51.815036 L757.759231,51.7528417 L757.772252,51.6901799 L757.784343,51.627518 L757.795504,51.5653237 L757.8062,51.5026619 L757.815966,51.4404676 L757.825267,51.3778058 L757.833638,51.3151439 L757.841543,51.252482 L757.848519,51.1888849 L757.855029,51.1229496 L757.861075,51.0560791 L757.867121,50.9896763 L757.872701,50.9228058 L757.877352,50.8559353 L757.882002,50.7895324 L757.886187,50.7226619 L757.889908,50.6557914 L757.893628,50.5893885 L757.896418,50.5229856 L757.899209,50.4561151 L757.901534,50.3897122 L757.903394,50.3233094 L757.904789,50.2569065 L757.905719,50.1905036 L757.906649,50.1245683 L757.907114,50.0581655 L757.907114,49.9917626 L757.906649,49.9258273 L757.905719,49.8598921 L757.904789,49.7934892 L757.903394,49.727554 L757.901534,49.6616187 L757.899209,49.5956835 L757.896883,49.5302158 L757.894093,49.4642806 L757.890838,49.3988129 L757.887117,49.3328777 L757.883397,49.2674101 L757.879212,49.2028777 L757.869911,49.0714748 L757.859215,48.9410072 L757.847124,48.8110072 L757.834103,48.6814748 L757.819686,48.5519424 L757.803875,48.4228777 L757.787133,48.2942806 L757.768997,48.1661511 L757.749465,48.0384892 L757.729468,47.911295 L757.708076,47.7845683 L757.685289,47.6583094 L757.682034,47.6405396 L757.662502,47.5320504 L757.63925,47.406259 L757.614602,47.2814029 L757.589025,47.1565468 L757.562518,47.0326259 L757.53508,46.9091727 L757.506712,46.7861871 L757.477415,46.6636691 L757.447187,46.5420863 L757.416029,46.4209712 L757.384406,46.3003237 L757.351853,46.1806115 L757.31837,46.0613669 L757.286962,45.9533893 L757.227222,45.965036 L757.136538,45.983741 L757.04539,46.0033813 L756.863093,46.0445324 L756.771945,46.0665108 L756.680796,46.0889568 L756.589648,46.1123381 L756.4985,46.1366547 L756.407351,46.1614388 L756.316668,46.1871583 L756.225519,46.2133453 L756.134836,46.2409353 L756.043688,46.2689928 L755.953004,46.2979856 L755.862786,46.327446 L755.772103,46.3583094 L755.681884,46.3896403 L755.591666,46.4219065 L755.501913,46.4551079 L755.41216,46.4892446 L755.322406,46.5243165 L755.233118,46.5603237 L755.14383,46.5972662 L755.055007,46.6346763 L755.032685,46.6444964 L754.966183,46.6730216 L754.87736,46.7118345 L754.789002,46.7515827 L754.700644,46.7922662 L754.613216,46.8338849 L754.525323,46.8764388 L754.43836,46.9199281 L754.351397,46.9648201 L754.264899,47.0101799 L754.178401,47.0569424 L754.092368,47.1046403 L754.007265,47.1532734 L753.922162,47.2028417 L753.83706,47.2533453 L753.752887,47.3052518 L753.669179,47.3576259 L753.585471,47.4114029 L753.502229,47.4665827 L753.419916,47.5222302 L753.337604,47.5792806 L753.255756,47.6377338 L753.174839,47.6966547 L753.093921,47.7569784 L753.013934,47.818705 L752.933946,47.8808993 L752.854889,47.944964 L752.776297,48.0094964 L752.69817,48.0754317 L752.620508,48.1427698 L752.54331,48.2110432 L752.467043,48.2807194 L752.391241,48.3513309 L752.315904,48.4233453 L752.240102,48.4972302 L752.203829,48.5332374 L752.167091,48.5706475 L752.129887,48.6085252 L752.093614,48.6464029 L752.056876,48.6847482 L752.020602,48.7230935 L751.984329,48.7619065 L751.948056,48.8011871 L751.876439,48.8806835 L751.805752,48.9611151 L751.770409,49.0022662 L751.735531,49.0434173 L751.700188,49.0845683 L751.665775,49.1266547 L751.630896,49.168741 L751.596483,49.211295 L751.562535,49.2538489 L751.528122,49.2968705 L751.494639,49.3403597 L751.460691,49.3843165 L751.427208,49.4282734 L751.393725,49.4726978 L751.360707,49.5175899 L751.29467,49.6083094 L751.262117,49.6541367 L751.229564,49.7004317 L751.197476,49.7467266 L751.133301,49.8411871 L751.070055,49.9365827 L751.057499,49.956223 L751.038432,49.9847482 L751.006809,50.0329137 L750.975186,50.0820144 L750.944028,50.1306475 L750.91287,50.1802158 L750.851485,50.2802878 L750.820792,50.3307914 L750.790564,50.3817626 L750.760336,50.4332014 L750.730573,50.4846403 L750.671048,50.5893885 L750.64175,50.6422302 L750.612453,50.6955396 L750.554787,50.8030935 L750.52642,50.8573381 L750.498052,50.912518 L750.47015,50.9676978 L750.414344,51.0789928 L750.359469,51.1921583 L750.305524,51.3071942 L750.279017,51.3651799 L750.252509,51.4236331 L750.226467,51.482554 L750.200425,51.5419424 L750.174847,51.6013309 L750.14927,51.6616547 L750.124158,51.7219784 L750.099045,51.7832374 L750.074398,51.8444964 L750.049751,51.906223 L750.025104,51.9684173 L750.021848,51.9773022 L750.000456,52.0310791 L749.975809,52.093741 L749.951162,52.1568705 L749.92698,52.2204676 L749.902797,52.2845324 L749.855363,52.4135971 L749.832111,52.4790647 L749.808859,52.545 L749.786072,52.6114029 L749.763284,52.6782734 L749.740962,52.7451439 L749.71864,52.8129496 L749.696783,52.881223 L749.675391,52.9494964 L749.653999,53.018705 L749.632607,53.0883813 L749.61168,53.1580576 L749.591219,53.2286691 L749.570757,53.2997482 L749.55076,53.3708273 L749.530763,53.4428417 L749.511231,53.5153237 L749.473098,53.661223 L749.456356,53.7257554 L749.454031,53.7351079 L749.433104,53.8089928 L749.413107,53.8828777 L749.39311,53.9576978 L749.373114,54.0329856 L749.353582,54.108741 L749.334515,54.184964 L749.315448,54.2616547 L749.296846,54.3388129 L749.293126,54.3551799 L749.278245,54.4164388 L749.241041,54.5735612 L749.222905,54.6525899 L749.205233,54.732554 L749.17082,54.8934173 L749.153613,54.9747842 L749.137337,55.0566187 L749.128501,55.1001079 L749.12013,55.1389209 L749.102459,55.2216906 L749.085252,55.3049281 L749.06851,55.3886331 L749.051769,55.4728058 L749.035027,55.5579137 L749.003404,55.7290647 L748.987593,55.8155755 L748.972247,55.9030216 L748.957365,55.9904676 L748.928533,56.1672302 L748.914581,56.2565468 L748.90063,56.3467986 L748.887144,56.4370504 L748.861101,56.6194245 L748.848545,56.7115468 L748.836454,56.8046043 L748.827618,56.8738129 L748.824363,56.8976619 L748.811342,56.9916547 L748.798786,57.0856475 L748.786695,57.1805755 L748.774603,57.2764388 L748.762977,57.3723022 L748.751816,57.4691007 L748.740655,57.5663669 L748.729959,57.6641007 L748.719728,57.7627698 L748.709962,57.8619065 L748.700197,57.9615108 L748.690896,58.0615827 L748.68206,58.1625899 L748.673224,58.2640647 L748.664853,58.3660072 L748.649042,58.5717626 L748.641601,58.6760432 L748.634626,58.7803237 L748.628115,58.8855396 L748.621604,58.991223 L748.616024,59.0973741 L748.610443,59.2044604 L748.604863,59.3120144 L748.600212,59.420036 L748.595562,59.5289928 L748.591377,59.6384173 L748.587191,59.7483094 L748.580681,59.969964 L748.57789,60.0821942 L748.575565,60.1944245 L748.573705,60.3075899 L748.571845,60.4216906 L748.57045,60.5357914 L748.56952,60.6508273 L748.569054,60.7663309 L748.568589,60.8827698 L748.569054,60.9996763 L748.569054,61.117518 L748.56952,61.2353597 L748.569985,61.3546043 L748.570915,61.4733813 L748.57231,61.5832734 L748.574635,61.691295 L748.57696,61.7983813 L748.580681,61.905 L748.584866,62.0102158 L748.589981,62.114964 L748.595562,62.218777 L748.601607,62.3216547 L748.608583,62.4235971 L748.616489,62.5246043 L748.624395,62.6251439 L748.633695,62.7247482 L748.642996,62.8234173 L748.653227,62.9211511 L748.664388,63.0184173 L748.675549,63.1147482 L748.68764,63.2101439 L748.700662,63.3050719 L748.713683,63.3990647 L748.727634,63.4925899 L748.74205,63.5851799 L748.756932,63.6768345 L748.772743,63.7684892 L748.788555,63.858741 L748.805296,63.9485252 L748.822503,64.0378417 L748.840174,64.1266906 L748.858776,64.2146043 L748.877378,64.3020504 L748.89691,64.3885612 L748.916441,64.4746043 L748.936903,64.5601799 L748.95783,64.6452878 L748.978757,64.7294604 L749.000614,64.8136331 L749.022936,64.8968705 L749.030842,64.9249281 L749.045723,64.9791727 L749.069441,65.0614748 L749.117805,65.2242086 L749.142917,65.3046403 L749.16803,65.3846043 L749.194072,65.4641007 L749.220114,65.5431295 L749.246622,65.6221583 L749.273594,65.7002518 L749.328469,65.8555036 L749.385205,66.0088849 L749.414037,66.0851079 L749.44287,66.1608633 L749.502395,66.3114388 L749.532158,66.386259 L749.562851,66.4606115 L749.593544,66.5344964 L749.624702,66.6083813 L749.65586,66.6817986 L749.687482,66.7547482 L749.71957,66.8276978 L749.751658,66.9001799 L749.772073,66.9456349 L749.772073,66.9456349 Z M751.89345,52.8861328 C751.89345,52.8861328 752.564788,52.7626509 753.054704,52.025377 C753.925605,50.7137492 754.307469,49.40316 754.307469,49.40316 C754.631491,49.4642754 754.939174,49.5925383 755.210911,49.7800614 C756.274736,50.5141946 756.545603,51.9649174 755.815525,53.018282 C755.085447,54.0716466 753.629526,54.3307329 752.565701,53.5965997 C752.293964,53.4090765 752.065108,53.1670809 751.89345,52.8861328 Z M773.625562,68.6710791 L773.423268,68.8847842 L773.217719,69.1003597 L773.00938,69.3182734 L772.798715,69.5375899 L772.585261,69.758777 L772.369481,69.9818345 L772.150911,70.206295 L772.042556,70.3180576 L771.92862,70.4302878 L771.701214,70.6528777 L771.472413,70.8773381 L771.241287,71.1027338 L771.232451,71.1111511 L771.00737,71.3285971 L770.771594,71.5553957 L770.533957,71.7831295 L770.29539,72.0117986 L770.219588,72.0838129 L770.053568,72.2395324 L769.809885,72.4677338 L769.564808,72.6968705 L769.3188,72.9260072 L769.071397,73.1560791 L768.823064,73.3861511 L768.573801,73.6171583 L768.073415,74.078705 L767.679524,74.4411151 L767.570239,74.5402518 L767.063342,74.9989928 L766.555981,75.4567986 L766.048619,75.9132014 L765.542187,76.3672662 L765.037616,76.8180576 L764.53537,77.2655755 L764.036844,77.7084173 L763.542503,78.1470504 L763.053278,78.5796043 L762.569634,79.0060791 L762.092965,79.4255396 L761.623736,79.837518 L761.341921,80.0844245 L761.162414,80.2410791 L760.709927,80.6352878 L760.267672,81.0201439 L759.835647,81.3947122 L759.415713,81.7589928 L759.008336,82.1115827 L758.613979,82.4520144 L758.233574,82.7798201 L757.868516,83.0940647 L757.185833,83.6804676 L756.572906,84.2056115 L756.036247,84.6638849 L755.915336,84.7667626 L759.280386,84.6456475 L764.944142,84.376295 L774.417064,83.9091367 L784.149016,83.4185971 L790.589394,83.080036 L794.61992,82.8247122 L797.304612,82.6451439 L797.257642,82.6236331 L796.867937,82.4445324 L796.448468,82.2504676 L796.228038,82.1475899 L796.001097,82.0419065 L795.76718,81.9320144 L795.527218,81.8188489 L795.280745,81.7024101 L795.028227,81.5822302 L794.769663,81.4592446 L794.505054,81.332518 L794.235329,81.202518 L793.959559,81.0697122 L793.679138,80.9336331 L793.393137,80.7942806 L793.10202,80.6516547 L792.806718,80.506223 L792.5063,80.3579856 L792.201697,80.2064748 L791.892909,80.0526259 L791.57947,79.8955036 L791.359504,79.7846763 L791.26231,79.7360432 L790.940966,79.5751799 L790.615436,79.4115108 L790.287116,79.245036 L789.955075,79.0757554 L789.620244,78.9046043 L789.282158,78.7301799 L788.941282,78.5538849 L788.59808,78.3752518 L788.252088,78.1938129 L787.904236,78.0105036 L787.554059,77.8243885 L787.201557,77.6364029 L786.847659,77.4460791 L786.492366,77.2538849 L786.135213,77.0593525 L785.77713,76.8629496 L785.759924,76.8531295 L785.418117,76.663741 L785.058174,76.4621942 L784.697766,76.2592446 L784.336428,76.0544245 L783.975089,75.8477338 L783.794188,75.7434532 L783.613286,75.638705 L783.431919,75.5339568 L783.251018,75.428741 L782.889215,75.2164388 L782.708313,75.1098201 L782.527411,75.0027338 L782.346975,74.8951799 L782.216298,74.8170863 L782.166538,74.7871583 L781.987031,74.6772662 L781.807525,74.5669065 L781.628483,74.4565468 L781.449442,74.3457194 L781.270866,74.2344245 L781.092289,74.1226619 L780.914178,74.0108993 L780.736531,73.8986691 L780.558885,73.7859712 L780.381704,73.6728058 L780.204987,73.5591727 L780.12686,73.5091367 L780.030131,73.4427338 L779.8576,73.3234892 L779.685535,73.203777 L779.513934,73.0835971 L779.342798,72.9634173 L779.172127,72.8427698 L779.001922,72.7221223 L778.832181,72.6010072 L778.66337,72.4794245 L778.495025,72.3578417 L778.327144,72.236259 L778.159729,72.1142086 L777.993244,71.9916906 L777.827223,71.8691727 L777.662133,71.7461871 L777.497508,71.6232014 L777.333813,71.5002158 L777.170583,71.3767626 L777.008283,71.2533094 L776.846913,71.1293885 L776.686473,71.0054676 L776.526499,70.8815468 L776.367454,70.7571583 L776.209339,70.6327698 L776.052155,70.5079137 L775.895901,70.3830576 L775.740576,70.2582014 L775.586182,70.1328777 L775.432718,70.007554 L775.280184,69.8822302 L775.12858,69.7569065 L774.978371,69.6311151 L774.829092,69.5053237 L774.680744,69.3795324 L774.533325,69.253741 L774.387302,69.127482 L774.242673,69.0016906 L774.098975,68.8754317 L773.956207,68.748705 L773.814834,68.622446 L773.791582,68.6018705 L773.737637,68.5523022 L773.625562,68.6710791 Z M776.202829,51.703741 L776.10703,51.7402158 L776.011696,51.7766906 L775.916828,51.8141007 L775.821959,51.8519784 L775.72709,51.8903237 L775.632221,51.9291367 L775.537818,51.9679496 L775.443879,52.0076978 L775.256002,52.0881295 L775.162528,52.1292806 L775.06952,52.1708993 L774.976976,52.212518 L774.884432,52.2550719 L774.791889,52.2980935 L774.700276,52.3411151 L774.608662,52.3850719 L774.517514,52.4294964 L774.426365,52.4743885 L774.245929,52.5651079 L774.15664,52.6114029 L774.067352,52.6581655 L773.978529,52.7053957 L773.890171,52.7530935 L773.802278,52.8017266 L773.71485,52.8503597 L773.627887,52.8994604 L773.541389,52.9490288 L773.455356,52.9995324 L773.370253,53.050036 L773.28515,53.1014748 L773.200977,53.1529137 L773.11727,53.2052878 L773.034027,53.2581295 L772.951715,53.3114388 L772.869867,53.3652158 L772.788484,53.4194604 L772.707567,53.4741727 L772.62758,53.5293525 L772.548057,53.5854676 L772.469465,53.6415827 L772.391338,53.6986331 L772.314141,53.7556835 L772.237409,53.8136691 L772.161607,53.8721223 L772.08627,53.9310432 L772.011863,53.9904317 L771.937921,54.0502878 L771.864909,54.1110791 L771.792828,54.1718705 L771.721211,54.2335971 L771.65099,54.2953237 L771.581233,54.3579856 L771.511942,54.4211151 L771.444046,54.4847122 L771.376614,54.548777 L771.310113,54.613777 L771.245007,54.678777 L771.180366,54.7447122 L771.116191,54.8111151 L771.05341,54.8779856 L770.991559,54.9453237 L770.930638,55.0131295 L770.870648,55.0814029 L770.811587,55.1501439 L770.753457,55.2198201 L770.696257,55.289964 L770.639987,55.3605755 L770.584647,55.4316547 L770.530237,55.5032014 L770.477222,55.5752158 L770.425137,55.6481655 L770.373982,55.7211151 L770.323758,55.795 L770.274463,55.8693525 L770.226564,55.9441727 L770.179594,56.0199281 L770.13402,56.0956835 L770.088911,56.1723741 L770.045197,56.2495324 L770.002878,56.3271583 L769.961024,56.4052518 L769.92103,56.4842806 L769.881502,56.563777 L769.843368,56.643741 L769.80663,56.7241727 L769.770357,56.8060072 L769.75315,56.846223 L769.735943,56.8869065 L769.70246,56.9692086 L769.686184,57.0108273 L769.654561,57.0940647 L769.639215,57.1356835 L769.623868,57.1777698 L769.608987,57.2198561 L769.59457,57.2624101 L769.566668,57.347518 L769.553182,57.3900719 L769.539695,57.4330935 L769.526674,57.4761151 L769.514118,57.5196043 L769.501562,57.5626259 L769.489471,57.6061151 L769.466219,57.6940288 L769.455523,57.7379856 L769.444362,57.7824101 L769.4239,57.871259 L769.414134,57.9156835 L769.404368,57.9605755 L769.395067,58.0059353 L769.386231,58.0508273 L769.37786,58.0961871 L769.36949,58.1420144 L769.361584,58.1878417 L769.346703,58.2794964 L769.339727,58.3257914 L769.333216,58.372554 L769.327171,58.4188489 L769.32159,58.4632734 L769.321125,58.4656115 L769.309964,58.5600719 L769.300663,58.6545324 L769.296013,58.7022302 L769.292293,58.7503957 L769.288572,58.7980935 L769.285317,58.8467266 L769.282527,58.8948921 L769.279736,58.9435252 L769.277876,58.9926259 L769.276016,59.041259 L769.274156,59.0903597 L769.272296,59.1894964 L769.271831,59.2395324 L769.271831,59.2891007 L769.272296,59.3396043 L769.272761,59.3896403 L769.273691,59.4406115 L769.275086,59.4911151 L769.276946,59.5420863 L769.279271,59.5935252 L769.281597,59.6444964 L769.284387,59.6964029 L769.287642,59.7478417 L769.291362,59.7997482 L769.299733,59.9044964 L769.304384,59.9573381 L769.309499,60.0101799 L769.31508,60.0620863 L769.321125,60.1116547 L769.327171,60.1607554 L769.334146,60.2098561 L769.341587,60.2589568 L769.349493,60.3085252 L769.357864,60.3576259 L769.367164,60.4071942 L769.37693,60.4572302 L769.387626,60.5067986 L769.398322,60.5568345 L769.409948,60.6068705 L769.42204,60.6573741 L769.448082,60.7583813 L769.462033,60.8088849 L769.476915,60.8598561 L769.491796,60.9103597 L769.507607,60.9617986 L769.523884,61.0127698 L769.540625,61.0642086 L769.575969,61.1670863 L769.59457,61.2189928 L769.614102,61.2704317 L769.633634,61.3228058 L769.654096,61.3747122 L769.675023,61.4270863 L769.696415,61.4789928 L769.718272,61.5318345 L769.741059,61.5842086 L769.764311,61.6370504 L769.788028,61.6898921 L769.81221,61.7427338 L769.837323,61.7955755 L769.8629,61.8488849 L769.888943,61.9021942 L769.91545,61.9555036 L769.942422,62.0088129 L769.970325,62.0625899 L769.998693,62.1163669 L770.027525,62.1701439 L770.056823,62.2239209 L770.086586,62.2781655 L770.117279,62.3319424 L770.148436,62.3861871 L770.180059,62.4404317 L770.212147,62.4951439 L770.2447,62.5493885 L770.277718,62.6041007 L770.311666,62.6588129 L770.34608,62.7135252 L770.380958,62.7682374 L770.416301,62.8234173 L770.452109,62.8785971 L770.488383,62.933777 L770.56279,63.0441367 L770.600923,63.0993165 L770.639522,63.154964 L770.678585,63.2106115 L770.718114,63.2657914 L770.758108,63.3219065 L770.798566,63.377554 L770.83949,63.4332014 L770.881344,63.4893165 L770.923198,63.544964 L771.008766,63.6571942 L771.05248,63.7133094 L771.096659,63.7694245 L771.141303,63.8260072 L771.185947,63.8821223 L771.231521,63.938705 L771.277095,63.9943525 L771.371034,64.1079856 L771.466368,64.2216187 L771.563562,64.3347842 L771.662616,64.4484173 L771.76353,64.562518 L771.866305,64.6766187 L771.970939,64.7907194 L772.077434,64.9052878 L772.185324,65.0198561 L772.295074,65.1344245 L772.406684,65.2489928 L772.520155,65.3640288 L772.63502,65.4790647 L772.751281,65.5941007 L772.869402,65.7091367 L772.989383,65.8246403 L773.110759,65.9401439 L773.23353,66.0556475 L773.358162,66.1711511 L773.484189,66.2866547 L773.508836,66.3091007 L773.557665,66.2609353 L773.743682,66.0771583 L773.925514,65.8957194 L774.103626,65.7166187 L774.277552,65.5407914 L774.446827,65.3682374 L774.612382,65.1980216 L774.773287,65.0315468 L774.929542,64.8678777 L775.081146,64.707482 L775.176479,64.6060072 L775.228564,64.551295 L775.371332,64.3988489 L775.508985,64.2496763 L775.641987,64.1042446 L775.706163,64.0331655 L775.768944,63.9630216 L775.830795,63.8938129 L775.890785,63.8255396 L775.949846,63.7586691 L776.007046,63.6922662 L776.063316,63.6272662 L776.117726,63.5632014 L776.171206,63.5000719 L776.222826,63.4383453 L776.27305,63.377554 L776.32188,63.3181655 L776.368849,63.2597122 L776.414888,63.2021942 L776.458602,63.1465468 L776.501386,63.0913669 L776.54231,63.0380576 L776.581374,62.9856835 L776.613927,62.9421942 L776.64648,62.8977698 L776.678103,62.8533453 L776.741348,62.7635612 L776.772506,62.7182014 L776.803199,62.6723741 L776.833427,62.6265468 L776.863655,62.5802518 L776.892952,62.5339568 L776.922715,62.4871942 L776.98038,62.3927338 L777.037116,62.2973381 L777.065018,62.2491727 L777.092456,62.2005396 L777.119428,62.1519065 L777.146401,62.1028058 L777.172908,62.053705 L777.224993,61.9545683 L777.25057,61.9045324 L777.275683,61.8544964 L777.30033,61.8039928 L777.324977,61.7530216 L777.349159,61.7020504 L777.373342,61.6506115 L777.396594,61.5991727 L777.419846,61.5472662 L777.442633,61.4953597 L777.464955,61.4434532 L777.487277,61.3906115 L777.509134,61.3382374 L777.530526,61.2849281 L777.551918,61.2320863 L777.57238,61.1783094 L777.592842,61.125 L777.612839,61.0707554 L777.632836,61.0169784 L777.651902,60.9627338 L777.670969,60.9080216 L777.689571,60.8533094 L777.708172,60.7981295 L777.726309,60.7429496 L777.777929,60.5760072 L777.810482,60.463777 L777.826293,60.4071942 L777.84164,60.3506115 L777.856986,60.2935612 L777.871868,60.2365108 L777.885819,60.1794604 L777.900235,60.1219424 L777.913721,60.0639568 L777.926743,60.0064388 L777.939764,59.9479856 L777.95232,59.89 L777.964411,59.8315468 L777.976037,59.7730935 L777.987663,59.7141727 L777.998824,59.6552518 L778.00952,59.5958633 L778.019751,59.5364748 L778.029517,59.4770863 L778.048119,59.3573741 L778.056955,59.297518 L778.065325,59.2371942 L778.073231,59.1768705 L778.080672,59.1165468 L778.088112,59.0557554 L778.095088,58.994964 L778.101134,58.9341727 L778.113225,58.8116547 L778.11834,58.7503957 L778.123456,58.6886691 L778.131826,58.5652158 L778.135547,58.5030216 L778.138802,58.4408273 L778.144383,58.3164388 L778.148103,58.1911151 L778.149498,58.1279856 L778.150428,58.0653237 L778.150893,58.0021942 L778.150893,57.8759353 L778.149033,57.748741 L778.147638,57.6851439 L778.145313,57.6215468 L778.140662,57.4934173 L778.137407,57.4293525 L778.133687,57.3652878 L778.129966,57.3007554 L778.125316,57.2366906 L778.120665,57.1721583 L778.11555,57.1076259 L778.109969,57.0426259 L778.103924,56.9780935 L778.097413,56.9130935 L778.093228,56.8738129 L778.090438,56.8480935 L778.083462,56.7830935 L778.076021,56.7180935 L778.068116,56.6526259 L778.059745,56.5876259 L778.050909,56.5221583 L778.032307,56.391223 L778.022076,56.3252878 L778.01138,56.2598201 L778.000684,56.1938849 L777.989523,56.1284173 L777.965341,55.9965468 L777.952785,55.9306115 L777.939764,55.8642086 L777.926278,55.7982734 L777.912326,55.7318705 L777.89791,55.6659353 L777.883029,55.5995324 L777.852336,55.4667266 L777.836059,55.4003237 L777.802576,55.267518 L777.784905,55.2011151 L777.767233,55.1342446 L777.730029,55.0014388 L777.710963,54.9345683 L777.690966,54.8681655 L777.670969,54.801295 L777.650507,54.7344245 L777.629115,54.667554 L777.607723,54.6011511 L777.585866,54.5342806 L777.563544,54.4674101 L777.540757,54.4005396 L777.517505,54.3336691 L777.493323,54.2672662 L777.46914,54.2003957 L777.444493,54.1335252 L777.419381,54.0666547 L777.393804,53.9997842 L777.367761,53.9329137 L777.341254,53.8660432 L777.314281,53.7991727 L777.286844,53.7327698 L777.258941,53.6658993 L777.230573,53.5990288 L777.201741,53.5321583 L777.172443,53.4657554 L777.14268,53.3988849 L777.112453,53.3320144 L777.08176,53.2656115 L777.050137,53.198741 L777.018514,53.1323381 L776.986426,53.0659353 L776.953873,52.9990647 L776.920855,52.9326619 L776.887372,52.866259 L776.818546,52.7334532 L776.783667,52.6670504 L776.747859,52.6006475 L776.712051,52.5347122 L776.675777,52.4683094 L776.638574,52.4023741 L776.601371,52.3359712 L776.525104,52.2041007 L776.48604,52.1381655 L776.446511,52.0726978 L776.366524,51.9408273 L776.3256,51.8753597 L776.284211,51.8098921 L776.242358,51.7444245 L776.213525,51.6995324 L776.202829,51.703741 Z M773.893426,60.5755396 C772.866082,60.5755396 772.033255,59.7380866 772.033255,58.705036 C772.033255,57.6719854 772.866082,56.8345324 773.893426,56.8345324 C774.92077,56.8345324 775.753598,57.6719854 775.753598,58.705036 C775.753598,59.7380866 774.92077,60.5755396 773.893426,60.5755396 Z M778.309728,86.7875414 C778.295918,86.4022385 778.597751,86.0787177 778.983892,86.0649374 C779.370032,86.0511571 779.694256,86.3523356 779.708066,86.7376385 C779.70971,86.7834927 779.712539,86.8705157 779.716157,86.9955755 C779.722162,87.2031192 779.728161,87.4424225 779.733756,87.7103558 C779.786452,90.2339847 779.767193,93.0027044 779.624192,95.6151265 C779.368052,100.294445 778.791223,103.404216 777.645332,104.556472 C777.373171,104.830145 776.930202,104.831849 776.655934,104.560278 C776.381665,104.288706 776.379958,103.846698 776.652119,103.573025 C777.440846,102.779917 777.993889,99.7983797 778.227043,95.5389797 C778.36782,92.9671775 778.386854,90.2309537 778.334828,87.7394407 C778.329312,87.4753204 778.323407,87.2397466 778.317508,87.0358668 C778.313985,86.9140724 778.311259,86.8302489 778.309728,86.7875414 Z M773.659027,88.6486727 C773.650405,88.2632195 773.956565,87.9437729 774.342856,87.9351688 C774.729147,87.9265646 775.049288,88.2320612 775.057911,88.6175144 C775.060654,88.740165 775.064737,88.9683938 775.06881,89.2872574 C775.09759,91.5405406 775.076529,94.070922 774.968024,96.4677063 C774.767878,100.888739 774.350532,103.66094 773.459947,104.556472 C773.187785,104.830145 772.744816,104.831849 772.470548,104.560278 C772.19628,104.288706 772.194572,103.846698 772.466734,103.573025 C772.97959,103.05732 773.393518,100.30782 773.570218,96.4047 C773.677303,94.039289 773.698157,91.5336908 773.669692,89.3050501 C773.665678,88.9907991 773.661675,88.7670058 773.659027,88.6486727 Z"></path>
                </g>
            </g>
        </g>
    </g>
</svg>