
<svg width="53px" height="65px" viewBox="0 0 53 65" version="1.1" xmlns="http://www.w3.org/2000/svg" xmlns:xlink="http://www.w3.org/1999/xlink">
    <g id="home" stroke="none" stroke-width="1" fill="none" fill-rule="evenodd">
        <g id="Школа" transform="translate(-256.000000, -15.000000)" fill="#1B273D">
            <g id="Group" transform="translate(256.000000, 15.000000)">
                <path d="M7.35875096,45.8948213 L7.3569774,45.9648201 L7.35279201,46.1125899 L7.34767654,46.261295 L7.34163098,46.4104676 L7.33512038,46.5605755 L7.3276797,46.7111511 L7.31930893,46.8626619 L7.31047312,47.0146403 L7.30117226,47.167554 L7.29094132,47.3214029 L7.27978029,47.4757194 L7.26861926,47.6305036 L7.25652815,47.786223 L7.25094763,47.8568345 L7.24304191,47.9419424 L7.22769549,48.0985971 L7.21234908,48.2557194 L7.19653762,48.4133094 L7.16305454,48.7303597 L7.14584796,48.8898201 L7.10957462,49.2092086 L7.07237119,49.5304676 L7.03377264,49.8531295 L6.99377896,50.1771942 L6.94680963,50.555036 L6.91007125,50.8285971 L6.82078303,51.4828058 L6.73056472,52.1388849 L6.68592061,52.4671583 L6.6412765,52.794964 L6.59709743,53.1227698 L6.55384845,53.4501079 L6.51152955,53.7769784 L6.47014074,54.1029137 L6.42968202,54.427446 L6.39108346,54.7515108 L6.37201671,54.9123741 L6.35341499,55.0732374 L6.33574337,55.2341007 L6.31807174,55.3940288 L6.30086516,55.5539568 L6.26831216,55.8719424 L6.25296574,56.03 L6.23808437,56.1875899 L6.22366805,56.3447122 L6.20971676,56.5013669 L6.19669556,56.6570863 L6.19297522,56.7010432 L6.18367436,56.8128058 L6.17111821,56.9671223 L6.1590271,57.1214388 L6.14786607,57.2743525 L6.13763513,57.4272662 L6.12786923,57.578777 L6.11903341,57.7298201 L6.11066264,57.8803957 L6.103687,58.0295683 L6.0971764,58.1782734 L6.09159589,58.3260432 L6.08694546,58.4733453 L6.08322512,58.6192446 L6.0808999,58.7642086 L6.07903973,58.908705 L6.07810964,59.0517986 L6.07810964,59.1939568 L6.07950477,59.3351799 L6.08182999,59.475 L6.08508529,59.6143525 L6.08973572,59.7523022 L6.09531623,59.8893165 L6.10182683,60.0249281 L6.10973256,60.1596043 L6.11903341,60.2933453 L6.12926435,60.4252158 L6.14042538,60.5566187 L6.14693598,60.6216187 L6.15995718,60.7506835 L6.17483855,60.8788129 L6.19065001,61.0050719 L6.19902078,61.0682014 L6.20785659,61.1303957 L6.2264583,61.2547842 L6.23668925,61.3160432 L6.24645515,61.3773022 L6.25715113,61.4380935 L6.26784711,61.4984173 L6.27947319,61.558741 L6.29109926,61.6181295 L6.30272533,61.6779856 L6.31528148,61.7369065 L6.32783764,61.7953597 L6.34085884,61.8538129 L6.35434508,61.9117986 L6.36783132,61.9693165 L6.38224765,62.0268345 L6.39666398,62.0834173 L6.41154535,62.14 L6.42689176,62.1961151 L6.44270321,62.2517626 L6.47525621,62.3621223 L6.4924628,62.4168345 L6.50966938,62.4706115 L6.52734101,62.5248561 L6.54547768,62.5781655 L6.5826811,62.6838489 L6.6217447,62.7876619 L6.64220658,62.8391007 L6.66266847,62.8900719 L6.68406044,62.9405755 L6.70545241,62.9906115 L6.72730942,63.0406475 L6.74963148,63.0897482 L6.77241857,63.1388489 L6.79567071,63.187482 L6.8193879,63.2351799 L6.84357012,63.2828777 L6.86821739,63.3301079 L6.89332971,63.3768705 L6.91890706,63.4231655 L6.9454145,63.4694604 L6.97192194,63.5148201 L6.99889443,63.5597122 L7.02633195,63.6041367 L7.05423452,63.6485612 L7.08260213,63.6920504 L7.11189983,63.7355396 L7.14119753,63.7780935 L7.17096027,63.8206475 L7.2016531,63.8622662 L7.23281096,63.9038849 L7.26396883,63.9445683 L7.29605679,63.9852518 L7.31279833,64.0053597 L7.32860979,64.025 L7.36162783,64.0647482 L7.30582269,64.0114388 L7.28722097,63.9932014 L7.25094763,63.9567266 L7.21467429,63.9193165 L7.178866,63.8814388 L7.14352274,63.8430935 L7.10864453,63.8038129 L7.07423136,63.7640647 L7.04028324,63.7243165 L6.97331707,63.6420144 L6.94076407,63.6003957 L6.90821108,63.5578417 L6.87612312,63.5148201 L6.84450021,63.4713309 L6.81334234,63.4273741 L6.78264952,63.3829496 L6.75195669,63.3375899 L6.72172891,63.2922302 L6.69243121,63.2459353 L6.66313351,63.1991727 L6.63430086,63.1519424 L6.6054682,63.1042446 L6.57756563,63.0560791 L6.54966306,63.007446 L6.52222554,62.9578777 L6.49525305,62.9083094 L6.46874561,62.8582734 L6.41666082,62.7563309 L6.39108346,62.7044245 L6.36597115,62.6520504 L6.34132388,62.5996763 L6.29295943,62.4930576 L6.26924224,62.4388129 L6.2459901,62.3845683 L6.223203,62.3293885 L6.20041591,62.273741 L6.17809385,62.2180935 L6.15623684,62.1619784 L6.1134529,62.0478777 L6.09252597,61.9903597 L6.07206409,61.9323741 L6.05206725,61.8739209 L6.03207041,61.815 L6.01253861,61.7556115 L5.9744051,61.6358993 L5.95626843,61.5751079 L5.93766671,61.5143165 L5.91999509,61.4530576 L5.90232346,61.3913309 L5.88511687,61.3291367 L5.85163379,61.2038129 L5.83535729,61.1406835 L5.81954584,61.0766187 L5.80373438,61.0130216 L5.78838797,60.9484892 L5.77304156,60.8834892 L5.75816019,60.8184892 L5.74374386,60.7530216 L5.72979257,60.687554 L5.71584129,60.6211511 L5.68886881,60.4878777 L5.66282641,60.3532014 L5.63817914,60.2171223 L5.61446195,60.0801079 L5.5921399,59.941223 L5.57028289,59.8014029 L5.549821,59.6606475 L5.5302892,59.5184892 L5.51168749,59.3749281 L5.49401586,59.2304317 L5.47773937,59.085 L5.46192791,58.9386331 L5.44704654,58.7908633 L5.43309525,58.6421583 L5.42007406,58.492518 L5.40798294,58.3419424 L5.39682191,58.1904317 L5.38612593,58.0379856 L5.37636003,57.8846043 L5.36705917,57.7302878 L5.3586884,57.5755036 L5.35124772,57.4197842 L5.34427208,57.2631295 L5.33822652,57.1060072 L5.33264601,56.9479496 L5.32799558,56.7894245 L5.32474028,56.6748561 L5.32381019,56.6304317 L5.32101994,56.4705036 L5.31869472,56.3101079 L5.31683455,56.1492446 L5.31497438,55.8256475 L5.31497438,55.6629137 L5.31543942,55.5001799 L5.31729959,55.1728417 L5.32101994,54.8445683 L5.32334515,54.6794964 L5.32939071,54.3493525 L5.33683139,54.0178058 L5.34473712,53.6857914 L5.35403798,53.3533094 L5.37449986,52.6883453 L5.38566089,52.3553957 L5.39728696,52.0233813 L5.42007406,51.3616906 L5.44239611,50.7042086 L5.45123192,50.4301799 L5.4530921,50.3778058 L5.46564825,50.0532734 L5.47680928,49.7310791 L5.48750526,49.4107554 L5.49680612,49.0932374 L5.50471185,48.7780576 L5.50796715,48.6218705 L5.51122245,48.4666187 L5.51354766,48.3118345 L5.51587288,48.1579856 L5.51773305,48.0046043 L5.51912818,47.8526259 L5.51959322,47.7703237 L5.52098835,47.7015827 L5.52284852,47.5514748 L5.52470869,47.4023022 L5.52563878,47.2540647 L5.52610382,47.1072302 L5.52610382,46.9613309 L5.52563878,46.8163669 L5.52424365,46.6728058 L5.52238348,46.5301799 L5.51959322,46.3889568 L5.51633792,46.2486691 L5.51261758,46.1102518 L5.50796715,45.9727698 L5.50238663,45.8366906 L5.50099151,45.8034892 L5.49959638,45.7038849 L5.49680612,45.5738849 L5.49308578,45.446223 L5.48843535,45.3213669 L5.48518005,45.2428058 L5.48331988,45.1988489 L5.47680928,45.0782014 L5.46936859,44.9603597 L5.46146287,44.8448561 L5.45705039,44.7909467 L5.42611961,44.8902158 L5.36938439,45.0711871 L5.31125404,45.2530935 L5.2847466,45.3344604 L5.25172856,45.4368705 L5.19127299,45.6220504 L5.12895725,45.8086331 L5.08477818,45.940036 L5.0643163,45.9961511 L4.99409483,46.1836691 L4.92294328,46.3725899 L4.84993156,46.5633813 L4.77598975,46.7555755 L4.70065281,46.9491727 L4.62392075,47.1441727 L4.54579356,47.3405755 L4.46673628,47.5369784 L4.39977011,47.7039209 L4.33466412,47.8685252 L4.30583146,47.9424101 L4.27002316,48.031259 L4.2063123,48.1930576 L4.14399656,48.3539209 L4.08261091,48.5138489 L4.02308543,48.6728417 L3.96495508,48.8313669 L3.90821985,48.9884892 L3.85241471,49.1451439 L3.79846975,49.3008633 L3.74591991,49.4556475 L3.69430015,49.6094964 L3.64407553,49.7628777 L3.59524603,49.9153237 L3.54781167,50.0668345 L3.50177243,50.2178777 L3.45666327,50.3679856 L3.41294925,50.5171583 L3.40504352,50.5438129 L3.36923522,50.6658633 L3.32691633,50.8131655 L3.28552752,50.9604676 L3.24553383,51.1068345 L3.20647024,51.2522662 L3.16880177,51.3976978 L3.13206339,51.5417266 L3.09672013,51.6857554 L3.06230696,51.8288489 L3.02882388,51.9714748 L2.99673593,52.1136331 L2.96557806,52.2548561 L2.93535027,52.3956115 L2.90605258,52.5358993 L2.87815001,52.6757194 L2.85117752,52.8150719 L2.82513513,52.9539568 L2.80002281,53.0923741 L2.77584059,53.2298561 L2.75258845,53.3673381 L2.73026639,53.5038849 L2.70887442,53.6404317 L2.68841254,53.7765108 L2.66888074,53.9116547 L2.65027903,54.0467986 L2.6326074,54.1814748 L2.61540081,54.3156835 L2.59958936,54.4498921 L2.58424295,54.5831655 L2.56982662,54.7164388 L2.55587533,54.8492446 L2.54285413,54.9820504 L2.53076302,55.1139209 L2.51960199,55.2457914 L2.50890601,55.3776619 L2.49867507,55.5090647 L2.48983925,55.64 L2.48100344,55.7704676 L2.47309771,55.9009353 L2.46612207,56.0314029 L2.45961147,56.1614029 L2.45356591,56.2909353 L2.44845044,56.4204676 L2.44380001,56.55 L2.43961463,56.6790647 L2.43635933,56.8081295 L2.4349642,56.8576978 L2.43263899,56.9371942 L2.42984873,57.0657914 L2.42752352,57.1943885 L2.4251983,57.322518 L2.42380317,57.4511151 L2.42287309,57.5792446 L2.42240804,57.7073741 L2.42240804,57.835036 L2.42287309,57.9631655 L2.42380317,58.0908273 L2.4251983,58.2184892 L2.42891864,58.4738129 L2.4317089,58.6014748 L2.43449916,58.7286691 L2.4414748,58.9839928 L2.44938053,59.2393165 L2.45868138,59.4946403 L2.46891233,59.749964 L2.4805384,60.0052878 L2.49262951,60.2610791 L2.50518567,60.5173381 L2.51867191,60.7740647 L2.54657448,61.2889209 L2.57540713,61.8065827 L2.60377474,62.327518 L2.61819107,62.5893885 L2.63167731,62.8521942 L2.64469851,63.1159353 L2.65725467,63.3810791 L2.66888074,63.6471583 L2.67957672,63.9151079 L2.68934262,64.1839928 L2.69817844,64.4542806 L2.70515408,64.7264388 L2.70840938,64.8629856 L2.70980451,64.9186331 L2.71119963,65 L2.70050365,64.9195683 L2.69352801,64.8639209 L2.67585638,64.728777 L2.63958304,64.4594245 L2.60237962,64.1914748 L2.5642461,63.9253957 L2.52518251,63.6611871 L2.48565387,63.3979137 L2.44519514,63.1365108 L2.40427137,62.8760432 L2.36288256,62.6165108 L2.32149375,62.3583813 L2.23778605,61.8439928 L2.15407834,61.3319424 L2.07130072,60.8222302 L2.03084199,60.5673741 L1.99084831,60.3129856 L1.95131967,60.0585971 L1.91272111,59.803741 L1.87505265,59.5488849 L1.83831426,59.2935612 L1.80297101,59.0377698 L1.76855784,58.7815108 L1.7518163,58.6529137 L1.7355398,58.5243165 L1.71972834,58.3957194 L1.70438193,58.2666547 L1.68903552,58.1371223 L1.67415415,58.0075899 L1.66020286,57.8780576 L1.64625158,57.7480576 L1.63276534,57.6175899 L1.61974414,57.4871223 L1.60718798,57.3561871 L1.59509687,57.2252518 L1.57277481,56.9615108 L1.56626421,56.8801439 L1.56254387,56.8296403 L1.54487224,56.5640288 L1.53696652,56.4302878 L1.52952583,56.2965468 L1.52255019,56.1623381 L1.51650463,56.0276619 L1.51092412,55.892518 L1.50580865,55.7573741 L1.50162326,55.621295 L1.49836796,55.4847482 L1.49511266,55.3477338 L1.49325249,55.2102518 L1.49185736,55.0723022 L1.49139232,54.9338849 L1.49139232,54.7945324 L1.49232241,54.6551799 L1.49371753,54.5148921 L1.49650779,54.3741367 L1.49976309,54.2329137 L1.50394848,54.091223 L1.50906395,53.9485971 L1.51464446,53.8055036 L1.5216201,53.6614748 L1.52906079,53.517446 L1.5378966,53.372482 L1.54719746,53.2265827 L1.5574284,53.0802158 L1.56905447,52.9329137 L1.58114558,52.7851439 L1.59463183,52.6369065 L1.60904815,52.4877338 L1.62439457,52.3376259 L1.64067107,52.1870504 L1.65787765,52.0355396 L1.67647936,51.8835612 L1.69601116,51.7306475 L1.71647305,51.5767986 L1.73833006,51.422482 L1.76111716,51.2672302 L1.78483434,51.1110432 L1.80994665,50.9539209 L1.83645409,50.7963309 L1.86389162,50.6373381 L1.89225923,50.4778777 L1.92202197,50.317482 L1.94759933,50.1856115 L1.95317984,50.1566187 L1.98666292,49.9948201 L2.02107609,49.8320863 L2.05688439,49.6684173 L2.09408781,49.5038129 L2.13222133,49.3382734 L2.17221501,49.1717986 L2.21313878,49.0048561 L2.25545767,48.8365108 L2.29870665,48.6672302 L2.34381581,48.4970144 L2.39032009,48.3258633 L2.43775446,48.153777 L2.487049,47.9807554 L2.53773866,47.8063309 L2.58935842,47.6309712 L2.64283834,47.4551439 L2.67306612,47.3583453 L2.69864348,47.2779137 L2.75677383,47.1002158 L2.81583427,46.9234532 L2.88233539,46.7247122 L2.94697634,46.5297122 L3.00975712,46.3361151 L3.07160782,46.1448561 L3.13252843,45.9545324 L3.19158887,45.7665468 L3.24971922,45.5794964 L3.30645444,45.3947842 L3.32319598,45.3396043 L3.36597992,45.2128777 L3.42550541,45.0328417 L3.4841008,44.8546763 L3.51572371,44.7560072 L3.54130107,44.6779137 L3.59710621,44.5030216 L3.65198126,44.3290647 L3.70499614,44.1569784 L3.73243367,44.0681295 L3.75847606,43.9872302 L3.81195599,43.8188849 L3.86357574,43.6519424 L3.91473045,43.4868705 L3.96402499,43.3227338 L4.01238944,43.1604676 L4.05982381,42.9996043 L4.10539801,42.8401439 L4.15050716,42.6820863 L4.19422118,42.5254317 L4.21514811,42.448741 L4.23747017,42.3706475 L4.28118419,42.2172662 L4.32350309,42.0652878 L4.36442686,41.9147122 L4.40442054,41.7655396 L4.44348414,41.6177698 L4.4811526,41.4714029 L4.51789099,41.3259712 L4.54919401,41.198407 L4.539748,41.1777338 L4.47371192,41.0369784 L4.40628071,40.8966906 L4.33745437,40.755 L4.26723291,40.6119065 L4.12260459,40.3191727 L4.04866278,40.1695324 L3.97332585,40.017554 L3.89752387,39.8618345 L3.87055138,39.8061871 L3.82172189,39.7028417 L3.74638495,39.5410432 L3.67011793,39.3736331 L3.63198442,39.2889928 L3.59385091,39.2029496 L3.55571739,39.1159712 L3.51804893,39.0280576 L3.47991541,38.938741 L3.44224695,38.8480216 L3.40457848,38.7563669 L3.36691001,38.6633094 L3.32970658,38.5693165 L3.29250316,38.4734532 L3.25576478,38.3766547 L3.21902639,38.2779856 L3.18275305,38.1783813 L3.14647971,38.0773741 L3.11067142,37.9744964 L3.07486312,37.8702158 L3.03998491,37.7640647 L3.0051067,37.6569784 L2.97069353,37.547554 L2.9367454,37.4371942 L2.90279728,37.3244964 L2.86977924,37.2103957 L2.8367612,37.0944245 L2.80467324,36.9765827 L2.77305033,36.8568705 L2.74142742,36.7357554 L2.71073459,36.6123022 L2.68050681,36.4869784 L2.65120911,36.3593165 L2.62191141,36.2302518 L2.5935438,36.0988489 L2.56564123,35.9651079 L2.53820371,35.8294964 L2.51169627,35.6915468 L2.48565387,35.551259 L2.46007651,35.4091007 L2.43542924,35.2646043 L2.41171206,35.1173022 L2.38845992,34.9681295 L2.36567282,34.8161511 L2.34381581,34.6618345 L2.32288888,34.5051799 L2.302427,34.3457194 L2.2828952,34.1839209 L2.26429349,34.0193165 L2.26243331,34.0038849 L2.24476169,33.8523741 L2.22569493,33.6826259 L2.20755826,33.5100719 L2.19035168,33.3347122 L2.17361014,33.1570144 L2.15826372,32.9755755 L2.14338235,32.7913309 L2.13454654,32.6716187 L2.12664081,32.5523741 L2.11966517,32.4331295 L2.11361961,32.3148201 L2.10850414,32.1965108 L2.1047838,32.0786691 L2.1015285,31.961295 L2.09966833,31.8443885 L2.0982732,31.7279496 L2.09780816,31.6115108 L2.09873824,31.4960072 L2.10013337,31.3805036 L2.10292363,31.2659353 L2.1047838,31.1953237 L2.10617893,31.1513669 L2.10989927,31.0372662 L2.11501474,30.9236331 L2.12059525,30.8104676 L2.12710585,30.6977698 L2.13454654,30.5850719 L2.14291731,30.4733094 L2.15221817,30.3615468 L2.16198407,30.2502518 L2.17314509,30.1394245 L2.18477116,30.0290647 L2.19732732,29.9191727 L2.21034852,29.8097482 L2.22476485,29.7003237 L2.23964622,29.5913669 L2.25499263,29.4833453 L2.27173417,29.3753237 L2.27591956,29.3486691 L2.28801067,29.2673022 L2.30521725,29.1602158 L2.32288888,29.0531295 L2.34149059,28.9465108 L2.36102239,28.8403597 L2.38101923,28.7342086 L2.40194616,28.6285252 L2.42333813,28.523777 L2.44035504,28.4439236 L2.39357539,28.3573022 L2.31777341,28.2151439 L2.24243647,28.0715827 L2.16709954,27.9266187 L2.09315773,27.7807194 L2.0754861,27.7456475 L2.01410045,27.636223 L1.93457813,27.491259 L1.89504949,27.4173741 L1.85552085,27.3439568 L1.77739365,27.1952518 L1.73833006,27.119964 L1.6997315,27.0446763 L1.62346448,26.8922302 L1.58533097,26.8150719 L1.54812754,26.7379137 L1.51045908,26.6598201 L1.47372069,26.581259 L1.43698231,26.5022302 L1.40024393,26.4227338 L1.36397059,26.3427698 L1.32816229,26.2623381 L1.29281904,26.1809712 L1.25747578,26.0991367 L1.22259757,26.0168345 L1.15377123,25.8503597 L1.12028815,25.7661871 L1.08680507,25.6810791 L1.05378703,25.5955036 L1.02123403,25.5094604 L0.988681033,25.4229496 L0.957058122,25.3355036 L0.936131195,25.277518 L0.92543521,25.2471223 L0.893812298,25.158741 L0.832426646,24.9791727 L0.802198863,24.8884532 L0.772436122,24.7967986 L0.743603468,24.7046763 L0.714770813,24.6116187 L0.686403201,24.5176259 L0.658965675,24.4231655 L0.631528148,24.3277698 L0.605020708,24.2319065 L0.578513267,24.1346403 L0.552935912,24.0369065 L0.5278236,23.938705 L0.503641373,23.8391007 L0.479459146,23.7390288 L0.456207005,23.6380216 L0.433419907,23.5360791 L0.411097852,23.4336691 L0.38924084,23.3298561 L0.368313913,23.2255755 L0.347852029,23.1198921 L0.32832023,23.013741 L0.309253475,22.9066547 L0.290651762,22.7986331 L0.272515092,22.6896763 L0.255308508,22.5797842 L0.239032009,22.4689568 L0.22275551,22.3571942 L0.20787414,22.2444964 L0.19299277,22.1308633 L0.179506528,22.016295 L0.166020286,21.9003237 L0.153929173,21.7838849 L0.14183806,21.6665108 L0.131142075,21.5482014 L0.119981047,21.4242806 L0.109750105,21.3008273 L0.0995191633,21.1783094 L0.0953337779,21.125 L0.0902183069,21.0567266 L0.0818475362,20.9351439 L0.0660360803,20.6938489 L0.059060438,20.5741367 L0.0520847957,20.4548921 L0.0455741963,20.3361151 L0.0395286396,20.2182734 L0.0344131686,20.1004317 L0.0292976976,19.9835252 L0.0241822266,19.8670863 L0.0199968412,19.7511151 L0.0162764987,19.6356115 L0.0130211989,19.5205755 L0.0097658992,19.4060072 L0.00697564229,19.2923741 L0.00325529973,19.0660432 L0.00186017128,18.9538129 L0.000930085638,18.8420504 L0,18.7307554 L0,18.6203957 L0,18.510036 L0.000930085638,18.4001439 L0.00186017128,18.2911871 L0.00325529973,18.1826978 L0.00511547101,18.0742086 L0.0074406851,17.9666547 L0.010230942,17.8595683 L0.0130211989,17.7529496 L0.0162764987,17.6467986 L0.0199968412,17.5411151 L0.0241822266,17.4363669 L0.0288326548,17.3316187 L0.0339481258,17.2273381 L0.0390635968,17.1239928 L0.0451091534,17.0206475 L0.0511547101,16.9182374 L0.0576653096,16.816295 L0.0646409518,16.7143525 L0.0665011231,16.6886331 L0.0725466798,16.6133453 L0.0813824933,16.5132734 L0.0906833497,16.4132014 L0.100449249,16.3135971 L0.110215148,16.2144604 L0.12044609,16.116259 L0.131142075,16.0180576 L0.15346413,15.8235252 L0.165555244,15.7271942 L0.177646357,15.6313309 L0.190202513,15.5354676 L0.202758669,15.4405396 L0.229731153,15.2516187 L0.243682437,15.1580935 L0.257633722,15.065036 L0.272515092,14.972446 L0.287396462,14.8803237 L0.302742875,14.7886691 L0.31018356,14.7456475 L0.319019374,14.697482 L0.354362628,14.5169784 L0.372499298,14.4276619 L0.391101011,14.3383453 L0.409702724,14.249964 L0.428769479,14.1620504 L0.448301278,14.0746043 L0.468298119,13.9871583 L0.484109575,13.9188849 L0.48829496,13.9006475 L0.509221887,13.8146043 L0.530148814,13.7290288 L0.552005826,13.6439209 L0.573862839,13.5592806 L0.595719851,13.4751079 L0.618041907,13.3914029 L0.640829005,13.3086331 L0.664081146,13.2258633 L0.666871402,13.2155755 L0.689193458,13.1440288 L0.714770813,13.0626619 L0.740813211,12.9822302 L0.767320651,12.9017986 L0.820335533,12.7428058 L0.875210585,12.5856835 L0.931015724,12.4304317 L0.959383336,12.353741 L0.987750948,12.277518 L1.0165836,12.201295 L1.0458813,12.1260072 L1.075179,12.0511871 L1.10494174,11.9763669 L1.13470448,11.902482 L1.16493226,11.8290647 L1.19562509,11.7556475 L1.22631791,11.6831655 L1.25747578,11.6106835 L1.28863365,11.5391367 L1.32025656,11.4680576 L1.35234452,11.3969784 L1.38443247,11.3268345 L1.41233504,11.2669784 L1.41698547,11.2571583 L1.45046855,11.1879496 L1.48395164,11.1192086 L1.5183648,11.0514029 L1.55231293,10.9835971 L1.5867261,10.9167266 L1.62160431,10.8498561 L1.65648252,10.7834532 L1.72716903,10.652518 L1.76297733,10.587518 L1.79925067,10.5229856 L1.83505896,10.4593885 L1.87179735,10.3957914 L1.90807069,10.3326619 L1.94527411,10.27 L1.98247754,10.2078058 L2.01968096,10.1460791 L2.05734943,10.0848201 L2.0950179,10.0240288 L2.13315141,9.96370504 L2.17128492,9.90384892 L2.20941843,9.84446043 L2.24848203,9.78553957 L2.28708058,9.72708633 L2.32614418,9.66863309 L2.40520146,9.55359712 L2.4447301,9.49701439 L2.48472378,9.44043165 L2.52471746,9.38478417 L2.56517619,9.32913669 L2.60563492,9.27395683 L2.68748245,9.16546763 L2.72840622,9.11169065 L2.76979503,9.05838129 L2.7944423,9.02658273 L2.81164888,9.00553957 L2.85350274,8.95316547 L2.89582163,8.90172662 L2.93860557,8.85028777 L2.98138951,8.79931655 L3.06695739,8.6992446 L3.11020637,8.64967626 L3.1539204,8.60057554 L3.19716938,8.55194245 L3.24088341,8.50330935 L3.28506247,8.45561151 L3.37342061,8.36115108 L3.41759968,8.31485612 L3.46224379,8.26856115 L3.5068879,8.22273381 L3.55153201,8.1773741 L3.59664116,8.13248201 L3.68685947,8.04363309 L3.77800786,7.95665468 L3.82358206,7.91410072 L3.8696213,7.87154676 L3.91566054,7.82946043 L4.00773901,7.74622302 L4.10074758,7.66485612 L4.14725186,7.62510791 L4.19422118,7.58535971 L4.28815983,7.50679856 L4.33605924,7.46798561 L4.42999789,7.39269784 L4.52486663,7.31834532 L4.62020041,7.24539568 L4.71599923,7.17431655 L4.81272813,7.10464029 L4.908992,7.03636691 L5.00618595,6.9694964 L5.10384494,6.90402878 L5.20150393,6.84043165 L5.29962797,6.77776978 L5.397752,6.71697842 L5.49634108,6.6571223 L5.5953952,6.59913669 L5.69491436,6.54255396 L5.79396848,6.48690647 L5.89395269,6.4331295 L5.99393689,6.38028777 L6.0939211,6.32884892 L6.19437035,6.27881295 L6.2948196,6.23017986 L6.39573389,6.18294964 L6.49618314,6.13665468 L6.59756247,6.09176259 L6.69847677,6.04827338 L6.7998561,6.00571942 L6.90077039,5.96456835 L7.00214973,5.92482014 L7.1039941,5.88600719 L7.20537344,5.84859712 L7.30675277,5.8121223 L7.40859715,5.77658273 L7.50997648,5.74244604 L7.61182086,5.70971223 L7.68808788,5.68539568 L7.71366524,5.67791367 L7.81550962,5.64751799 L7.91735399,5.61852518 L8.01873333,5.59093525 L8.12057771,5.56381295 L8.22242208,5.53809353 L8.32380142,5.51330935 L8.42518075,5.48946043 L8.52656009,5.46654676 L8.62747438,5.44503597 L8.72885371,5.42399281 L8.82976801,5.40388489 L8.93021725,5.38517986 L9.03113155,5.36694245 L9.13158079,5.34964029 L9.231565,5.33374101 L9.33154921,5.31830935 L9.43153341,5.30381295 L9.53105258,5.2902518 L9.63057174,5.27715827 L9.72962586,5.265 L9.92680402,5.24348921 L10.0253931,5.23413669 L10.0594005,5.23104274 L10.0263232,5.13406475 L9.98725958,5.02136691 L9.9472659,4.91007194 L9.90727222,4.7992446 L9.86634845,4.68935252 L9.82542468,4.58039568 L9.78357083,4.4723741 L9.74171697,4.36482014 L9.69939808,4.25866906 L9.65661414,4.15345324 L9.6138302,4.04870504 L9.57058122,3.94535971 L9.52686719,3.84294964 L9.48315317,3.74147482 L9.4389741,3.64093525 L9.39479503,3.54179856 L9.35061596,3.4431295 L9.30597185,3.34586331 L9.26132774,3.25 L9.21668363,3.15460432 L9.17203952,3.06061151 L9.12739541,2.96802158 L9.0827513,2.87589928 L9.03764215,2.78564748 L8.99299803,2.69586331 L8.94835392,2.60794964 L8.90370981,2.52097122 L8.85953075,2.43492806 L8.81535168,2.35028777 L8.77117261,2.26705036 L8.72699354,2.1847482 L8.68327952,2.10384892 L8.64003053,2.02435252 L8.59678155,1.94625899 L8.55399761,1.86910072 L8.51167872,1.79381295 L8.46935982,1.71946043 L8.38611716,1.57496403 L8.30473466,1.43607914 L8.22521234,1.30280576 L8.14801523,1.17514388 L8.07314334,1.05402878 L8.00059666,0.93852518 L7.93084024,0.829100719 L7.86433911,0.725755396 L7.80109329,0.628956835 L7.74110277,0.538705036 L7.68436754,0.455 L7.6318177,0.377841727 L7.58345325,0.307697842 L7.53880914,0.244100719 L7.4992805,0.187985612 L7.46393725,0.138884892 L7.40813211,0.0621942446 L7.40487681,0.0584532374 L7.37371894,0.0158992806 L7.36162783,0 L7.37557911,0.014028777 L7.41185245,0.0523741007 L7.41557279,0.0561151079 L7.48021374,0.125323741 L7.52113751,0.170215827 L7.56717675,0.22118705 L7.61926155,0.279172662 L7.67599677,0.34323741 L7.73738242,0.413848921 L7.80388355,0.490539568 L7.87457005,0.573309353 L7.94944195,0.662158273 L8.02803419,0.757086331 L8.11081181,0.858093525 L8.19684473,0.965179856 L8.28659799,1.07741007 L8.37914151,1.19571942 L8.47494033,1.31964029 L8.57306437,1.44917266 L8.67397866,1.58431655 L8.72513337,1.65352518 L8.77721817,1.72460432 L8.82930296,1.79661871 L8.88231784,1.87003597 L8.93579777,1.94485612 L8.98927769,2.02107914 L9.04322266,2.09823741 L9.09809771,2.17726619 L9.15297276,2.25723022 L9.20784782,2.3381295 L9.26365296,2.42089928 L9.31945809,2.50460432 L9.37526323,2.5892446 L9.43153341,2.6757554 L9.48780359,2.76320144 L9.54453882,2.85158273 L9.60127404,2.94136691 L9.65800927,3.03255396 L9.71520953,3.12467626 L9.77194476,3.21773381 L9.82914502,3.31266187 L9.88588025,3.40805755 L9.94308051,3.50485612 L10.0002808,3.60305755 L10.057016,3.70219424 L10.1137512,3.80226619 L10.1704865,3.90374101 L10.2267566,4.00615108 L10.2830268,4.1094964 L10.339297,4.2142446 L10.3951021,4.31992806 L10.4509073,4.42654676 L10.5062474,4.53456835 L10.5611224,4.64305755 L10.6155324,4.75341727 L10.6699424,4.8642446 L10.7238874,4.97600719 L10.7773673,5.08917266 L10.8211392,5.18338019 L10.8954882,5.18082734 L10.9903569,5.17848921 L11.0852257,5.17661871 L11.1791643,5.17521583 L11.2726379,5.1747482 L11.3661115,5.1747482 L11.4591201,5.17521583 L11.5511986,5.17615108 L11.6432771,5.17802158 L11.7348905,5.18035971 L11.8255738,5.18316547 L11.9162572,5.18643885 L12.0064755,5.19017986 L12.0957637,5.19438849 L12.1845869,5.19906475 L12.272945,5.20467626 L12.3608381,5.21028777 L12.4482662,5.21636691 L12.5352292,5.22291367 L12.6212621,5.22992806 L12.70683,5.23741007 L12.7919328,5.24535971 L12.8761056,5.25330935 L12.9598133,5.26219424 L13.0430559,5.27107914 L13.1253685,5.28043165 L13.2072161,5.28978417 L13.2885986,5.30007194 L13.369051,5.31035971 L13.4485733,5.32064748 L13.5276306,5.33140288 L13.6062228,5.3426259 L13.683885,5.35384892 L13.7610821,5.36553957 L13.912221,5.38985612 L14.0610347,5.41464029 L14.206128,5.43989209 L14.3484311,5.46607914 L14.4874789,5.49273381 L14.6228064,5.52032374 L14.7548786,5.54791367 L14.8832304,5.5755036 L15.0078619,5.60356115 L15.128773,5.63161871 L15.2459638,5.65967626 L15.3589692,5.68773381 L15.4677892,5.71532374 L15.5728889,5.74291367 L15.6738032,5.77003597 L15.770067,5.79622302 L15.8621455,5.82241007 L15.9495736,5.84766187 L16.0323512,5.87197842 L16.1104784,5.89535971 L16.1839551,5.91827338 L16.2527815,5.93978417 L16.3160273,5.95989209 L16.3746227,5.97906475 L16.4764671,6.01273381 L16.5569195,6.04079137 L16.5904026,6.05294964 L16.6150498,6.06136691 L16.6624842,6.07913669 L16.6131897,6.06744604 L16.5880774,6.06136691 L16.5531991,6.05341727 L16.4704215,6.03517986 L16.3657869,6.01273381 L16.3057964,6.00057554 L16.2402253,5.98794964 L16.1700039,5.97438849 L16.095132,5.96035971 L16.0151446,5.94586331 L15.9305068,5.93089928 L15.8412186,5.91593525 L15.7472799,5.90097122 L15.6496209,5.88553957 L15.5473115,5.87010791 L15.4408167,5.85514388 L15.3301365,5.84017986 L15.215736,5.82521583 L15.0976151,5.81071942 L14.9753089,5.79669065 L14.8497473,5.7831295 L14.7209304,5.7705036 L14.5883932,5.7578777 L14.4526007,5.74665468 L14.3135529,5.73589928 L14.1717149,5.72607914 L14.0270866,5.71766187 L13.8792029,5.70971223 L13.7285291,5.70363309 L13.652262,5.70082734 L13.57553,5.69848921 L13.4978678,5.69615108 L13.4197406,5.69428058 L13.3411484,5.6928777 L13.2620911,5.69194245 L13.1821037,5.69147482 L13.1016513,5.69100719 L13.0207339,5.69147482 L12.9393514,5.69194245 L12.8570388,5.6928777 L12.7747262,5.69428058 L12.6919486,5.69615108 L12.5245332,5.70082734 L12.4398954,5.70410072 L12.3552576,5.70784173 L12.2701548,5.71205036 L12.1841219,5.71672662 L12.098554,5.7218705 L12.012056,5.72748201 L11.925093,5.73356115 L11.83813,5.74057554 L11.750702,5.74805755 L11.6628089,5.75553957 L11.5749158,5.76395683 L11.4865576,5.77330935 L11.3977345,5.78266187 L11.3089113,5.79294964 L11.2200881,5.80370504 L11.1307999,5.81492806 L11.0999047,5.81911322 L11.1368454,5.90798561 L11.1856749,6.02910072 L11.2340394,6.15115108 L11.2814737,6.27366906 L11.3284431,6.39758993 L11.3744823,6.52197842 L11.4200565,6.64776978 L11.4642356,6.77402878 L11.5079496,6.90169065 L11.5507335,7.02982014 L11.5925874,7.15888489 L11.6335112,7.28935252 L11.6679243,7.40158273 L11.6730398,7.42028777 L11.7111733,7.55215827 L11.7479117,7.68496403 L11.78372,7.81870504 L11.8185982,7.95338129 L11.8520813,8.08852518 L11.8846343,8.22507194 L11.9157922,8.36161871 L11.9455549,8.49956835 L11.9743875,8.63798561 L12.0022901,8.77733813 L12.0283325,8.9176259 L12.0529798,9.05744604 L12.0650709,9.12899281 L12.076697,9.20007194 L12.099019,9.34223022 L12.1194809,9.48532374 L12.1292468,9.55733813 L12.1478485,9.70136691 L12.1566843,9.77384892 L12.1650551,9.84633094 L12.1729608,9.91881295 L12.1804015,9.99176259 L12.1873772,10.0647122 L12.1943528,10.1381295 L12.2064439,10.284964 L12.2120244,10.3588489 L12.2171399,10.4327338 L12.2217903,10.5066187 L12.2264408,10.5809712 L12.2301611,10.6553237 L12.2334164,10.7301439 L12.2366717,10.8044964 L12.239462,10.8793165 L12.2431823,11.0298921 L12.2445774,11.1051799 L12.2450425,11.1804676 L12.2455075,11.2571583 L12.2450425,11.3361871 L12.2436473,11.4156835 L12.2413221,11.4956475 L12.2376018,11.5751439 L12.2334164,11.6551079 L12.2283009,11.7346043 L12.2222554,11.8141007 L12.2152797,11.8935971 L12.207839,11.9730935 L12.1990032,12.0525899 L12.1897024,12.1320863 L12.1790064,12.2111151 L12.1678454,12.2906115 L12.1557542,12.3696403 L12.1431981,12.4486691 L12.1292468,12.5276978 L12.1148305,12.6067266 L12.0999491,12.6857554 L12.0836726,12.7647842 L12.0669311,12.8433453 L12.0497245,12.9223741 L12.0315878,13.0009353 L12.0241471,13.0313309 L12.012056,13.0794964 L11.9915941,13.1575899 L11.9706672,13.2356835 L11.9488102,13.3142446 L11.9260231,13.3918705 L11.902771,13.469964 L11.8790538,13.5480576 L11.8544065,13.6256835 L11.8292942,13.703777 L11.8037168,13.7814029 L11.7772094,13.8590288 L11.7502369,13.9366547 L11.7223343,14.0142806 L11.6939667,14.0914388 L11.6651341,14.1690647 L11.6358364,14.246223 L11.6056086,14.3233813 L11.5749158,14.4005396 L11.5437579,14.4781655 L11.512135,14.5548561 L11.480047,14.6320144 L11.414011,14.7863309 L11.3800628,14.8630216 L11.3456497,14.9397122 L11.3107714,15.0168705 L11.2754282,15.0935612 L11.2396199,15.1702518 L11.2033466,15.2469424 L11.1666082,15.3241007 L11.1452162,15.3685252 L11.1289397,15.4003237 L11.0903411,15.4765468 L11.0512776,15.5527698 L11.0117489,15.6285252 L10.9717552,15.7047482 L10.9312965,15.7814388 L10.849914,15.932482 L10.7662063,16.0844604 L10.6815685,16.2364388 L10.5950705,16.3884173 L10.5071775,16.5399281 L10.4183543,16.6919065 L10.328136,16.8438849 L10.2365225,16.9953957 L10.2007142,17.0543165 L10.1416538,17.1459712 L10.0439948,17.2951439 L9.94494069,17.4447842 L9.84542152,17.5944245 L9.83426049,17.611259 L9.74450723,17.7435971 L9.64219781,17.8927698 L9.53942335,18.0419424 L9.4357188,18.1915827 L9.3966552,18.2472302 L9.32968904,18.3398201 L9.11390917,18.636295 L8.89626913,18.9332374 L8.67676892,19.2311151 L8.34147305,19.6861151 L8.23265303,19.8296763 L8.00664222,20.1284892 L7.78063141,20.4301079 L7.66809104,20.5806835 L7.55508564,20.7321942 L7.44301032,20.8841727 L7.33046996,21.0366187 L7.1072494,21.3433813 L6.99610417,21.4976978 L6.88588902,21.652482 L6.77567387,21.8077338 L6.66592377,21.9634532 L6.55710375,22.1201079 L6.44921381,22.2772302 L6.34178892,22.4352878 L6.23482907,22.5938129 L6.12926435,22.7532734 L6.02416468,22.9132014 L5.99533202,22.9580935 L5.91953004,23.0735971 L5.81536045,23.2344604 L5.71212095,23.3967266 L5.66096624,23.4771583 L5.5595869,23.6398921 L5.50936228,23.7217266 L5.4596027,23.8035612 L5.40984311,23.8858633 L5.36054858,23.9681655 L5.31125404,24.0509353 L5.26288958,24.133705 L5.16616068,24.3001799 L5.11872631,24.3834173 L5.07129194,24.4671223 L4.97735329,24.6354676 L4.93131405,24.7196403 L4.88527481,24.8047482 L4.83970062,24.8893885 L4.79459146,24.9744964 L4.70530324,25.1456475 L4.61787519,25.3177338 L4.57462621,25.4042446 L4.53184227,25.4907554 L4.48952337,25.5777338 L4.44766952,25.6647122 L4.40628071,25.7521583 L4.36535694,25.8400719 L4.32489822,25.9279856 L4.28490453,26.0163669 L4.24537589,26.1047482 L4.2063123,26.1935971 L4.1900358,26.2310072 L4.16771374,26.2829137 L4.13051032,26.3722302 L4.09330689,26.462482 L4.05656851,26.5522662 L4.02029517,26.6429856 L3.98495192,26.733705 L3.91519549,26.9160791 L3.88124737,27.0077338 L3.84776428,27.0993885 L3.81521129,27.1919784 L3.78265829,27.2841007 L3.75103538,27.3771583 L3.71987751,27.4702158 L3.68918468,27.563741 L3.6589569,27.6577338 L3.6296592,27.7517266 L3.60082655,27.8461871 L3.57245894,27.9406475 L3.54455637,28.0355755 L3.51758388,28.1309712 L3.49107644,28.2268345 L3.48012549,28.2680786 L3.48782114,28.2810791 L3.64779587,28.5476259 L3.72824828,28.6804317 L3.88961814,28.9469784 L4.050988,29.2130576 L4.21235785,29.4805396 L4.29327531,29.6152158 L4.37372771,29.7503597 L4.42627755,29.8401439 L4.45371508,29.8859712 L4.53370244,30.0220504 L4.61368981,30.1590647 L4.69274709,30.2970144 L4.77133932,30.4358993 L4.84946652,30.5761871 L4.92666362,30.7174101 L5.00339569,30.8595683 L5.07873263,31.0026619 L5.1164011,31.0756115 L5.19080795,31.2215108 L5.26428471,31.3692806 L5.30055805,31.4436331 L5.33636635,31.5179856 L5.37217465,31.5932734 L5.4075179,31.6690288 L5.47727432,31.8214748 L5.51168749,31.8986331 L5.54563562,31.9757914 L5.57958374,32.0538849 L5.61306683,32.132446 L5.64608487,32.2110072 L5.67863786,32.2905036 L5.71072582,32.3704676 L5.74281377,32.4513669 L5.75955531,32.4948561 L5.77443668,32.5322662 L5.8060596,32.6131655 L5.83768251,32.695 L5.86884038,32.7777698 L5.89906816,32.8605396 L5.92929594,32.9442446 L5.95905868,33.0284173 L5.98835638,33.1135252 L6.01672399,33.1991007 L6.0450916,33.2851439 L6.07299417,33.3716547 L6.09996666,33.4591007 L6.12693914,33.547482 L6.15298154,33.6358633 L6.17855889,33.7256475 L6.20367121,33.8154317 L6.22831848,33.9066187 L6.25203566,33.9978058 L6.27575284,34.0903957 L6.29853994,34.1829856 L6.320862,34.2769784 L6.34225397,34.3714388 L6.36364594,34.4663669 L6.38364278,34.5622302 L6.40363962,34.6590288 L6.42270637,34.756295 L6.44130809,34.8544964 L6.45944476,34.9536331 L6.47665134,35.0532374 L6.49292784,35.1542446 L6.5087393,35.2552518 L6.52408571,35.3576619 L6.53850204,35.4610072 L6.55245332,35.5648201 L6.56547452,35.6695683 L6.57803068,35.7752518 L6.58965675,35.8814029 L6.60035273,35.9889568 L6.61058367,36.0969784 L6.62034957,36.2064029 L6.62872034,36.316295 L6.63662607,36.4271223 L6.64406676,36.5388849 L6.65011231,36.6515827 L6.65569283,36.7652158 L6.6608083,36.8797842 L6.66452864,36.9952878 L6.66778394,37.1121942 L6.67010915,37.2295683 L6.67196932,37.3478777 L6.67243437,37.4675899 L6.67243437,37.5877698 L6.67150428,37.7093525 L6.66964411,37.8318705 L6.66685385,37.9553237 L6.66359855,38.0797122 L6.65894813,38.2055036 L6.65383265,38.3317626 L6.64732206,38.4594245 L6.64034641,38.5884892 L6.63244069,38.7180216 L6.62453496,38.8363309 L6.62360487,38.8489568 L6.61290889,38.9808273 L6.60128282,39.1141007 L6.58872666,39.2483094 L6.57570546,39.3834532 L6.56128913,39.5195324 L6.54594272,39.6570144 L6.52966622,39.7958993 L6.51245964,39.9357194 L6.49385793,40.0764748 L6.47479117,40.2186331 L6.45479433,40.3621942 L6.43340236,40.5066906 L6.4110803,40.6521223 L6.38782816,40.7994245 L6.36364594,40.9476619 L6.35206121,41.0164777 L6.35853046,41.029964 L6.39619893,41.1103957 L6.4338674,41.1917626 L6.47060578,41.2740647 L6.50734417,41.3568345 L6.54361751,41.4410072 L6.5794258,41.5261151 L6.61476906,41.6121583 L6.64964727,41.6996043 L6.6835954,41.787518 L6.71754352,41.8773022 L6.75056156,41.967554 L6.7835796,42.0596763 L6.81566756,42.1527338 L6.84682542,42.2467266 L6.87751825,42.3425899 L6.90774603,42.4393885 L6.93704373,42.5375899 L6.96587639,42.6371942 L6.97331707,42.6647842 L6.99284887,42.7386691 L7.01889127,42.8415468 L7.04400358,42.9458273 L7.06865085,43.0515108 L7.09236803,43.1585971 L7.11515513,43.2670863 L7.13701214,43.377446 L7.15793907,43.4896763 L7.17840095,43.6028417 L7.19793275,43.7183453 L7.21606942,43.8352518 L7.23374105,43.9540288 L7.25048259,44.0742086 L7.26629405,44.196259 L7.28117542,44.3206475 L7.29140636,44.4151079 L7.29466166,44.4464388 L7.30582269,44.5745683 L7.3119364,44.6522526 L7.4699828,44.5067626 L7.82109013,44.1826978 L8.25823038,43.7786691 L8.775358,43.2998201 L9.36549733,42.7517626 L10.0226028,42.1396403 L10.3746402,41.8113669 L10.7406289,41.4690647 L11.1201039,41.1136691 L11.5126,40.7456475 L11.9167222,40.3659353 L12.3324705,39.975 L12.7579847,39.5733094 L13.1937298,39.1622662 L13.3662607,38.9990647 L13.6383108,38.7423381 L14.0912625,38.3144604 L14.5511898,37.8791007 L15.0176278,37.4367266 L15.4896462,36.9873381 L15.9663151,36.5328058 L16.4471694,36.0735971 L16.931279,35.6097122 L17.4177137,35.1420863 L17.9055437,34.6716547 L18.3938386,34.1993525 L18.8825986,33.7251799 L19.3704285,33.2505396 L19.4755282,33.1476619 L19.8582585,32.7773022 L20.3446932,32.3054676 L20.5865155,32.0702518 L20.8274077,31.835036 L21.0678348,31.6007554 L21.3064018,31.3664748 L21.5440387,31.1331295 L21.7802804,30.9007194 L21.9416503,30.7417266 L22.0160571,30.6692446 L22.2513688,30.4405755 L22.4848203,30.2123741 L22.7164116,29.9855755 L22.938237,29.7681295 L22.9466078,29.7597122 L23.1758739,29.5361871 L23.4028148,29.3140647 L23.6274305,29.0928777 L23.7404359,28.9820504 L23.8525112,28.8758993 L24.0771269,28.6626619 L24.2989523,28.4508273 L24.5184525,28.2408633 L24.7351625,28.0327698 L24.9495472,27.8260791 L25.1606767,27.6217266 L25.3685508,27.4192446 L25.4583041,27.3317986 L25.3504142,27.2228417 L25.2253176,27.0951799 L25.1020813,26.9679856 L24.9802401,26.8403237 L24.859794,26.7131295 L24.740743,26.5854676 L24.6235522,26.4582734 L24.5077566,26.3306115 L24.3938211,26.2034173 L24.2812807,26.0757554 L24.1706005,25.9485612 L24.0613155,25.8213669 L23.9538906,25.693705 L23.8478608,25.5665108 L23.7436912,25.4393165 L23.6413818,25.3121223 L23.5409325,25.1849281 L23.4418784,25.0577338 L23.3451495,24.9310072 L23.2502808,24.8042806 L23.2028464,24.7402158 L23.1563421,24.6770863 L23.0651937,24.5498921 L23.0200846,24.4867626 L22.9754405,24.4231655 L22.9312614,24.3595683 L22.8880124,24.2964388 L22.8447634,24.2328417 L22.8019795,24.1697122 L22.7601256,24.1061151 L22.7182718,24.0429856 L22.677348,23.9798561 L22.6368893,23.916259 L22.5964306,23.8531295 L22.5569019,23.79 L22.5178383,23.7264029 L22.4792398,23.6632734 L22.4411063,23.6001439 L22.4034378,23.5370144 L22.329961,23.4107554 L22.2941527,23.3471583 L22.2583444,23.2840288 L22.2234662,23.2208993 L22.1890531,23.1577698 L22.15557,23.0951079 L22.1220869,23.0319784 L22.0890689,22.9688489 L22.0569809,22.9057194 L22.025358,22.8425899 L21.9942001,22.7799281 L21.9635073,22.7167986 L21.9337446,22.6536691 L21.9044469,22.5910072 L21.8756142,22.5278777 L21.8472466,22.4647482 L21.819344,22.4020863 L21.7923715,22.3389568 L21.7658641,22.276295 L21.7398217,22.2131655 L21.6895971,22.0878417 L21.6654149,22.0251799 L21.6421627,21.9620504 L21.6189106,21.8993885 L21.5965885,21.8367266 L21.5538046,21.7114029 L21.5333427,21.648741 L21.4942791,21.5234173 L21.4756774,21.4607554 L21.4580058,21.3980935 L21.4407992,21.3354317 L21.4240576,21.2727698 L21.4077811,21.2105755 L21.3924347,21.1479137 L21.3780184,21.0852518 L21.3640671,21.0230576 L21.3505809,20.9608633 L21.3380247,20.8982014 L21.3259336,20.8360072 L21.3147726,20.7738129 L21.3040766,20.7111511 L21.2943107,20.6489568 L21.2850098,20.5867626 L21.2766391,20.5245683 L21.2687333,20.4628417 L21.2617577,20.4006475 L21.2552471,20.3384532 L21.2496666,20.2767266 L21.2450161,20.2145324 L21.2408308,20.153741 L21.2371104,20.0920144 L21.2315299,19.9713669 L21.2292047,19.9115108 L21.2264144,19.7917986 L21.2254843,19.7324101 L21.2250193,19.6734892 L21.2250193,19.5556475 L21.2268795,19.438741 L21.2305998,19.3227698 L21.232925,19.2647842 L21.2357153,19.2072662 L21.2389706,19.1502158 L21.2426909,19.0926978 L21.2510617,18.9795324 L21.2561772,18.9229496 L21.2612926,18.8668345 L21.2668732,18.8107194 L21.2729187,18.7546043 L21.2794293,18.6989568 L21.2933806,18.5885971 L21.3012863,18.5334173 L21.3091921,18.478705 L21.3175628,18.4244604 L21.3263986,18.3697482 L21.3352345,18.3159712 L21.3356995,18.3131655 L21.3450004,18.2617266 L21.3547663,18.2084173 L21.3654622,18.1546403 L21.3761582,18.1013309 L21.3873192,18.0484892 L21.3989453,17.9956475 L21.4105714,17.9432734 L21.4226625,17.8908993 L21.4356837,17.8385252 L21.4482399,17.7866187 L21.4617261,17.7347122 L21.4896287,17.6318345 L21.504045,17.5808633 L21.5189264,17.5298921 L21.5338077,17.4793885 L21.5491541,17.4288849 L21.5654306,17.3788489 L21.5812421,17.3288129 L21.6147252,17.2296763 L21.6319318,17.1801079 L21.6496034,17.1310072 L21.6677401,17.0819065 L21.6858767,17.0332734 L21.7230802,16.9369424 L21.742612,16.888777 L21.7621438,16.8410791 L21.7821406,16.7933813 L21.8021374,16.7461511 L21.8225993,16.6989209 L21.8435263,16.6516906 L21.8649182,16.6053957 L21.8863102,16.5586331 L21.9081672,16.5123381 L21.9304893,16.4665108 L21.9532764,16.4197482 L21.9983855,16.3294964 L22.0458199,16.2392446 L22.0937193,16.1499281 L22.1434789,16.0615468 L22.1941685,15.9741007 L22.2457883,15.8871223 L22.2988032,15.8015468 L22.3527481,15.7164388 L22.4080882,15.6322662 L22.4638934,15.5490288 L22.5215587,15.4667266 L22.579689,15.3848921 L22.6392145,15.3039928 L22.6996701,15.2240288 L22.7610557,15.145 L22.8233715,15.0669065 L22.8870823,14.9892806 L22.9512582,14.9125899 L23.0168293,14.8368345 L23.0828654,14.7620144 L23.1502966,14.6876619 L23.2181928,14.6142446 L23.2874842,14.541295 L23.3572406,14.4697482 L23.4279271,14.3986691 L23.4995437,14.3280576 L23.5720904,14.2588489 L23.6451021,14.1901079 L23.7190439,14.1218345 L23.7939158,14.0544964 L23.8697178,13.9880935 L23.9459848,13.9221583 L24.0231819,13.8571583 L24.1008441,13.7930935 L24.1794363,13.7294964 L24.2589587,13.6663669 L24.338946,13.6041727 L24.4193984,13.5429137 L24.5007809,13.4821223 L24.5826285,13.4222662 L24.6654061,13.3628777 L24.7486487,13.3044245 L24.8323565,13.2464388 L24.9169942,13.1889209 L25.0020971,13.1323381 L25.087665,13.076223 L25.1741629,13.0210432 L25.2606609,12.9663309 L25.3480889,12.912554 L25.435982,12.8592446 L25.5243402,12.8064029 L25.6136284,12.7544964 L25.7029166,12.7030576 L25.7926699,12.6520863 L25.8828882,12.6020504 L25.9740366,12.552482 L26.065185,12.5033813 L26.1567984,12.4552158 L26.2488769,12.407518 L26.3414204,12.3602878 L26.434429,12.3135252 L26.5279026,12.2676978 L26.6213762,12.2223381 L26.7153148,12.177446 L26.8097185,12.1330216 L26.9045873,12.0895324 L26.999921,12.0465108 L27.0952548,12.0039568 L27.1910536,11.9618705 L27.2868524,11.9207194 L27.3831163,11.8795683 L27.4798452,11.8393525 L27.5765741,11.7996043 L27.673303,11.7603237 L27.770962,11.7215108 L27.868156,11.6836331 L27.965815,11.6457554 L28.162063,11.5718705 L28.2601871,11.5358633 L28.3587761,11.5003237 L28.4569002,11.4652518 L28.5559543,11.4306475 L28.6545434,11.3965108 L28.7535975,11.3628417 L28.8526516,11.3296403 L28.943335,11.2997122 L28.9354292,11.2884892 L28.889855,11.2234892 L28.8433508,11.1589568 L28.7494121,11.0298921 L28.7015127,10.9653597 L28.6531483,10.901295 L28.6043188,10.8367626 L28.5550242,10.7726978 L28.5047996,10.7091007 L28.454575,10.645036 L28.4038853,10.5814388 L28.3006458,10.4542446 L28.248096,10.3906475 L28.1950811,10.327518 L28.1416012,10.2643885 L28.0876562,10.201259 L28.0332462,10.1385971 L27.9783711,10.0759353 L27.8667608,9.95061151 L27.7532904,9.82622302 L27.6956251,9.7644964 L27.6374947,9.70230216 L27.5788993,9.64057554 L27.5198389,9.57931655 L27.4598484,9.51758993 L27.3998579,9.45633094 L27.3389372,9.39507194 L27.2775516,9.33428058 L27.2157009,9.27348921 L27.1533852,9.21269784 L27.0906044,9.1523741 L27.0273586,9.09205036 L26.9636477,9.03219424 L26.8990067,8.9718705 L26.8339007,8.91248201 L26.7683297,8.8526259 L26.7022936,8.79323741 L26.6357925,8.73431655 L26.5688263,8.67492806 L26.5009301,8.61600719 L26.3642075,8.49910072 L26.2949161,8.44064748 L26.1544732,8.32467626 L26.0837867,8.26715827 L26.0121701,8.20964029 L25.9400884,8.15258993 L25.8675418,8.09553957 L25.79453,8.03848921 L25.6466464,7.92532374 L25.5717745,7.86920863 L25.4964376,7.81309353 L25.4206356,7.75744604 L25.3443686,7.70179856 L25.1899744,7.59143885 L25.1271936,7.54794964 L25.1118472,7.53672662 L25.0332549,7.48201439 L25.1160326,7.53017986 L25.1323091,7.54 L25.1978801,7.57881295 L25.2797276,7.62791367 L25.3606451,7.67701439 L25.4410975,7.72658273 L25.6010722,7.82665468 L25.6801295,7.87715827 L25.7587217,7.92766187 L25.8368489,7.97863309 L25.9912432,8.08151079 L26.0679752,8.13341727 L26.1437772,8.18532374 L26.2195792,8.23769784 L26.369323,8.34338129 L26.4432648,8.39622302 L26.5167415,8.45 L26.5902183,8.50330935 L26.662765,8.55755396 L26.7348466,8.61179856 L26.8064632,8.66604317 L26.8776148,8.7207554 L26.9483013,8.77593525 L27.0185227,8.83111511 L27.0882792,8.88629496 L27.1571055,8.94194245 L27.2259318,8.99805755 L27.2942931,9.05417266 L27.3617243,9.11028777 L27.4291556,9.16733813 L27.4956567,9.22392086 L27.5621578,9.28097122 L27.6277288,9.33848921 L27.6928348,9.39600719 L27.7579408,9.45399281 L27.8221167,9.51197842 L27.8858276,9.56996403 L27.9490734,9.62841727 L28.0118542,9.68733813 L28.0741699,9.74625899 L28.1360206,9.80517986 L28.1974063,9.86456835 L28.2583269,9.92395683 L28.3187825,9.98381295 L28.378773,10.0436691 L28.4382985,10.1039928 L28.4973589,10.1643165 L28.5554893,10.2246403 L28.6136196,10.2854317 L28.6712849,10.346223 L28.7847554,10.468741 L28.8963656,10.5921942 L28.9512407,10.6539209 L29.0061158,10.7161151 L29.0600607,10.7783094 L29.1135406,10.8405036 L29.1670206,10.9031655 L29.2195704,10.966295 L29.2716552,11.0289568 L29.32374,11.0920863 L29.3748947,11.1552158 L29.3800102,11.1617626 L29.4483715,11.1407194 L29.5474256,11.111259 L29.6469448,11.0817986 L29.7464639,11.0528058 L29.8459831,11.0242806 L29.9450372,10.996223 L30.0445564,10.9686331 L30.1436105,10.9415108 L30.2426646,10.9148561 L30.4407728,10.862482 L30.539827,10.8372302 L30.638416,10.812446 L30.7374702,10.7876619 L30.8355942,10.7633453 L30.9341833,10.7394964 L31.1304313,10.6932014 L31.3257493,10.648777 L31.5206023,10.6052878 L31.7140601,10.5636691 L31.9065878,10.5234532 L32.0981855,10.4851079 L32.288388,10.4476978 L32.4771954,10.4121583 L32.6646076,10.377554 L32.8506247,10.3443525 L33.0352467,10.312554 L33.2175435,10.2821583 L33.3984452,10.2531655 L33.5770216,10.2255755 L33.7542029,10.1989209 L33.928594,10.1732014 L34.1011249,10.1488849 L34.2713305,10.1259712 L34.439211,10.1039928 L34.6043012,10.0829496 L34.7670662,10.0628417 L34.9270409,10.0441367 L35.0842254,10.0263669 L35.2381546,10.0095324 L35.3897585,9.99316547 L35.5376421,9.97820144 L35.6827355,9.96417266 L35.8241085,9.95107914 L35.9626913,9.93845324 L36.0970887,9.92676259 L36.2282307,9.91600719 L36.3556525,9.90618705 L36.4793539,9.89683453 L36.5993349,9.88794964 L36.7151306,9.88 L36.8267408,9.87251799 L36.9346308,9.86597122 L37.1364594,9.85428058 L37.3206163,9.84492806 L37.4861716,9.83744604 L37.632195,9.83136691 L37.7577566,9.82715827 L37.8623912,9.82388489 L37.8791327,9.82341727 L37.9451688,9.82201439 L38.0056244,9.82061151 L38.0544539,9.82014388 L38.0056244,9.82341727 L37.9456339,9.8276259 L37.8795978,9.83276978 L37.8628562,9.83370504 L37.7586866,9.8421223 L37.6335901,9.8528777 L37.4880317,9.86643885 L37.3234066,9.88233813 L37.1401797,9.90104317 L36.9392812,9.92302158 L36.8323214,9.93517986 L36.7211761,9.94827338 L36.6063105,9.96230216 L36.4872596,9.97679856 L36.3644883,9.99223022 L36.2379966,10.0090647 L36.1082497,10.0263669 L35.9743174,10.0446043 L35.8375948,10.0642446 L35.6971518,10.0843525 L35.5534536,10.1058633 L35.4069651,10.1283094 L35.2572213,10.1521583 L35.1046873,10.1764748 L34.949363,10.2021942 L34.7912484,10.2293165 L34.6303436,10.2573741 L34.4671136,10.2863669 L34.3015583,10.3167626 L34.1336779,10.3485612 L33.9634722,10.381295 L33.7914064,10.4154317 L33.6170153,10.4509712 L33.4412291,10.487446 L33.2635828,10.5257914 L33.0836112,10.5650719 L32.9027095,10.6057554 L32.7199477,10.6478417 L32.5362558,10.6913309 L32.3511687,10.7366906 L32.1646866,10.7829856 L31.9772743,10.8306835 L31.7884669,10.8802518 L31.5991945,10.931223 L31.409457,10.9835971 L31.2187895,11.0373741 L31.0271918,11.0930216 L30.931393,11.1215468 L30.7397954,11.1795324 L30.6435315,11.2089928 L30.5477327,11.2393885 L30.4514688,11.2697842 L30.2589411,11.3315108 L30.1626772,11.3633094 L29.9701495,11.4278417 L29.8738857,11.4610432 L29.7780868,11.4942446 L29.681823,11.5279137 L29.6678717,11.5330576 L29.6725221,11.5386691 L29.7204215,11.6032014 L29.7678559,11.6677338 L29.8148252,11.7322662 L29.8613295,11.7972662 L29.9524779,11.9272662 L29.997587,11.9927338 L30.0422312,12.0582014 L30.0864102,12.1236691 L30.1301242,12.1891367 L30.1733732,12.2550719 L30.2161572,12.3210072 L30.258011,12.3874101 L30.2998649,12.4533453 L30.3412537,12.5197482 L30.3821775,12.5861511 L30.4221711,12.6530216 L30.4621648,12.7194245 L30.5016935,12.786295 L30.5407571,12.8531655 L30.5788906,12.9205036 L30.6170241,12.9873741 L30.6546925,13.0547122 L30.7281693,13.1893885 L30.7644427,13.2571942 L30.8351292,13.3928058 L30.8700074,13.4606115 L30.9039555,13.5284173 L30.9379036,13.5966906 L30.9713867,13.6644964 L31.0364927,13.8010432 L31.0681156,13.8697842 L31.0997385,13.9380576 L31.1308964,14.0063309 L31.191352,14.1438129 L31.2499474,14.281295 L31.27878,14.3505036 L31.3066826,14.4192446 L31.3345851,14.4884532 L31.3620227,14.5571942 L31.4150376,14.6956115 L31.44108,14.7648201 L31.4661923,14.8344964 L31.4913046,14.903705 L31.5159518,14.9729137 L31.539669,15.0425899 L31.5633862,15.1117986 L31.5866384,15.1814748 L31.6312825,15.3208273 L31.6531395,15.3905036 L31.6745314,15.4601799 L31.6954584,15.5298561 L31.7354521,15.6692086 L31.7549839,15.7388849 L31.7740506,15.8085612 L31.7926523,15.878705 L31.810789,15.9483813 L31.8279956,16.0180576 L31.8452022,16.0882014 L31.8619437,16.1578777 L31.8782202,16.227554 L31.8940317,16.2976978 L31.9093781,16.3673741 L31.9242594,16.437518 L31.9386758,16.5071942 L31.9526271,16.5773381 L31.9661133,16.6470144 L31.9791345,16.7166906 L31.98425,16.7442806 L31.9916907,16.7868345 L32.0037818,16.8565108 L32.0154078,16.9266547 L32.0367998,17.0660072 L32.0470307,17.1361511 L32.0567966,17.2058273 L32.0660975,17.2755036 L32.082839,17.4148561 L32.0907448,17.4845324 L32.0981855,17.5542086 L32.1051611,17.6238849 L32.1116717,17.6930935 L32.1177173,17.7627698 L32.1232978,17.8319784 L32.1284132,17.9016547 L32.1335287,17.9708633 L32.1377141,18.0400719 L32.1414344,18.1092806 L32.147945,18.2476978 L32.1502703,18.3169065 L32.1539906,18.4543885 L32.1549207,18.5235971 L32.1558508,18.5923381 L32.1558508,18.7298201 L32.1549207,18.7980935 L32.1539906,18.8668345 L32.1525955,18.9351079 L32.1507353,19.0033813 L32.1451548,19.1399281 L32.1418995,19.2077338 L32.1381791,19.2760072 L32.1339938,19.3438129 L32.1293433,19.4116187 L32.1242279,19.4789568 L32.1186473,19.5467626 L32.1130668,19.6141007 L32.1065562,19.6814388 L32.0995806,19.748777 L32.0921399,19.8161151 L32.0846992,19.8829856 L32.0679577,20.0167266 L32.0586568,20.0835971 L32.049356,20.15 L32.0288941,20.2828058 L32.0181981,20.348741 L32.0070371,20.4151439 L31.9949459,20.4806115 L31.9828548,20.5465468 L31.9702987,20.612482 L31.9572775,20.6779496 L31.9437912,20.7429496 L31.930305,20.8084173 L31.9158887,20.8734173 L31.9010073,20.9384173 L31.8856609,21.0029496 L31.8703145,21.0679496 L31.854038,21.1320144 L31.8377615,21.1965468 L31.8033483,21.3246763 L31.767075,21.4518705 L31.7484733,21.5154676 L31.7294065,21.5790647 L31.7098747,21.6421942 L31.6898779,21.7048561 L31.669416,21.767518 L31.648489,21.8301799 L31.6270971,21.8928417 L31.6052401,21.955036 L31.560596,22.0784892 L31.5140917,22.2019424 L31.4899094,22.2632014 L31.4657272,22.3239928 L31.4155026,22.4455755 L31.3899252,22.5058993 L31.3638828,22.566223 L31.3373754,22.6260791 L31.3104029,22.6859353 L31.2829654,22.7453237 L31.2550628,22.8047122 L31.1983276,22.922554 L31.1690299,22.9814748 L31.1392672,23.0399281 L31.1095044,23.0979137 L31.0788116,23.1558993 L31.0481188,23.2134173 L31.0169609,23.2709353 L30.985338,23.3279856 L30.920232,23.4420863 L30.887214,23.4982014 L30.8202478,23.6104317 L30.7858346,23.6660791 L30.7509564,23.7217266 L30.7160782,23.7769065 L30.6742243,23.8409712 L30.6314404,23.9059712 L30.5872613,23.9719065 L30.5416871,24.038777 L30.4951829,24.1065827 L30.4472834,24.1753237 L30.3979889,24.245 L30.3472992,24.3151439 L30.2956795,24.3866906 L30.2426646,24.4591727 L30.1887196,24.5325899 L30.1333795,24.6069424 L30.0766443,24.6822302 L30.018979,24.7584532 L29.9599186,24.8351439 L29.899928,24.9132374 L29.8385424,24.9922662 L29.7752966,25.0722302 L29.6474098,25.2340288 L29.5144076,25.3995683 L29.3767549,25.5688489 L29.3274603,25.6291727 L29.2344518,25.7409353 L29.0874982,25.9158273 L28.9363593,26.0944604 L28.781035,26.2758993 L28.6215253,26.4606115 L28.4582953,26.6481295 L28.2908799,26.8384532 L28.1197441,27.0320504 L27.9453531,27.2284532 L27.7825881,27.4098921 L27.7993296,27.4239209 L27.8225818,27.4430935 L27.9630247,27.5590647 L28.1053278,27.6755036 L28.248561,27.7914748 L28.3927243,27.907446 L28.5387477,28.0234173 L28.6857012,28.1393885 L28.8335849,28.2553597 L28.9828636,28.3708633 L29.1330724,28.4868345 L29.2842114,28.6023381 L29.4367454,28.7178417 L29.5902095,28.8333453 L29.7446037,28.9483813 L29.899928,29.0634173 L30.0566475,29.1789209 L30.213832,29.2934892 L30.3724116,29.4085252 L30.5314562,29.5230935 L30.691896,29.6376619 L30.8528008,29.7517626 L31.0146357,29.8658633 L31.1774007,29.979964 L31.3410957,30.0935971 L31.5052559,30.2072302 L31.6703461,30.3208633 L31.8359013,30.4340288 L32.0023866,30.5471942 L32.169802,30.6598921 L32.3376825,30.7725899 L32.6753036,30.9970504 L32.8450442,31.1088129 L33.1863857,31.3323381 L33.3579865,31.4431655 L33.5300523,31.5544604 L33.7025832,31.6648201 L33.8755791,31.7751799 L34.0490401,31.8855396 L34.146234,31.9467986 L34.221571,31.9977698 L34.3922417,32.1123381 L34.5633774,32.2273741 L34.7354433,32.3414748 L34.9070441,32.4555755 L35.079575,32.5696763 L35.5985628,32.9091727 L35.7720237,33.0214029 L35.9459497,33.1336331 L36.1198758,33.2453957 L36.1682402,33.276259 L36.2938018,33.3580935 L36.4672627,33.4707914 L36.6407237,33.5830216 L36.9885757,33.8065468 L37.1625018,33.9178417 L37.3364278,34.0286691 L37.5108188,34.1390288 L37.6852099,34.2489209 L37.8586709,34.3583453 L38.207453,34.576259 L38.55577,34.7927698 L38.9036221,35.0069424 L39.2510091,35.2197122 L39.5807244,35.4203237 L39.597466,35.4301439 L39.9429928,35.6396403 L40.2871245,35.8472662 L40.629861,36.052554 L40.9716675,36.2555036 L41.3116138,36.4565827 L41.650165,36.6557914 L41.986856,36.8521942 L42.3212217,37.046259 L42.6532623,37.2379856 L42.9829777,37.4273741 L43.3103678,37.6144245 L43.6349677,37.7986691 L43.9563123,37.9801079 L44.2748666,38.1592086 L44.5901657,38.3355036 L44.9017443,38.5089928 L44.996148,38.5613669 L45.2105328,38.678741 L45.5156009,38.8452158 L45.8169486,39.0084173 L46.114111,39.1688129 L46.407088,39.3264029 L46.6954145,39.4807194 L46.9790906,39.6317626 L47.2581163,39.7795324 L47.5320265,39.9244964 L47.8008213,40.0657194 L48.0645006,40.2036691 L48.3225993,40.3383453 L48.5751176,40.4697482 L48.8215903,40.5974101 L49.0624825,40.7213309 L49.296864,40.8415108 L49.5252001,40.9584173 L49.7470255,41.0715827 L49.9618753,41.1805396 L50.371578,41.3876978 L50.7524481,41.5789568 L51.1035554,41.7538489 L51.4230398,41.9119065 L51.7099712,42.0531295 L51.9629545,42.1765827 L52.1805946,42.2822662 L52.3614962,42.3697122 L52.5042644,42.4384532 L52.6079689,42.4880216 L52.6926067,42.5277698 L52.7702688,42.5726619 L52.8302594,42.6226978 L52.8390952,42.6297122 L52.8972255,42.697518 L52.9437298,42.773741 L52.9767479,42.8565108 L52.9958146,42.9434892 L53,43.0318705 L52.9897691,43.1197842 L52.9651218,43.2044245 L52.9265232,43.2839209 L52.8762986,43.3554676 L52.8144479,43.4171942 L52.7437614,43.4681655 L52.6660993,43.5060432 L52.5828566,43.5308273 L52.4972887,43.5411151 L47.6659589,43.7188129 L43.6307823,43.8815468 L37.1894742,44.211223 L27.4589183,44.7293525 L17.9883213,45.243741 L12.327355,45.5617266 L7.38906535,45.8951439 L7.35875096,45.8948213 L7.35875096,45.8948213 Z M3.22188325,29.8668424 L3.21763126,29.9158993 L3.20972554,30.0183094 L3.20228485,30.1207194 L3.19577425,30.2235971 L3.19019374,30.3269424 L3.18554331,30.4302878 L3.18135793,30.5341007 L3.17763758,30.6379137 L3.17531237,30.7421942 L3.1734522,30.8469424 L3.17252211,30.9521583 L3.17252211,31.0573741 L3.1734522,31.1630576 L3.17391724,31.203741 L3.17531237,31.268741 L3.17810263,31.3748921 L3.18135793,31.4815108 L3.18600835,31.5885971 L3.19112382,31.6956835 L3.19763442,31.8032374 L3.20461007,31.911259 L3.21251579,32.0192806 L3.22135161,32.1277698 L3.23111751,32.2367266 L3.24181349,32.3461511 L3.25343956,32.4555755 L3.26553068,32.5654676 L3.27901692,32.676295 L3.30180402,32.8521223 L3.32505616,33.0251439 L3.34877334,33.1953597 L3.37342061,33.3623022 L3.39853292,33.5264388 L3.42411028,33.6873022 L3.4482925,33.8308633 L3.45061772,33.8453597 L3.47945037,34.0006115 L3.50874807,34.1525899 L3.53804577,34.3017626 L3.56827355,34.4485971 L3.59896638,34.5921583 L3.63012425,34.7333813 L3.66174716,34.8722662 L3.69383511,35.0078777 L3.72592307,35.1416187 L3.75894111,35.272554 L3.79195915,35.4011511 L3.82590727,35.5274101 L3.8598554,35.6508633 L3.89380352,35.772446 L3.92868174,35.8916906 L3.96355995,36.0090647 L3.9989032,36.1236331 L4.0347115,36.2363309 L4.0705198,36.3471583 L4.10679313,36.4561151 L4.14353152,36.5627338 L4.1802699,36.6679496 L4.21700828,36.7708273 L4.25421171,36.8718345 L4.29188018,36.9714388 L4.32954865,37.0691727 L4.36721711,37.1655036 L4.40535062,37.259964 L4.44348414,37.3530216 L4.48208269,37.4446763 L4.52068124,37.5344604 L4.55974484,37.6233094 L4.59834339,37.7107554 L4.63787203,37.7967986 L4.67693563,37.8814388 L4.71646427,37.9651439 L4.75599291,38.047446 L4.79552155,38.1292806 L4.83505019,38.2097122 L4.87504387,38.2892086 L4.91503755,38.3677698 L4.95503124,38.4453957 L4.99548996,38.5220863 L5.03594869,38.5983094 L5.04065054,38.6072155 L5.04664467,38.563705 L5.06152604,38.4449281 L5.07594237,38.3270863 L5.08942861,38.2106475 L5.10151972,38.0951439 L5.1131458,37.9805755 L5.12384178,37.8669424 L5.13407272,37.7547122 L5.14290854,37.6434173 L5.15081426,37.5325899 L5.15825495,37.4231655 L5.16476555,37.3146763 L5.17034606,37.2071223 L5.17546153,37.1005036 L5.17918188,36.9948201 L5.18290222,36.8905396 L5.18522743,36.7867266 L5.1870876,36.6833813 L5.18801769,36.5814388 L5.18801769,36.4804317 L5.18755265,36.3803597 L5.18615752,36.2807554 L5.18429735,36.1820863 L5.18150709,36.0843525 L5.17778675,35.987554 L5.17360136,35.891223 L5.16895093,35.796295 L5.16337042,35.7013669 L5.15732486,35.6078417 L5.15034922,35.5147842 L5.14244349,35.4226619 L5.13453776,35.3310072 L5.12570195,35.2402878 L5.11593605,35.150036 L5.10617015,35.0607194 L5.0838481,34.8839568 L5.07175698,34.7969784 L5.05920083,34.71 L5.04617963,34.6239568 L5.03222834,34.5383813 L5.01781202,34.453741 L5.00293065,34.3695683 L4.98758423,34.2858633 L4.97177278,34.2026259 L4.95503124,34.1203237 L4.93782465,34.0384892 L4.92015303,33.9571223 L4.90201636,33.876223 L4.88341464,33.7957914 L4.86434789,33.7158273 L4.84435105,33.6363309 L4.8243542,33.5577698 L4.80342728,33.4792086 L4.78250035,33.4011151 L4.73878633,33.2467986 L4.71599923,33.1701079 L4.69321213,33.0938849 L4.66949495,33.0181295 L4.64531272,32.9428417 L4.63415169,32.9082374 L4.62066545,32.8680216 L4.59508809,32.7936691 L4.5690457,32.7193165 L4.54253826,32.6458993 L4.51556577,32.572482 L4.48859329,32.4995324 L4.43278815,32.3545683 L4.40442054,32.282554 L4.37558788,32.2110072 L4.34629019,32.1394604 L4.31699249,32.0683813 L4.28722975,31.9977698 L4.25700197,31.9266906 L4.19561631,31.7864029 L4.16445844,31.716259 L4.10121262,31.5769065 L4.06912467,31.5081655 L4.00401867,31.3692806 L3.93798259,31.2317986 L3.87055138,31.0947842 L3.80219009,30.9582374 L3.73289871,30.8221583 L3.66314229,30.6865468 L3.59199073,30.5509353 L3.52037414,30.4153237 L3.49619191,30.3694964 L3.44782746,30.2801799 L3.37481574,30.145036 L3.30087393,30.0103597 L3.22188325,29.8668424 L3.22188325,29.8668424 Z M2.77207304,26.9456349 L2.79258213,26.8697842 L2.8204847,26.768777 L2.84885231,26.6682374 L2.87815001,26.5676978 L2.90791275,26.4676259 L2.93814053,26.367554 L2.9692984,26.2679496 L3.00045627,26.1688129 L3.03254422,26.0696763 L3.06509722,25.9710072 L3.09811526,25.8728058 L3.11764706,25.8157554 L3.13159834,25.7746043 L3.16508143,25.6764029 L3.23390776,25.4809353 L3.26925102,25.3836691 L3.34086761,25.1900719 L3.37760599,25.093741 L3.41480942,24.9974101 L3.49014636,24.8056835 L3.52874491,24.7102878 L3.6068721,24.5204317 L3.68685947,24.3315108 L3.72778324,24.237518 L3.76870701,24.1439928 L3.81009582,24.0504676 L3.85194967,23.9569424 L3.89380352,23.8638849 L3.9793714,23.678705 L4.02262038,23.5865827 L4.06633441,23.4944604 L4.15469255,23.3111511 L4.19933666,23.219964 L4.28955496,23.0385252 L4.33512916,22.9478058 L4.38070336,22.857554 L4.42720764,22.7677698 L4.47371192,22.677518 L4.56718553,22.4993525 L4.66158922,22.3216547 L4.7308806,22.1939928 L4.75785308,22.1448921 L4.85504703,21.97 L4.95363611,21.7955755 L5.05269023,21.6220863 L5.15267443,21.45 L5.25312368,21.2783813 L5.35403798,21.1076978 L5.45588235,20.9384173 L5.55772673,20.7696043 L5.66003615,20.6017266 L5.76281061,20.4347842 L5.86605012,20.268777 L5.96928963,20.1032374 L6.07252913,19.9391007 L6.17623368,19.7754317 L6.27993823,19.6126978 L6.38364278,19.4504317 L6.58965675,19.1296403 L6.79567071,18.8116547 L6.89425979,18.6601439 L7.20862874,18.1892446 L7.41324758,17.8834173 L7.61507616,17.5799281 L7.71413028,17.4298201 L7.81271936,17.2801799 L7.87410501,17.1866547 L7.91130844,17.1319424 L8.0108276,16.9851079 L8.10895164,16.8396763 L8.20614558,16.6942446 L8.29124842,16.5661151 L8.30240945,16.5502158 L8.39774323,16.4066547 L8.49168188,16.2640288 L8.58469044,16.1223381 L8.64096062,16.0353597 L8.677699,15.9820504 L8.77163765,15.8436331 L8.86371613,15.7061511 L8.95486452,15.5691367 L9.04415274,15.4325899 L9.13158079,15.2969784 L9.21761372,15.1613669 L9.30132142,15.0266906 L9.38409905,14.8915468 L9.42409273,14.8251439 L9.46408641,14.7582734 L9.50361505,14.6918705 L9.54267865,14.625 L9.58081216,14.5585971 L9.59708866,14.5310072 L9.61941071,14.4926619 L9.65800927,14.4271942 L9.69614278,14.361259 L9.7333462,14.2957914 L9.77054963,14.2307914 L9.80682297,14.1653237 L9.84263126,14.1003237 L9.87797452,14.0353237 L9.91285273,13.9703237 L9.94680086,13.9053237 L9.98074898,13.8407914 L10.013767,13.776259 L10.04632,13.7117266 L10.078408,13.6471942 L10.1095658,13.5826619 L10.1407237,13.5185971 L10.1709515,13.4545324 L10.2007142,13.3904676 L10.2295469,13.3264029 L10.2579145,13.2628058 L10.2858171,13.198741 L10.3132546,13.1351439 L10.339762,13.0715468 L10.3658044,13.0079496 L10.3913818,12.9448201 L10.4160291,12.881223 L10.4402113,12.8180935 L10.4634634,12.754964 L10.4862505,12.6918345 L10.5085726,12.628705 L10.5215938,12.5898921 L10.5304296,12.5655755 L10.5522866,12.5029137 L10.5732135,12.4402518 L10.6132072,12.3149281 L10.6504106,12.1896043 L10.6680823,12.1274101 L10.6848238,12.0647482 L10.7011003,12.002554 L10.7169118,11.9398921 L10.7317931,11.8776978 L10.7457444,11.815036 L10.7592307,11.7528417 L10.7722519,11.6901799 L10.784343,11.627518 L10.795504,11.5653237 L10.8062,11.5026619 L10.8159659,11.4404676 L10.8252667,11.3778058 L10.8336375,11.3151439 L10.8415432,11.252482 L10.8485189,11.1888849 L10.8550295,11.1229496 L10.861075,11.0560791 L10.8671206,10.9896763 L10.8727011,10.9228058 L10.8773515,10.8559353 L10.882002,10.7895324 L10.8861874,10.7226619 L10.8899077,10.6557914 L10.893628,10.5893885 L10.8964183,10.5229856 L10.8992085,10.4561151 L10.9015338,10.3897122 L10.9033939,10.3233094 L10.9047891,10.2569065 L10.9057191,10.1905036 L10.9066492,10.1245683 L10.9071143,10.0581655 L10.9071143,9.99176259 L10.9066492,9.92582734 L10.9057191,9.85989209 L10.9047891,9.79348921 L10.9033939,9.72755396 L10.9015338,9.66161871 L10.8992085,9.59568345 L10.8968833,9.53021583 L10.8940931,9.46428058 L10.8908378,9.39881295 L10.8871174,9.3328777 L10.8833971,9.26741007 L10.8792117,9.2028777 L10.8699109,9.07147482 L10.8592149,8.94100719 L10.8471238,8.81100719 L10.8341026,8.68147482 L10.8196862,8.55194245 L10.8038748,8.4228777 L10.7871332,8.29428058 L10.7689966,8.16615108 L10.7494648,8.03848921 L10.7294679,7.91129496 L10.708076,7.78456835 L10.6852889,7.65830935 L10.6820336,7.64053957 L10.6625018,7.53205036 L10.6392496,7.40625899 L10.6146023,7.28140288 L10.589025,7.15654676 L10.5625175,7.0326259 L10.53508,6.90917266 L10.5067124,6.78618705 L10.4774147,6.66366906 L10.4471869,6.54208633 L10.4160291,6.42097122 L10.3844061,6.30032374 L10.3518532,6.18061151 L10.3183701,6.06136691 L10.2869621,5.9533893 L10.2272217,5.96503597 L10.1365383,5.98374101 L10.0453899,6.00338129 L9.86309315,6.04453237 L9.77194476,6.06651079 L9.68079636,6.08895683 L9.58964797,6.11233813 L9.49849958,6.13665468 L9.40735119,6.16143885 L9.31666784,6.18715827 L9.22551944,6.21334532 L9.13483609,6.24093525 L9.0436877,6.26899281 L8.95300435,6.29798561 L8.86278605,6.32744604 L8.7721027,6.35830935 L8.68188439,6.38964029 L8.59166608,6.42190647 L8.50191282,6.45510791 L8.41215955,6.4892446 L8.32240629,6.52431655 L8.23311807,6.56032374 L8.14382985,6.59726619 L8.05500667,6.63467626 L8.03268461,6.6444964 L7.96618349,6.67302158 L7.87736031,6.71183453 L7.78900218,6.75158273 L7.70064404,6.79226619 L7.61321599,6.83388489 L7.5253229,6.87643885 L7.43835989,6.91992806 L7.35139688,6.96482014 L7.26489892,7.01017986 L7.17840095,7.05694245 L7.09236803,7.10464029 L7.0072652,7.15327338 L6.92216236,7.20284173 L6.83705953,7.25334532 L6.75288678,7.3052518 L6.66917907,7.3576259 L6.58547136,7.41140288 L6.5022287,7.46658273 L6.41991612,7.52223022 L6.33760354,7.57928058 L6.255756,7.63773381 L6.17483855,7.69665468 L6.0939211,7.75697842 L6.01393374,7.81870504 L5.93394637,7.88089928 L5.85488909,7.94496403 L5.77629686,8.0094964 L5.69816966,8.07543165 L5.62050751,8.14276978 L5.5433104,8.21104317 L5.46704338,8.28071942 L5.3912414,8.35133094 L5.31590446,8.42334532 L5.24010248,8.49723022 L5.20382915,8.53323741 L5.16709076,8.57064748 L5.12988734,8.60852518 L5.093614,8.64640288 L5.05687561,8.6847482 L5.02060227,8.72309353 L4.98432893,8.76190647 L4.94805559,8.80118705 L4.876439,8.88068345 L4.80575249,8.96111511 L4.77040924,9.00226619 L4.73553103,9.04341727 L4.70018777,9.08456835 L4.6657746,9.12665468 L4.63089639,9.16874101 L4.59648322,9.21129496 L4.5625351,9.25384892 L4.52812193,9.2968705 L4.49463885,9.34035971 L4.46069072,9.38431655 L4.42720764,9.42827338 L4.39372455,9.47269784 L4.36070651,9.51758993 L4.29467043,9.60830935 L4.26211744,9.65413669 L4.22956444,9.70043165 L4.19747648,9.74672662 L4.13330058,9.84118705 L4.07005475,9.93658273 L4.0574986,9.95622302 L4.03843184,9.9847482 L4.00680893,10.0329137 L3.97518602,10.0820144 L3.94402815,10.1306475 L3.91287028,10.1802158 L3.85148463,10.2802878 L3.8207918,10.3307914 L3.79056402,10.3817626 L3.76033623,10.4332014 L3.73057349,10.4846403 L3.67104801,10.5893885 L3.64175032,10.6422302 L3.61245262,10.6955396 L3.55478731,10.8030935 L3.5264197,10.8573381 L3.49805208,10.912518 L3.47014952,10.9676978 L3.41434438,11.0789928 L3.35946932,11.1921583 L3.30552436,11.3071942 L3.27901692,11.3651799 L3.25250948,11.4236331 L3.22646708,11.482554 L3.20042468,11.5419424 L3.17484733,11.6013309 L3.14926997,11.6616547 L3.12415766,11.7219784 L3.09904535,11.7832374 L3.07439808,11.8444964 L3.04975081,11.906223 L3.02510354,11.9684173 L3.02184824,11.9773022 L3.00045627,12.0310791 L2.975809,12.093741 L2.95116173,12.1568705 L2.9269795,12.2204676 L2.90279728,12.2845324 L2.85536291,12.4135971 L2.83211077,12.4790647 L2.80885863,12.545 L2.78607153,12.6114029 L2.76328443,12.6782734 L2.74096238,12.7451439 L2.71864032,12.8129496 L2.69678331,12.881223 L2.67539134,12.9494964 L2.65399937,13.018705 L2.6326074,13.0883813 L2.61168047,13.1580576 L2.59121859,13.2286691 L2.5707567,13.2997482 L2.55075986,13.3708273 L2.53076302,13.4428417 L2.51123122,13.5153237 L2.47309771,13.661223 L2.45635617,13.7257554 L2.45403096,13.7351079 L2.43310403,13.8089928 L2.41310719,13.8828777 L2.39311035,13.9576978 L2.37311351,14.0329856 L2.35358171,14.108741 L2.33451495,14.184964 L2.3154482,14.2616547 L2.29684648,14.3388129 L2.29312614,14.3551799 L2.27824477,14.4164388 L2.24104134,14.5735612 L2.22290467,14.6525899 L2.20523305,14.732554 L2.17081988,14.8934173 L2.15361329,14.9747842 L2.1373368,15.0566187 L2.12850098,15.1001079 L2.12013021,15.1389209 L2.10245858,15.2216906 L2.085252,15.3049281 L2.06851046,15.3886331 L2.05176892,15.4728058 L2.03502738,15.5579137 L2.00340446,15.7290647 L1.98759301,15.8155755 L1.9722466,15.9030216 L1.95736523,15.9904676 L1.92853257,16.1672302 L1.91458129,16.2565468 L1.90063,16.3467986 L1.88714376,16.4370504 L1.86110136,16.6194245 L1.84854521,16.7115468 L1.83645409,16.8046043 L1.82761828,16.8738129 L1.82436298,16.8976619 L1.81134178,16.9916547 L1.79878562,17.0856475 L1.78669451,17.1805755 L1.7746034,17.2764388 L1.76297733,17.3723022 L1.7518163,17.4691007 L1.74065527,17.5663669 L1.72995929,17.6641007 L1.71972834,17.7627698 L1.70996245,17.8619065 L1.70019655,17.9615108 L1.69089569,18.0615827 L1.68205988,18.1625899 L1.67322406,18.2640647 L1.66485329,18.3660072 L1.64904184,18.5717626 L1.64160115,18.6760432 L1.63462551,18.7803237 L1.62811491,18.8855396 L1.62160431,18.991223 L1.6160238,19.0973741 L1.61044328,19.2044604 L1.60486277,19.3120144 L1.60021234,19.420036 L1.59556191,19.5289928 L1.59137653,19.6384173 L1.58719114,19.7483094 L1.58068054,19.969964 L1.57789028,20.0821942 L1.57556507,20.1944245 L1.5737049,20.3075899 L1.57184473,20.4216906 L1.5704496,20.5357914 L1.56951951,20.6508273 L1.56905447,20.7663309 L1.56858943,20.8827698 L1.56905447,20.9996763 L1.56905447,21.117518 L1.56951951,21.2353597 L1.56998456,21.3546043 L1.57091464,21.4733813 L1.57230977,21.5832734 L1.57463499,21.691295 L1.5769602,21.7983813 L1.58068054,21.905 L1.58486593,22.0102158 L1.5899814,22.114964 L1.59556191,22.218777 L1.60160747,22.3216547 L1.60858311,22.4235971 L1.61648884,22.5246043 L1.62439457,22.6251439 L1.63369542,22.7247482 L1.64299628,22.8234173 L1.65322722,22.9211511 L1.66438825,23.0184173 L1.67554928,23.1147482 L1.68764039,23.2101439 L1.70066159,23.3050719 L1.71368279,23.3990647 L1.72763407,23.4925899 L1.7420504,23.5851799 L1.75693177,23.6768345 L1.77274323,23.7684892 L1.78855468,23.858741 L1.80529622,23.9485252 L1.82250281,24.0378417 L1.84017443,24.1266906 L1.85877615,24.2146043 L1.87737786,24.3020504 L1.89690966,24.3885612 L1.91644146,24.4746043 L1.93690334,24.5601799 L1.95783027,24.6452878 L1.9787572,24.7294604 L2.00061421,24.8136331 L2.02293626,24.8968705 L2.03084199,24.9249281 L2.04572336,24.9791727 L2.06944054,25.0614748 L2.117805,25.2242086 L2.14291731,25.3046403 L2.16802962,25.3846043 L2.19407202,25.4641007 L2.22011442,25.5431295 L2.24662186,25.6221583 L2.27359434,25.7002518 L2.32846939,25.8555036 L2.38520462,26.0088849 L2.41403727,26.0851079 L2.44286993,26.1608633 L2.50239541,26.3114388 L2.53215815,26.386259 L2.56285098,26.4606115 L2.5935438,26.5344964 L2.62470167,26.6083813 L2.65585954,26.6817986 L2.68748245,26.7547482 L2.71957041,26.8276978 L2.75165836,26.9001799 L2.77207304,26.9456349 L2.77207304,26.9456349 Z M4.89345016,12.8861328 C4.89345016,12.8861328 5.56478812,12.7626509 6.05470375,12.025377 C6.92560523,10.7137492 7.30746886,9.40315999 7.30746886,9.40315999 C7.6314912,9.46427544 7.93917365,9.59253826 8.21091146,9.78006141 C9.27473607,10.5141946 9.5456029,11.9649174 8.81552492,13.018282 C8.08544695,14.0716466 6.62952601,14.3307329 5.5657014,13.5965997 C5.29396359,13.4090765 5.0651084,13.1670809 4.89345016,12.8861328 Z M26.6255616,28.6710791 L26.4232679,28.8847842 L26.217719,29.1003597 L26.0093798,29.3182734 L25.7987154,29.5375899 L25.5852608,29.758777 L25.3694809,29.9818345 L25.1509108,30.206295 L25.0425558,30.3180576 L24.9286203,30.4302878 L24.7012144,30.6528777 L24.4724133,30.8773381 L24.241287,31.1027338 L24.2324512,31.1111511 L24.0073705,31.3285971 L23.7715938,31.5553957 L23.5339569,31.7831295 L23.2953899,32.0117986 L23.219588,32.0838129 L23.0535677,32.2395324 L22.8098852,32.4677338 L22.5648077,32.6968705 L22.3188,32.9260072 L22.0713972,33.1560791 L21.8230644,33.3861511 L21.5738014,33.6171583 L21.0734153,34.078705 L20.6795241,34.4411151 L20.570239,34.5402518 L20.0633423,34.9989928 L19.5559806,35.4567986 L19.0486189,35.9132014 L18.5421873,36.3672662 L18.0376158,36.8180576 L17.5353696,37.2655755 L17.0368437,37.7084173 L16.5425032,38.1470504 L16.0532781,38.5796043 L15.5696336,39.0060791 L15.0929647,39.4255396 L14.6237365,39.837518 L14.3419205,40.0844245 L14.162414,40.2410791 L13.7099273,40.6352878 L13.2676716,41.0201439 L12.8356468,41.3947122 L12.4157132,41.7589928 L12.0083357,42.1115827 L11.6139794,42.4520144 L11.2335743,42.7798201 L10.8685157,43.0940647 L10.1858329,43.6804676 L9.57290643,44.2056115 L9.03624702,44.6638849 L8.91533588,44.7667626 L12.2803857,44.6456475 L17.9441422,44.376295 L27.4170644,43.9091367 L37.1490155,43.4185971 L43.5893935,43.080036 L47.6199196,42.8247122 L50.3046118,42.6451439 L50.2576425,42.6236331 L49.8679366,42.4445324 L49.448468,42.2504676 L49.2280377,42.1475899 L49.0010968,42.0419065 L48.7671803,41.9320144 L48.5272182,41.8188489 L48.2807455,41.7024101 L48.0282272,41.5822302 L47.7696634,41.4592446 L47.5050541,41.332518 L47.2353292,41.202518 L46.9595588,41.0697122 L46.679138,40.9336331 L46.3931367,40.7942806 L46.1020199,40.6516547 L45.8067177,40.506223 L45.5063,40.3579856 L45.201697,40.2064748 L44.8929085,40.0526259 L44.5794697,39.8955036 L44.3595044,39.7846763 L44.2623105,39.7360432 L43.9409659,39.5751799 L43.6154359,39.4115108 L43.2871157,39.245036 L42.9550751,39.0757554 L42.6202443,38.9046043 L42.2821581,38.7301799 L41.9412818,38.5538849 L41.5980802,38.3752518 L41.2520883,38.1938129 L40.9042363,38.0105036 L40.554059,37.8243885 L40.2015566,37.6364029 L39.847659,37.4460791 L39.4923663,37.2538849 L39.1352134,37.0593525 L38.7771304,36.8629496 L38.7599238,36.8531295 L38.4181174,36.663741 L38.0581742,36.4621942 L37.697766,36.2592446 L37.3364278,36.0544245 L36.9750895,35.8477338 L36.7941878,35.7434532 L36.6132862,35.638705 L36.4319195,35.5339568 L36.2510178,35.428741 L35.8892145,35.2164388 L35.7083129,35.1098201 L35.5274112,35.0027338 L35.3469746,34.8951799 L35.2162976,34.8170863 L35.166538,34.7871583 L34.9870314,34.6772662 L34.8075249,34.5669065 L34.6284834,34.4565468 L34.4494419,34.3457194 L34.2708655,34.2344245 L34.0922891,34.1226619 L33.9141777,34.0108993 L33.7365313,33.8986691 L33.558885,33.7859712 L33.3817036,33.6728058 L33.2049874,33.5591727 L33.1268602,33.5091367 L33.0301313,33.4427338 L32.8576004,33.3234892 L32.6855345,33.203777 L32.5139337,33.0835971 L32.342798,32.9634173 L32.1721273,32.8427698 L32.0019216,32.7221223 L31.832181,32.6010072 L31.6633704,32.4794245 L31.4950249,32.3578417 L31.3271445,32.236259 L31.159729,32.1142086 L30.9932437,31.9916906 L30.8272234,31.8691727 L30.6621332,31.7461871 L30.4975081,31.6232014 L30.333813,31.5002158 L30.170583,31.3767626 L30.008283,31.2533094 L29.8469132,31.1293885 L29.6864734,31.0054676 L29.5264987,30.8815468 L29.367454,30.7571583 L29.2093395,30.6327698 L29.052155,30.5079137 L28.8959006,30.3830576 L28.7405763,30.2582014 L28.5861821,30.1328777 L28.432718,30.007554 L28.2801839,29.8822302 L28.12858,29.7569065 L27.9783711,29.6311151 L27.8290924,29.5053237 L27.6807437,29.3795324 L27.5333251,29.253741 L27.3873017,29.127482 L27.2426734,29.0016906 L27.0989752,28.8754317 L26.956207,28.748705 L26.814834,28.622446 L26.7915818,28.6018705 L26.7376369,28.5523022 L26.6255616,28.6710791 Z M29.2028289,11.703741 L29.10703,11.7402158 L29.0116963,11.7766906 L28.9168275,11.8141007 L28.8219588,11.8519784 L28.7270901,11.8903237 L28.6322213,11.9291367 L28.5378176,11.9679496 L28.443879,12.0076978 L28.2560017,12.0881295 L28.1625281,12.1292806 L28.0695195,12.1708993 L27.976976,12.212518 L27.8844325,12.2550719 L27.791889,12.2980935 L27.7002755,12.3411151 L27.6086621,12.3850719 L27.5175137,12.4294964 L27.4263653,12.4743885 L27.2459287,12.5651079 L27.1566405,12.6114029 L27.0673522,12.6581655 L26.9785291,12.7053957 L26.8901709,12.7530935 L26.8022778,12.8017266 L26.7148498,12.8503597 L26.6278868,12.8994604 L26.5413888,12.9490288 L26.4553559,12.9995324 L26.3702531,13.050036 L26.2851502,13.1014748 L26.2009775,13.1529137 L26.1172698,13.2052878 L26.0340271,13.2581295 L25.9517145,13.3114388 L25.869867,13.3652158 L25.7884845,13.4194604 L25.707567,13.4741727 L25.6275797,13.5293525 L25.5480573,13.5854676 L25.4694651,13.6415827 L25.3913379,13.6986331 L25.3141408,13.7556835 L25.2374087,13.8136691 L25.1616068,13.8721223 L25.0862698,13.9310432 L25.011863,13.9904317 L24.9379212,14.0502878 L24.8649094,14.1110791 L24.7928278,14.1718705 L24.7212112,14.2335971 L24.6509898,14.2953237 L24.5812333,14.3579856 L24.5119419,14.4211151 L24.4440457,14.4847122 L24.3766145,14.548777 L24.3101134,14.613777 L24.2450074,14.678777 L24.1803664,14.7447122 L24.1161905,14.8111151 L24.0534097,14.8779856 L23.991559,14.9453237 L23.9306384,15.0131295 L23.8706479,15.0814029 L23.8115875,15.1501439 L23.7534571,15.2198201 L23.6962568,15.289964 L23.6399867,15.3605755 L23.5846466,15.4316547 L23.5302366,15.5032014 L23.4772217,15.5752158 L23.4251369,15.6481655 L23.3739822,15.7211151 L23.3237575,15.795 L23.274463,15.8693525 L23.2265636,15.9441727 L23.1795943,16.0199281 L23.1340201,16.0956835 L23.0889109,16.1723741 L23.0451969,16.2495324 L23.002878,16.3271583 L22.9610241,16.4052518 L22.9210305,16.4842806 L22.8815018,16.563777 L22.8433683,16.643741 L22.8066299,16.7241727 L22.7703566,16.8060072 L22.75315,16.846223 L22.7359434,16.8869065 L22.7024603,16.9692086 L22.6861838,17.0108273 L22.6545609,17.0940647 L22.6392145,17.1356835 L22.6238681,17.1777698 L22.6089867,17.2198561 L22.5945704,17.2624101 L22.5666678,17.347518 L22.5531816,17.3900719 L22.5396954,17.4330935 L22.5266742,17.4761151 L22.514118,17.5196043 L22.5015618,17.5626259 L22.4894707,17.6061151 L22.4662186,17.6940288 L22.4555226,17.7379856 L22.4443616,17.7824101 L22.4238997,17.871259 L22.4141338,17.9156835 L22.4043679,17.9605755 L22.395067,18.0059353 L22.3862312,18.0508273 L22.3778605,18.0961871 L22.3694897,18.1420144 L22.361584,18.1878417 L22.3467026,18.2794964 L22.3397269,18.3257914 L22.3332163,18.372554 L22.3271708,18.4188489 L22.3215903,18.4632734 L22.3211252,18.4656115 L22.3099642,18.5600719 L22.3006633,18.6545324 L22.2960129,18.7022302 L22.2922926,18.7503957 L22.2885722,18.7980935 L22.2853169,18.8467266 L22.2825267,18.8948921 L22.2797364,18.9435252 L22.2778762,18.9926259 L22.2760161,19.041259 L22.2741559,19.0903597 L22.2722957,19.1894964 L22.2718307,19.2395324 L22.2718307,19.2891007 L22.2722957,19.3396043 L22.2727608,19.3896403 L22.2736909,19.4406115 L22.275086,19.4911151 L22.2769462,19.5420863 L22.2792714,19.5935252 L22.2815966,19.6444964 L22.2843868,19.6964029 L22.2876421,19.7478417 L22.2913625,19.7997482 L22.2997333,19.9044964 L22.3043837,19.9573381 L22.3094992,20.0101799 L22.3150797,20.0620863 L22.3211252,20.1116547 L22.3271708,20.1607554 L22.3341464,20.2098561 L22.3415871,20.2589568 L22.3494928,20.3085252 L22.3578636,20.3576259 L22.3671645,20.4071942 L22.3769304,20.4572302 L22.3876264,20.5067986 L22.3983223,20.5568345 L22.4099484,20.6068705 L22.4220395,20.6573741 L22.4480819,20.7583813 L22.4620332,20.8088849 L22.4769146,20.8598561 L22.4917959,20.9103597 L22.5076074,20.9617986 L22.5238839,21.0127698 L22.5406254,21.0642086 L22.5759687,21.1670863 L22.5945704,21.2189928 L22.6141022,21.2704317 L22.633634,21.3228058 L22.6540959,21.3747122 L22.6750228,21.4270863 L22.6964148,21.4789928 L22.7182718,21.5318345 L22.7410589,21.5842086 L22.764311,21.6370504 L22.7880282,21.6898921 L22.8122104,21.7427338 L22.8373228,21.7955755 L22.8629001,21.8488849 L22.8889425,21.9021942 L22.91545,21.9555036 L22.9424224,22.0088129 L22.970325,22.0625899 L22.9986926,22.1163669 L23.0275253,22.1701439 L23.056823,22.2239209 L23.0865857,22.2781655 L23.1172785,22.3319424 L23.1484364,22.3861871 L23.1800593,22.4404317 L23.2121473,22.4951439 L23.2447003,22.5493885 L23.2777183,22.6041007 L23.3116664,22.6588129 L23.3460796,22.7135252 L23.3809578,22.7682374 L23.4163011,22.8234173 L23.4521094,22.8785971 L23.4883827,22.933777 L23.5627896,23.0441367 L23.6009231,23.0993165 L23.6395216,23.154964 L23.6785852,23.2106115 L23.7181139,23.2657914 L23.7581075,23.3219065 L23.7985663,23.377554 L23.83949,23.4332014 L23.8813439,23.4893165 L23.9231977,23.544964 L24.0087656,23.6571942 L24.0524796,23.7133094 L24.0966587,23.7694245 L24.1413028,23.8260072 L24.1859469,23.8821223 L24.2315211,23.938705 L24.2770953,23.9943525 L24.371034,24.1079856 L24.4663678,24.2216187 L24.5635617,24.3347842 L24.6626158,24.4484173 L24.7635301,24.562518 L24.8663046,24.6766187 L24.9709392,24.7907194 L25.077434,24.9052878 L25.185324,25.0198561 L25.2950741,25.1344245 L25.4066843,25.2489928 L25.5201548,25.3640288 L25.6350204,25.4790647 L25.7512811,25.5941007 L25.8694019,25.7091367 L25.989383,25.8246403 L26.1107592,25.9401439 L26.2335305,26.0556475 L26.3581619,26.1711511 L26.4841885,26.2866547 L26.5088358,26.3091007 L26.5576653,26.2609353 L26.7436824,26.0771583 L26.9255142,25.8957194 L27.1036256,25.7166187 L27.2775516,25.5407914 L27.4468272,25.3682374 L27.6123824,25.1980216 L27.7732872,25.0315468 L27.9295416,24.8678777 L28.0811456,24.707482 L28.1764794,24.6060072 L28.2285642,24.551295 L28.3713323,24.3988489 L28.508985,24.2496763 L28.6419872,24.1042446 L28.7061631,24.0331655 L28.7689439,23.9630216 L28.8307946,23.8938129 L28.8907851,23.8255396 L28.9498456,23.7586691 L29.0070458,23.6922662 L29.063316,23.6272662 L29.117726,23.5632014 L29.171206,23.5000719 L29.2228257,23.4383453 L29.2730503,23.377554 L29.3218798,23.3181655 L29.3688492,23.2597122 L29.4148884,23.2021942 L29.4586024,23.1465468 L29.5013864,23.0913669 L29.5423101,23.0380576 L29.5813737,22.9856835 L29.6139267,22.9421942 L29.6464797,22.8977698 L29.6781026,22.8533453 L29.7413484,22.7635612 L29.7725063,22.7182014 L29.8031991,22.6723741 L29.8334269,22.6265468 L29.8636547,22.5802518 L29.8929524,22.5339568 L29.9227151,22.4871942 L29.9803805,22.3927338 L30.0371157,22.2973381 L30.0650183,22.2491727 L30.0924558,22.2005396 L30.1194283,22.1519065 L30.1464007,22.1028058 L30.1729082,22.053705 L30.224993,21.9545683 L30.2505703,21.9045324 L30.2756826,21.8544964 L30.3003299,21.8039928 L30.3249772,21.7530216 L30.3491594,21.7020504 L30.3733416,21.6506115 L30.3965938,21.5991727 L30.4198459,21.5472662 L30.442633,21.4953597 L30.4649551,21.4434532 L30.4872771,21.3906115 L30.5091341,21.3382374 L30.5305261,21.2849281 L30.5519181,21.2320863 L30.57238,21.1783094 L30.5928419,21.125 L30.6128387,21.0707554 L30.6328355,21.0169784 L30.6519023,20.9627338 L30.670969,20.9080216 L30.6895708,20.8533094 L30.7081725,20.7981295 L30.7263091,20.7429496 L30.7779289,20.5760072 L30.8104819,20.463777 L30.8262933,20.4071942 L30.8416398,20.3506115 L30.8569862,20.2935612 L30.8718675,20.2365108 L30.8858188,20.1794604 L30.9002352,20.1219424 L30.9137214,20.0639568 L30.9267426,20.0064388 L30.9397638,19.9479856 L30.9523199,19.89 L30.9644111,19.8315468 L30.9760371,19.7730935 L30.9876632,19.7141727 L30.9988242,19.6552518 L31.0095202,19.5958633 L31.0197512,19.5364748 L31.0295171,19.4770863 L31.0481188,19.3573741 L31.0569546,19.297518 L31.0653254,19.2371942 L31.0732311,19.1768705 L31.0806718,19.1165468 L31.0881125,19.0557554 L31.0950881,18.994964 L31.1011337,18.9341727 L31.1132248,18.8116547 L31.1183402,18.7503957 L31.1234557,18.6886691 L31.1318265,18.5652158 L31.1355468,18.5030216 L31.1388021,18.4408273 L31.1443826,18.3164388 L31.148103,18.1911151 L31.1494981,18.1279856 L31.1504282,18.0653237 L31.1508932,18.0021942 L31.1508932,17.8759353 L31.1490331,17.748741 L31.1476379,17.6851439 L31.1453127,17.6215468 L31.1406623,17.4934173 L31.137407,17.4293525 L31.1336866,17.3652878 L31.1299663,17.3007554 L31.1253159,17.2366906 L31.1206654,17.1721583 L31.11555,17.1076259 L31.1099695,17.0426259 L31.1039239,16.9780935 L31.0974133,16.9130935 L31.0932279,16.8738129 L31.0904377,16.8480935 L31.083462,16.7830935 L31.0760213,16.7180935 L31.0681156,16.6526259 L31.0597448,16.5876259 L31.050909,16.5221583 L31.0323073,16.391223 L31.0220764,16.3252878 L31.0113804,16.2598201 L31.0006844,16.1938849 L30.9895234,16.1284173 L30.9653411,15.9965468 L30.952785,15.9306115 L30.9397638,15.8642086 L30.9262776,15.7982734 L30.9123263,15.7318705 L30.8979099,15.6659353 L30.8830286,15.5995324 L30.8523357,15.4667266 L30.8360592,15.4003237 L30.8025762,15.267518 L30.7849045,15.2011151 L30.7672329,15.1342446 L30.7300295,15.0014388 L30.7109627,14.9345683 L30.6909659,14.8681655 L30.670969,14.801295 L30.6505072,14.7344245 L30.6291152,14.667554 L30.6077232,14.6011511 L30.5858662,14.5342806 L30.5635442,14.4674101 L30.5407571,14.4005396 L30.5175049,14.3336691 L30.4933227,14.2672662 L30.4691405,14.2003957 L30.4444932,14.1335252 L30.4193809,14.0666547 L30.3938035,13.9997842 L30.3677611,13.9329137 L30.3412537,13.8660432 L30.3142812,13.7991727 L30.2868437,13.7327698 L30.2589411,13.6658993 L30.2305735,13.5990288 L30.2017408,13.5321583 L30.1724431,13.4657554 L30.1426804,13.3988849 L30.1124526,13.3320144 L30.0817598,13.2656115 L30.0501369,13.198741 L30.018514,13.1323381 L29.986426,13.0659353 L29.953873,12.9990647 L29.920855,12.9326619 L29.8873719,12.866259 L29.8185456,12.7334532 L29.7836673,12.6670504 L29.747859,12.6006475 L29.7120508,12.5347122 L29.6757774,12.4683094 L29.638574,12.4023741 L29.6013706,12.3359712 L29.5251035,12.2041007 L29.4860399,12.1381655 L29.4465113,12.0726978 L29.3665239,11.9408273 L29.3256002,11.8753597 L29.2842114,11.8098921 L29.2423575,11.7444245 L29.2135248,11.6995324 L29.2028289,11.703741 Z M26.8934262,20.5755396 C25.866082,20.5755396 25.0332549,19.7380866 25.0332549,18.705036 C25.0332549,17.6719854 25.866082,16.8345324 26.8934262,16.8345324 C27.9207705,16.8345324 28.7535975,17.6719854 28.7535975,18.705036 C28.7535975,19.7380866 27.9207705,20.5755396 26.8934262,20.5755396 Z M31.3097284,46.7875414 C31.2959182,46.4022385 31.5977513,46.0787177 31.9838915,46.0649374 C32.3700318,46.0511571 32.6942558,46.3523356 32.708066,46.7376385 C32.7097096,46.7834927 32.7125391,46.8705157 32.7161574,46.9955755 C32.7221622,47.2031192 32.7281607,47.4424225 32.7337555,47.7103558 C32.7864523,50.2339847 32.7671928,53.0027044 32.6241922,55.6151265 C32.3680522,60.2944446 31.791223,63.4042165 30.6453325,64.5564718 C30.3731708,64.8301452 29.9302018,64.8318492 29.6559336,64.5602777 C29.3816654,64.2887063 29.3799578,63.846698 29.6521194,63.5730246 C30.4408457,62.7799173 30.9938889,59.7983797 31.227043,55.5389797 C31.3678202,52.9671775 31.3868537,50.2309537 31.3348275,47.7394407 C31.3293123,47.4753204 31.3234073,47.2397466 31.3175085,47.0358668 C31.3139847,46.9140724 31.3112592,46.8302489 31.3097284,46.7875414 Z M26.6590275,48.6486727 C26.6504046,48.2632195 26.9565651,47.9437729 27.342856,47.9351688 C27.729147,47.9265646 28.0492878,48.2320612 28.0579106,48.6175144 C28.0606544,48.740165 28.0647373,48.9683938 28.06881,49.2872574 C28.09759,51.5405406 28.0765295,54.070922 27.9680239,56.4677063 C27.767878,60.8887386 27.350532,63.6609401 26.4599471,64.5564718 C26.1877854,64.8301452 25.7448165,64.8318492 25.4705483,64.5602777 C25.1962801,64.2887063 25.1945724,63.846698 25.4667341,63.5730246 C25.9795901,63.0573199 26.3935184,60.30782 26.5702177,56.4047 C26.6773029,54.039289 26.6981572,51.5336908 26.6696919,49.3050501 C26.6656782,48.9907991 26.6616746,48.7670058 26.6590275,48.6486727 Z" id="Shape"></path>
            </g>
        </g>
    </g>
</svg>