<svg width="60" height="68" viewBox="0 0 60 68" xmlns="http://www.w3.org/2000/svg">
    <title>
        Shape
    </title>
    <path d="M57.248 7.229H51.33V2.677C51.33 1.2 50.097 0 48.578 0H11.422C9.902 0 8.67 1.2 8.67 2.677V7.23H2.752C1.233 7.229 0 8.429 0 9.906v4.82c0 5.81 4.057 10.623 9.683 11.925 1.31 4.22 3.875 8.037 7.563 10.725 2.9 2.12 6.363 3.443 10.002 3.904v11.753c-6.854.145-12.386 5.585-12.386 12.29 0 1.478 1.233 2.677 2.753 2.677h24.77c1.52 0 2.753-1.2 2.753-2.677 0-6.705-5.532-12.145-12.386-12.29V41.285c3.606-.46 7.09-1.778 10.002-3.903 3.688-2.689 6.253-6.506 7.563-10.726C55.95 25.355 60 20.541 60 14.726v-4.82c0-1.478-1.228-2.677-2.752-2.677zM5.505 14.726v-2.142H8.67v7.802c-1.883-1.248-3.165-3.267-3.165-5.66zM39.083 62.65H20.917c1.08-2.517 3.633-4.284 6.606-4.284h4.954c2.973 0 5.527 1.767 6.606 4.284zm6.743-41.95c0 4.852-2.384 9.484-6.37 12.391-5.311 3.888-13.425 4.011-18.913 0-3.985-2.907-6.369-7.54-6.369-12.39V5.354h31.652V20.7zm8.67-5.975c0 2.388-1.283 4.407-3.166 5.654v-7.796h3.165v2.142z" fill="#FFF" fill-rule="nonzero"/>
</svg>
